SplineFontDB: 3.2
FontName: TengwarMiriel-Bold
FullName: Tengwar Miriel Bold
FamilyName: Tengwar Miriel
Weight: Bold
Copyright: Shankar Sivarajan.\nBased on Tengwar Tellepsalinnacontar by Bas van Hoorn.
Version: 
ItalicAngle: 0
UnderlinePosition: -292
UnderlineWidth: 150
Ascent: 1638
Descent: 410
InvalidEm: 0
LayerCount: 2
Layer: 0 1 "Back" 1
Layer: 1 1 "Fore" 0
XUID: [1021 146 -1796264217 671]
StyleMap: 0x0020
FSType: 0
OS2Version: 3
OS2_WeightWidthSlopeOnly: 0
OS2_UseTypoMetrics: 0
CreationTime: 1275331795
ModificationTime: 1689170434
PfmFamily: 33
TTFWeight: 700
TTFWidth: 5
LineGap: 67
VLineGap: 0
Panose: 2 11 6 4 2 2 2 2 2 4
OS2TypoAscent: 1491
OS2TypoAOffset: 0
OS2TypoDescent: -431
OS2TypoDOffset: 0
OS2TypoLinegap: 307
OS2WinAscent: 1854
OS2WinAOffset: 0
OS2WinDescent: 434
OS2WinDOffset: 0
HheadAscent: 1854
HheadAOffset: 0
HheadDescent: -434
HheadDOffset: 0
OS2SubXSize: 1434
OS2SubYSize: 1331
OS2SubXOff: 0
OS2SubYOff: 283
OS2SupXSize: 1434
OS2SupYSize: 1331
OS2SupXOff: 0
OS2SupYOff: 977
OS2StrikeYSize: 102
OS2StrikeYPos: 512
OS2CapHeight: 1466
OS2XHeight: 1062
OS2FamilyClass: 2053
OS2Vendor: 'HL  '
OS2CodePages: 20000011.00000000
OS2UnicodeRanges: 800000af.1000005a.00000000.00000000
Lookup: 6 0 0 "WidthAdjust" { "WidthAdjust contextual 0"  "WidthAdjust contextual 1"  "WidthAdjust contextual 2"  "WidthAdjust contextual 3"  "WidthAdjust contextual 4"  "WidthAdjust contextual 5"  "WidthAdjust contextual 6"  "WidthAdjust contextual 7"  } ['liga' ('latn' <'dflt' > 'DFLT' <'dflt' > ) ]
Lookup: 1 0 0 "Single Substitution lookup 1" { "Single Substitution lookup 1 subtable"  } []
Lookup: 1 0 0 "Single Substitution lookup 2" { "Single Substitution lookup 2 subtable"  } []
Lookup: 1 0 0 "Single Substitution lookup 3" { "Single Substitution lookup 3 subtable"  } []
Lookup: 1 0 0 "Single Substitution lookup 4" { "Single Substitution lookup 4 subtable"  } []
Lookup: 1 0 0 "Single Substitution lookup 5" { "Single Substitution lookup 5 subtable"  } []

StartChar: .notdef
Encoding: 65536 -1 0
Width: 1553
GlyphClass: 1
Flags: W
LayerCount: 2
Fore
SplineSet
232 -20 m 1,0,-1
 232 1083 l 1,1,-1
 1335 1083 l 1,2,-1
 1335 -20 l 1,3,-1
 232 -20 l 1,0,-1
368 115 m 1,4,-1
 1199 115 l 1,5,-1
 1199 948 l 1,6,-1
 368 948 l 1,7,-1
 368 115 l 1,4,-1
EndSplineSet
Validated: 1
EndChar

StartChar: uniE000
Encoding: 57344 57344 4
Width: 1093
GlyphClass: 1
Flags: W
AnchorPoint: "TehtaBelow" 693 -200 basechar 0
AnchorPoint: "TehtaAbove" 593 1500 basechar 0
LayerCount: 2
Fore
SplineSet
335 -426 m 1,0,-1
 107 -426 l 1,1,-1
 107 1081 l 1,2,-1
 335 1081 l 1,3,-1
 335 984 l 1,4,5
 443 1105 443 1105 617 1105 c 0,6,7
 706 1105 706 1105 781.5 1068.5 c 128,-1,8
 857 1032 857 1032 911.5 961.5 c 128,-1,9
 966 891 966 891 997 787 c 128,-1,10
 1028 683 1028 683 1028 549 c 0,11,12
 1028 409 1028 409 986.5 270.5 c 128,-1,13
 945 132 945 132 862 -20 c 1,14,-1
 633 -20 l 1,15,16
 693 114 693 114 727.5 206.5 c 128,-1,17
 762 299 762 299 773 350 c 0,18,19
 785 405 785 405 791.5 455.5 c 128,-1,20
 798 506 798 506 798 555 c 0,21,22
 798 637 798 637 783.5 703.5 c 128,-1,23
 769 770 769 770 742.5 817 c 128,-1,24
 716 864 716 864 678.5 890 c 128,-1,25
 641 916 641 916 596 916 c 0,26,27
 545 916 545 916 501.5 893 c 128,-1,28
 458 870 458 870 424 834.5 c 128,-1,29
 390 799 390 799 367 756 c 128,-1,30
 344 713 344 713 335 673 c 1,31,-1
 335 -426 l 1,0,-1
EndSplineSet
Validated: 1
EndChar

StartChar: uniE001
Encoding: 57345 57345 5
Width: 1170
GlyphClass: 1
Flags: W
AnchorPoint: "TehtaAbove" 670 1500 basechar 0
AnchorPoint: "TehtaBelow" 770 -200 basechar 0
LayerCount: 2
Fore
SplineSet
717 175 m 1,0,1
 740 235 740 235 753 277 c 128,-1,2
 766 319 766 319 774 351 c 0,3,4
 801 465 801 465 801 555 c 0,5,6
 801 632 801 632 786.5 698 c 128,-1,7
 772 764 772 764 745.5 812.5 c 128,-1,8
 719 861 719 861 681 888.5 c 128,-1,9
 643 916 643 916 596 916 c 0,10,11
 559 916 559 916 524 903 c 128,-1,12
 489 890 489 890 459 868 c 128,-1,13
 429 846 429 846 405 816.5 c 128,-1,14
 381 787 381 787 366 753 c 0,15,16
 315 643 315 643 315 468 c 0,17,18
 315 374 315 374 319 304 c 128,-1,19
 323 234 323 234 331 175 c 1,20,-1
 717 175 l 1,0,1
335 -20 m 1,21,-1
 335 -426 l 1,22,-1
 107 -426 l 1,23,-1
 107 1081 l 1,24,-1
 335 1081 l 1,25,-1
 335 984 l 1,26,27
 443 1105 443 1105 618 1105 c 0,28,29
 706 1105 706 1105 781 1068.5 c 128,-1,30
 856 1032 856 1032 911 961 c 128,-1,31
 966 890 966 890 997 786.5 c 128,-1,32
 1028 683 1028 683 1028 549 c 0,33,34
 1028 457 1028 457 1009 363 c 128,-1,35
 990 269 990 269 954 175 c 1,36,-1
 1104 175 l 1,37,-1
 1104 -20 l 1,38,-1
 335 -20 l 1,21,-1
EndSplineSet
Validated: 1
EndChar

StartChar: uniE002
Encoding: 57346 57346 6
Width: 1095
GlyphClass: 1
Flags: W
AnchorPoint: "TehtaAbove" 595 1500 basechar 0
AnchorPoint: "TehtaBelow" 495 -200 basechar 0
LayerCount: 2
Fore
SplineSet
743 1081 m 1,0,-1
 970 1081 l 1,1,-1
 970 -426 l 1,2,-1
 743 -426 l 1,3,-1
 743 76 l 1,4,5
 635 -45 635 -45 459 -45 c 0,6,7
 371 -45 371 -45 296 -8 c 128,-1,8
 221 29 221 29 166 100.5 c 128,-1,9
 111 172 111 172 80 275.5 c 128,-1,10
 49 379 49 379 49 512 c 0,11,12
 49 651 49 651 90.5 790 c 128,-1,13
 132 929 132 929 215 1081 c 1,14,-1
 443 1081 l 1,15,16
 405 994 405 994 378 928 c 128,-1,17
 351 862 351 862 332.5 810 c 128,-1,18
 314 758 314 758 303.5 717.5 c 128,-1,19
 293 677 293 677 287.5 642 c 128,-1,20
 282 607 282 607 280.5 574.5 c 128,-1,21
 279 542 279 542 279 506 c 0,22,23
 279 422 279 422 294 355 c 128,-1,24
 309 288 309 288 335.5 241 c 128,-1,25
 362 194 362 194 398.5 169 c 128,-1,26
 435 144 435 144 478 144 c 2,27,-1
 482 144 l 2,28,29
 532 144 532 144 575.5 166 c 128,-1,30
 619 188 619 188 653.5 223 c 128,-1,31
 688 258 688 258 711 301.5 c 128,-1,32
 734 345 734 345 743 387 c 1,33,-1
 743 1081 l 1,0,-1
EndSplineSet
Validated: 1
EndChar

StartChar: uniE003
Encoding: 57347 57347 7
Width: 1172
GlyphClass: 1
Flags: W
AnchorPoint: "TehtaAbove" 672 1500 basechar 0
AnchorPoint: "TehtaBelow" 572 -200 basechar 0
LayerCount: 2
Fore
SplineSet
438 886 m 1,0,1
 409 814 409 814 392 758.5 c 128,-1,2
 375 703 375 703 366.5 658.5 c 128,-1,3
 358 614 358 614 355.5 577 c 128,-1,4
 353 540 353 540 353 506 c 0,5,6
 353 426 353 426 367.5 359.5 c 128,-1,7
 382 293 382 293 409 245 c 128,-1,8
 436 197 436 197 473.5 170.5 c 128,-1,9
 511 144 511 144 558 144 c 0,10,11
 594 144 594 144 628 156.5 c 128,-1,12
 662 169 662 169 692 190.5 c 128,-1,13
 722 212 722 212 746.5 242 c 128,-1,14
 771 272 771 272 788 308 c 0,15,16
 814 360 814 360 826 430 c 128,-1,17
 838 500 838 500 838 589 c 2,18,-1
 838 602 l 2,19,20
 837 689 837 689 833.5 758.5 c 128,-1,21
 830 828 830 828 822 886 c 1,22,-1
 438 886 l 1,0,1
50 1081 m 1,23,-1
 1046 1081 l 1,24,-1
 1046 -425 l 1,25,-1
 819 -425 l 1,26,-1
 819 76 l 1,27,28
 711 -45 711 -45 536 -45 c 0,29,30
 448 -45 448 -45 373 -8.5 c 128,-1,31
 298 28 298 28 243 98.5 c 128,-1,32
 188 169 188 169 157 273 c 128,-1,33
 126 377 126 377 126 512 c 0,34,35
 126 698 126 698 198 886 c 1,36,-1
 50 886 l 1,37,-1
 50 1081 l 1,23,-1
EndSplineSet
Validated: 1
EndChar

StartChar: uniE004
Encoding: 57348 57348 8
Width: 1729
GlyphClass: 1
Flags: W
AnchorPoint: "TehtaAbove" 929 1500 basechar 0
AnchorPoint: "TehtaBelow" 929 -200 basechar 0
LayerCount: 2
Fore
SplineSet
336 -426 m 1,0,-1
 108 -426 l 1,1,-1
 108 1081 l 1,2,-1
 336 1081 l 1,3,-1
 336 984 l 1,4,5
 444 1105 444 1105 616 1105 c 0,6,7
 810 1105 810 1105 927 930 c 1,8,9
 984 1018 984 1018 1063.5 1061.5 c 128,-1,10
 1143 1105 1143 1105 1235 1105 c 0,11,12
 1337 1105 1337 1105 1416.5 1066.5 c 128,-1,13
 1496 1028 1496 1028 1550 956 c 128,-1,14
 1604 884 1604 884 1632 781 c 128,-1,15
 1660 678 1660 678 1660 549 c 0,16,17
 1660 409 1660 409 1618.5 270.5 c 128,-1,18
 1577 132 1577 132 1494 -20 c 1,19,-1
 1268 -20 l 1,20,21
 1326 114 1326 114 1361.5 207 c 128,-1,22
 1397 300 1397 300 1408 351 c 1,23,-1
 1407 350 l 1,24,25
 1417 404 1417 404 1423.5 456.5 c 128,-1,26
 1430 509 1430 509 1430 555 c 0,27,28
 1430 639 1430 639 1415 706 c 128,-1,29
 1400 773 1400 773 1373.5 819.5 c 128,-1,30
 1347 866 1347 866 1310 891 c 128,-1,31
 1273 916 1273 916 1229 916 c 0,32,33
 1181 916 1181 916 1143 890 c 128,-1,34
 1105 864 1105 864 1078 816 c 128,-1,35
 1051 768 1051 768 1036.5 700.5 c 128,-1,36
 1022 633 1022 633 1022 549 c 0,37,38
 1022 409 1022 409 981 270 c 128,-1,39
 940 131 940 131 858 -20 c 1,40,-1
 630 -20 l 1,41,42
 686 110 686 110 719 197.5 c 128,-1,43
 752 285 752 285 768.5 347.5 c 128,-1,44
 785 410 785 410 789.5 457.5 c 128,-1,45
 794 505 794 505 794 555 c 0,46,47
 794 636 794 636 779.5 702.5 c 128,-1,48
 765 769 765 769 738.5 816.5 c 128,-1,49
 712 864 712 864 675.5 890 c 128,-1,50
 639 916 639 916 594 916 c 0,51,52
 550 916 550 916 507.5 895.5 c 128,-1,53
 465 875 465 875 429.5 841.5 c 128,-1,54
 394 808 394 808 369 765.5 c 128,-1,55
 344 723 344 723 336 678 c 1,56,-1
 336 -426 l 1,0,-1
EndSplineSet
Validated: 1
EndChar

StartChar: uniE005
Encoding: 57349 57349 9
Width: 1810
GlyphClass: 1
Flags: W
AnchorPoint: "TehtaAbove" 1010 1500 basechar 0
AnchorPoint: "TehtaBelow" 1010 -200 basechar 0
LayerCount: 2
Fore
SplineSet
336 -20 m 1,0,-1
 336 -426 l 1,1,-1
 109 -426 l 1,2,-1
 109 1081 l 1,3,-1
 336 1081 l 1,4,-1
 336 984 l 1,5,6
 444 1105 444 1105 617 1105 c 0,7,8
 711 1105 711 1105 789.5 1061.5 c 128,-1,9
 868 1018 868 1018 928 930 c 1,10,11
 985 1020 985 1020 1063.5 1062.5 c 128,-1,12
 1142 1105 1142 1105 1235 1105 c 0,13,14
 1340 1105 1340 1105 1419.5 1065 c 128,-1,15
 1499 1025 1499 1025 1553 952 c 128,-1,16
 1607 879 1607 879 1634 776.5 c 128,-1,17
 1661 674 1661 674 1661 549 c 0,18,19
 1661 365 1661 365 1588 175 c 1,20,-1
 1741 175 l 1,21,-1
 1741 -20 l 1,22,-1
 336 -20 l 1,0,-1
1349 175 m 1,23,24
 1377 247 1377 247 1393.5 299 c 128,-1,25
 1410 351 1410 351 1418.5 393.5 c 128,-1,26
 1427 436 1427 436 1429.5 474 c 128,-1,27
 1432 512 1432 512 1432 555 c 0,28,29
 1432 634 1432 634 1417.5 700.5 c 128,-1,30
 1403 767 1403 767 1376.5 815 c 128,-1,31
 1350 863 1350 863 1312 889.5 c 128,-1,32
 1274 916 1274 916 1227 916 c 256,33,34
 1180 916 1180 916 1142.5 889.5 c 128,-1,35
 1105 863 1105 863 1078 815 c 128,-1,36
 1051 767 1051 767 1036.5 699.5 c 128,-1,37
 1022 632 1022 632 1022 549 c 2,38,-1
 1022 544 l 2,39,40
 1022 451 1022 451 1004 360 c 128,-1,41
 986 269 986 269 951 175 c 1,42,-1
 1349 175 l 1,23,24
713 175 m 1,43,44
 740 240 740 240 756 291.5 c 128,-1,45
 772 343 772 343 780.5 387 c 128,-1,46
 789 431 789 431 791.5 471.5 c 128,-1,47
 794 512 794 512 794 555 c 0,48,49
 794 639 794 639 779 705.5 c 128,-1,50
 764 772 764 772 737.5 819 c 128,-1,51
 711 866 711 866 674.5 891 c 128,-1,52
 638 916 638 916 595 916 c 0,53,54
 559 916 559 916 525 903.5 c 128,-1,55
 491 891 491 891 461 869 c 128,-1,56
 431 847 431 847 407 817 c 128,-1,57
 383 787 383 787 367 753 c 0,58,59
 316 645 316 645 316 467 c 0,60,61
 316 373 316 373 320 303.5 c 128,-1,62
 324 234 324 234 332 175 c 1,63,-1
 713 175 l 1,43,44
EndSplineSet
Validated: 1
EndChar

StartChar: uniE006
Encoding: 57350 57350 10
Width: 1731
GlyphClass: 1
Flags: W
AnchorPoint: "TehtaAbove" 931 1500 basechar 0
AnchorPoint: "TehtaBelow" 931 -200 basechar 0
LayerCount: 2
Fore
SplineSet
1376 1081 m 1,0,-1
 1602 1081 l 1,1,-1
 1602 -425 l 1,2,-1
 1376 -425 l 1,3,-1
 1376 76 l 1,4,5
 1268 -45 1268 -45 1095 -45 c 0,6,7
 921 -45 921 -45 803 102 c 1,8,-1
 804 100 l 1,9,10
 793 111 793 111 783 126 c 1,11,12
 725 39 725 39 644.5 -3 c 128,-1,13
 564 -45 564 -45 477 -45 c 0,14,15
 373 -45 373 -45 293.5 -5.5 c 128,-1,16
 214 34 214 34 160 106.5 c 128,-1,17
 106 179 106 179 78.5 282 c 128,-1,18
 51 385 51 385 51 512 c 0,19,20
 51 781 51 781 216 1081 c 1,21,-1
 444 1081 l 1,22,23
 406 994 406 994 379 927.5 c 128,-1,24
 352 861 352 861 333.5 809.5 c 128,-1,25
 315 758 315 758 304.5 717.5 c 128,-1,26
 294 677 294 677 288.5 642 c 128,-1,27
 283 607 283 607 281.5 574.5 c 128,-1,28
 280 542 280 542 280 506 c 0,29,30
 280 423 280 423 295 356 c 128,-1,31
 310 289 310 289 336.5 242 c 128,-1,32
 363 195 363 195 400 169.5 c 128,-1,33
 437 144 437 144 481 144 c 0,34,35
 530 144 530 144 569 171 c 128,-1,36
 608 198 608 198 635 246.5 c 128,-1,37
 662 295 662 295 676 363 c 128,-1,38
 690 431 690 431 690 512 c 0,39,40
 690 785 690 785 856 1081 c 1,41,-1
 1081 1081 l 1,42,43
 1043 994 1043 994 1016 927.5 c 128,-1,44
 989 861 989 861 970.5 809.5 c 128,-1,45
 952 758 952 758 941.5 717.5 c 128,-1,46
 931 677 931 677 925.5 642 c 128,-1,47
 920 607 920 607 918.5 574.5 c 128,-1,48
 917 542 917 542 917 506 c 0,49,50
 917 422 917 422 932 355 c 128,-1,51
 947 288 947 288 974 241 c 128,-1,52
 1001 194 1001 194 1037.5 169 c 128,-1,53
 1074 144 1074 144 1117 144 c 0,54,55
 1158 144 1158 144 1200 164 c 128,-1,56
 1242 184 1242 184 1278 217 c 128,-1,57
 1314 250 1314 250 1340.5 293 c 128,-1,58
 1367 336 1367 336 1376 382 c 1,59,-1
 1376 1081 l 1,0,-1
EndSplineSet
Validated: 1
EndChar

StartChar: uniE007
Encoding: 57351 57351 11
Width: 1812
GlyphClass: 1
Flags: W
AnchorPoint: "TehtaAbove" 1012 1500 basechar 0
AnchorPoint: "TehtaBelow" 1012 -200 basechar 0
LayerCount: 2
Fore
SplineSet
51 1081 m 1,0,-1
 1683 1081 l 1,1,-1
 1683 -426 l 1,2,-1
 1455 -426 l 1,3,-1
 1455 76 l 1,4,5
 1347 -45 1347 -45 1174 -45 c 256,6,7
 1001 -45 1001 -45 883 102 c 1,8,-1
 884 100 l 1,9,10
 877 107 877 107 872.5 113.5 c 128,-1,11
 868 120 868 120 863 127 c 1,12,13
 805 39 805 39 725 -3 c 128,-1,14
 645 -45 645 -45 556 -45 c 0,15,16
 453 -45 453 -45 373.5 -6 c 128,-1,17
 294 33 294 33 240 106 c 128,-1,18
 186 179 186 179 158 281.5 c 128,-1,19
 130 384 130 384 130 512 c 0,20,21
 130 605 130 605 149 698 c 128,-1,22
 168 791 168 791 205 886 c 1,23,-1
 51 886 l 1,24,-1
 51 1081 l 1,0,-1
442 886 m 1,25,26
 422 834 422 834 406.5 787.5 c 128,-1,27
 391 741 391 741 385 711 c 0,28,29
 373 654 373 654 366.5 601.5 c 128,-1,30
 360 549 360 549 360 506 c 0,31,32
 360 422 360 422 375 355 c 128,-1,33
 390 288 390 288 417 241 c 128,-1,34
 444 194 444 194 481.5 169 c 128,-1,35
 519 144 519 144 564 144 c 256,36,37
 609 144 609 144 647 169.5 c 128,-1,38
 685 195 685 195 712 242.5 c 128,-1,39
 739 290 739 290 754 358 c 128,-1,40
 769 426 769 426 769 512 c 0,41,42
 769 696 769 696 842 886 c 1,43,-1
 442 886 l 1,25,26
1079 886 m 1,44,45
 1057 831 1057 831 1042.5 785 c 128,-1,46
 1028 739 1028 739 1021 710 c 1,47,-1
 1022 711 l 1,48,49
 1009 654 1009 654 1003 602 c 128,-1,50
 997 550 997 550 997 506 c 0,51,52
 997 422 997 422 1012 355 c 128,-1,53
 1027 288 1027 288 1054 241 c 128,-1,54
 1081 194 1081 194 1117.5 169 c 128,-1,55
 1154 144 1154 144 1197 144 c 0,56,57
 1233 144 1233 144 1267 157 c 128,-1,58
 1301 170 1301 170 1331 192.5 c 128,-1,59
 1361 215 1361 215 1385 245 c 128,-1,60
 1409 275 1409 275 1424 308 c 0,61,62
 1450 359 1450 359 1462 429.5 c 128,-1,63
 1474 500 1474 500 1474 589 c 2,64,-1
 1474 602 l 2,65,66
 1473 689 1473 689 1469.5 758.5 c 128,-1,67
 1466 828 1466 828 1458 886 c 1,68,-1
 1079 886 l 1,44,45
EndSplineSet
Validated: 1
EndChar

StartChar: uniE008
Encoding: 57352 57352 12
Width: 1093
GlyphClass: 1
Flags: W
AnchorPoint: "TehtaAbove" 693 1500 basechar 0
AnchorPoint: "TehtaBelow" 593 -200 basechar 0
LayerCount: 2
Fore
SplineSet
335 -20 m 1,0,-1
 107 -20 l 1,1,-1
 107 1485 l 1,2,-1
 335 1485 l 1,3,-1
 335 984 l 1,4,5
 443 1105 443 1105 617 1105 c 0,6,7
 706 1105 706 1105 781.5 1068.5 c 128,-1,8
 857 1032 857 1032 911.5 961.5 c 128,-1,9
 966 891 966 891 997 787 c 128,-1,10
 1028 683 1028 683 1028 549 c 0,11,12
 1028 409 1028 409 986.5 270.5 c 128,-1,13
 945 132 945 132 862 -20 c 1,14,-1
 633 -20 l 1,15,16
 693 114 693 114 727.5 206.5 c 128,-1,17
 762 299 762 299 773 350 c 0,18,19
 785 405 785 405 791.5 455.5 c 128,-1,20
 798 506 798 506 798 555 c 0,21,22
 798 637 798 637 783.5 703.5 c 128,-1,23
 769 770 769 770 742.5 817 c 128,-1,24
 716 864 716 864 678.5 890 c 128,-1,25
 641 916 641 916 596 916 c 0,26,27
 545 916 545 916 501.5 893 c 128,-1,28
 458 870 458 870 424 834.5 c 128,-1,29
 390 799 390 799 367 756 c 128,-1,30
 344 713 344 713 335 673 c 1,31,-1
 335 -20 l 1,0,-1
EndSplineSet
Validated: 1
EndChar

StartChar: uniE009
Encoding: 57353 57353 13
Width: 1170
GlyphClass: 1
Flags: W
AnchorPoint: "TehtaAbove" 770 1500 basechar 0
AnchorPoint: "TehtaBelow" 670 -200 basechar 0
LayerCount: 2
Fore
SplineSet
717 175 m 1,0,1
 740 235 740 235 753 277 c 128,-1,2
 766 319 766 319 774 351 c 0,3,4
 801 465 801 465 801 555 c 0,5,6
 801 632 801 632 786.5 698 c 128,-1,7
 772 764 772 764 745.5 812.5 c 128,-1,8
 719 861 719 861 681 888.5 c 128,-1,9
 643 916 643 916 596 916 c 0,10,11
 559 916 559 916 524 903 c 128,-1,12
 489 890 489 890 459 868 c 128,-1,13
 429 846 429 846 405 816.5 c 128,-1,14
 381 787 381 787 366 753 c 0,15,16
 315 643 315 643 315 468 c 0,17,18
 315 374 315 374 319 304 c 128,-1,19
 323 234 323 234 331 175 c 1,20,-1
 717 175 l 1,0,1
1104 -20 m 1,21,-1
 107 -20 l 1,22,-1
 107 1485 l 1,23,-1
 335 1485 l 1,24,-1
 335 984 l 1,25,26
 443 1105 443 1105 618 1105 c 0,27,28
 706 1105 706 1105 781 1068.5 c 128,-1,29
 856 1032 856 1032 911 961 c 128,-1,30
 966 890 966 890 997 786.5 c 128,-1,31
 1028 683 1028 683 1028 549 c 0,32,33
 1028 457 1028 457 1009 363 c 128,-1,34
 990 269 990 269 954 175 c 1,35,-1
 1104 175 l 1,36,-1
 1104 -20 l 1,21,-1
EndSplineSet
Validated: 1
EndChar

StartChar: uniE00A
Encoding: 57354 57354 14
Width: 1095
GlyphClass: 1
Flags: W
AnchorPoint: "TehtaAbove" 495 1500 basechar 0
AnchorPoint: "TehtaBelow" 595 -200 basechar 0
LayerCount: 2
Fore
SplineSet
743 1485 m 1,0,-1
 970 1485 l 1,1,-1
 970 -20 l 1,2,-1
 743 -20 l 1,3,-1
 743 76 l 1,4,5
 635 -45 635 -45 459 -45 c 0,6,7
 371 -45 371 -45 296 -8 c 128,-1,8
 221 29 221 29 166 100.5 c 128,-1,9
 111 172 111 172 80 275.5 c 128,-1,10
 49 379 49 379 49 512 c 0,11,12
 49 651 49 651 90.5 790 c 128,-1,13
 132 929 132 929 215 1081 c 1,14,-1
 443 1081 l 1,15,16
 405 994 405 994 378 928 c 128,-1,17
 351 862 351 862 332.5 810 c 128,-1,18
 314 758 314 758 303.5 717.5 c 128,-1,19
 293 677 293 677 287.5 642 c 128,-1,20
 282 607 282 607 280.5 574.5 c 128,-1,21
 279 542 279 542 279 506 c 0,22,23
 279 422 279 422 294 355 c 128,-1,24
 309 288 309 288 335.5 241 c 128,-1,25
 362 194 362 194 398.5 169 c 128,-1,26
 435 144 435 144 478 144 c 2,27,-1
 482 144 l 2,28,29
 532 144 532 144 575.5 166 c 128,-1,30
 619 188 619 188 653.5 223 c 128,-1,31
 688 258 688 258 711 301.5 c 128,-1,32
 734 345 734 345 743 387 c 1,33,-1
 743 1485 l 1,0,-1
EndSplineSet
Validated: 1
EndChar

StartChar: uniE00B
Encoding: 57355 57355 15
Width: 1172
GlyphClass: 1
Flags: W
AnchorPoint: "TehtaAbove" 572 1500 basechar 0
AnchorPoint: "TehtaBelow" 672 -200 basechar 0
LayerCount: 2
Fore
SplineSet
438 886 m 1,0,1
 409 814 409 814 392 758.5 c 128,-1,2
 375 703 375 703 366.5 658.5 c 128,-1,3
 358 614 358 614 355.5 577 c 128,-1,4
 353 540 353 540 353 506 c 0,5,6
 353 426 353 426 367.5 359.5 c 128,-1,7
 382 293 382 293 409 245 c 128,-1,8
 436 197 436 197 473.5 170.5 c 128,-1,9
 511 144 511 144 558 144 c 0,10,11
 594 144 594 144 628 156.5 c 128,-1,12
 662 169 662 169 692 190.5 c 128,-1,13
 722 212 722 212 746.5 242 c 128,-1,14
 771 272 771 272 788 308 c 0,15,16
 814 360 814 360 826 430 c 128,-1,17
 838 500 838 500 838 589 c 2,18,-1
 838 602 l 2,19,20
 837 689 837 689 833.5 758.5 c 128,-1,21
 830 828 830 828 822 886 c 1,22,-1
 438 886 l 1,0,1
819 1081 m 1,23,-1
 819 1485 l 1,24,-1
 1046 1485 l 1,25,-1
 1046 -20 l 1,26,-1
 819 -20 l 1,27,-1
 819 76 l 1,28,29
 711 -45 711 -45 536 -45 c 0,30,31
 448 -45 448 -45 373 -8.5 c 128,-1,32
 298 28 298 28 243 98.5 c 128,-1,33
 188 169 188 169 157 273 c 128,-1,34
 126 377 126 377 126 512 c 0,35,36
 126 698 126 698 198 886 c 1,37,-1
 50 886 l 1,38,-1
 50 1081 l 1,39,-1
 819 1081 l 1,23,-1
EndSplineSet
Validated: 1
EndChar

StartChar: uniE00C
Encoding: 57356 57356 16
Width: 1729
GlyphClass: 1
Flags: W
AnchorPoint: "TehtaAbove" 929 1500 basechar 0
AnchorPoint: "TehtaBelow" 929 -200 basechar 0
LayerCount: 2
Fore
SplineSet
336 -20 m 1,0,-1
 108 -20 l 1,1,-1
 108 1485 l 1,2,-1
 336 1485 l 1,3,-1
 336 984 l 1,4,5
 444 1105 444 1105 616 1105 c 0,6,7
 810 1105 810 1105 927 930 c 1,8,9
 984 1018 984 1018 1063.5 1061.5 c 128,-1,10
 1143 1105 1143 1105 1235 1105 c 0,11,12
 1337 1105 1337 1105 1416.5 1066.5 c 128,-1,13
 1496 1028 1496 1028 1550 956 c 128,-1,14
 1604 884 1604 884 1632 781 c 128,-1,15
 1660 678 1660 678 1660 549 c 0,16,17
 1660 409 1660 409 1618.5 270.5 c 128,-1,18
 1577 132 1577 132 1494 -20 c 1,19,-1
 1268 -20 l 1,20,21
 1326 114 1326 114 1361.5 207 c 128,-1,22
 1397 300 1397 300 1408 351 c 1,23,-1
 1407 350 l 1,24,25
 1417 404 1417 404 1423.5 456.5 c 128,-1,26
 1430 509 1430 509 1430 555 c 0,27,28
 1430 639 1430 639 1415 706 c 128,-1,29
 1400 773 1400 773 1373.5 819.5 c 128,-1,30
 1347 866 1347 866 1310 891 c 128,-1,31
 1273 916 1273 916 1229 916 c 0,32,33
 1181 916 1181 916 1143 890 c 128,-1,34
 1105 864 1105 864 1078 816 c 128,-1,35
 1051 768 1051 768 1036.5 700.5 c 128,-1,36
 1022 633 1022 633 1022 549 c 0,37,38
 1022 409 1022 409 981 270 c 128,-1,39
 940 131 940 131 858 -20 c 1,40,-1
 630 -20 l 1,41,42
 686 110 686 110 719 197.5 c 128,-1,43
 752 285 752 285 768.5 347.5 c 128,-1,44
 785 410 785 410 789.5 457.5 c 128,-1,45
 794 505 794 505 794 555 c 0,46,47
 794 636 794 636 779.5 702.5 c 128,-1,48
 765 769 765 769 738.5 816.5 c 128,-1,49
 712 864 712 864 675.5 890 c 128,-1,50
 639 916 639 916 594 916 c 0,51,52
 550 916 550 916 507.5 895.5 c 128,-1,53
 465 875 465 875 429.5 841.5 c 128,-1,54
 394 808 394 808 369 765.5 c 128,-1,55
 344 723 344 723 336 678 c 1,56,-1
 336 -20 l 1,0,-1
EndSplineSet
Validated: 1
EndChar

StartChar: uniE00D
Encoding: 57357 57357 17
Width: 1810
GlyphClass: 1
Flags: W
AnchorPoint: "TehtaAbove" 1010 1500 basechar 0
AnchorPoint: "TehtaBelow" 1010 -200 basechar 0
LayerCount: 2
Fore
SplineSet
1741 -20 m 1,0,-1
 109 -20 l 1,1,-1
 109 1485 l 1,2,-1
 336 1485 l 1,3,-1
 336 984 l 1,4,5
 444 1105 444 1105 617 1105 c 0,6,7
 711 1105 711 1105 789.5 1061.5 c 128,-1,8
 868 1018 868 1018 928 930 c 1,9,10
 985 1020 985 1020 1063.5 1062.5 c 128,-1,11
 1142 1105 1142 1105 1235 1105 c 0,12,13
 1340 1105 1340 1105 1419.5 1065 c 128,-1,14
 1499 1025 1499 1025 1553 952 c 128,-1,15
 1607 879 1607 879 1634 776.5 c 128,-1,16
 1661 674 1661 674 1661 549 c 0,17,18
 1661 365 1661 365 1588 175 c 1,19,-1
 1741 175 l 1,20,-1
 1741 -20 l 1,0,-1
1349 175 m 1,21,22
 1377 247 1377 247 1393.5 299 c 128,-1,23
 1410 351 1410 351 1418.5 393.5 c 128,-1,24
 1427 436 1427 436 1429.5 474 c 128,-1,25
 1432 512 1432 512 1432 555 c 0,26,27
 1432 634 1432 634 1417.5 700.5 c 128,-1,28
 1403 767 1403 767 1376.5 815 c 128,-1,29
 1350 863 1350 863 1312 889.5 c 128,-1,30
 1274 916 1274 916 1227 916 c 256,31,32
 1180 916 1180 916 1142.5 889.5 c 128,-1,33
 1105 863 1105 863 1078 815 c 128,-1,34
 1051 767 1051 767 1036.5 699.5 c 128,-1,35
 1022 632 1022 632 1022 549 c 2,36,-1
 1022 544 l 2,37,38
 1022 451 1022 451 1004 360 c 128,-1,39
 986 269 986 269 951 175 c 1,40,-1
 1349 175 l 1,21,22
713 175 m 1,41,42
 740 240 740 240 756 291.5 c 128,-1,43
 772 343 772 343 780.5 387 c 128,-1,44
 789 431 789 431 791.5 471.5 c 128,-1,45
 794 512 794 512 794 555 c 0,46,47
 794 639 794 639 779 705.5 c 128,-1,48
 764 772 764 772 737.5 819 c 128,-1,49
 711 866 711 866 674.5 891 c 128,-1,50
 638 916 638 916 595 916 c 0,51,52
 559 916 559 916 525 903.5 c 128,-1,53
 491 891 491 891 461 869 c 128,-1,54
 431 847 431 847 407 817 c 128,-1,55
 383 787 383 787 367 753 c 0,56,57
 316 645 316 645 316 467 c 0,58,59
 316 373 316 373 320 303.5 c 128,-1,60
 324 234 324 234 332 175 c 1,61,-1
 713 175 l 1,41,42
EndSplineSet
Validated: 1
EndChar

StartChar: uniE00E
Encoding: 57358 57358 18
Width: 1731
GlyphClass: 1
Flags: W
AnchorPoint: "TehtaBelow" 931 -200 basechar 0
AnchorPoint: "TehtaAbove" 931 1500 basechar 0
LayerCount: 2
Fore
SplineSet
1376 1485 m 1,0,-1
 1602 1485 l 1,1,-1
 1602 -20 l 1,2,-1
 1376 -20 l 1,3,-1
 1376 76 l 1,4,5
 1268 -45 1268 -45 1095 -45 c 0,6,7
 921 -45 921 -45 803 102 c 1,8,-1
 804 100 l 1,9,10
 793 111 793 111 783 126 c 1,11,12
 725 39 725 39 644.5 -3 c 128,-1,13
 564 -45 564 -45 477 -45 c 0,14,15
 373 -45 373 -45 293.5 -5.5 c 128,-1,16
 214 34 214 34 160 106.5 c 128,-1,17
 106 179 106 179 78.5 282 c 128,-1,18
 51 385 51 385 51 512 c 0,19,20
 51 781 51 781 216 1081 c 1,21,-1
 444 1081 l 1,22,23
 406 994 406 994 379 927.5 c 128,-1,24
 352 861 352 861 333.5 809.5 c 128,-1,25
 315 758 315 758 304.5 717.5 c 128,-1,26
 294 677 294 677 288.5 642 c 128,-1,27
 283 607 283 607 281.5 574.5 c 128,-1,28
 280 542 280 542 280 506 c 0,29,30
 280 423 280 423 295 356 c 128,-1,31
 310 289 310 289 336.5 242 c 128,-1,32
 363 195 363 195 400 169.5 c 128,-1,33
 437 144 437 144 481 144 c 0,34,35
 530 144 530 144 569 171 c 128,-1,36
 608 198 608 198 635 246.5 c 128,-1,37
 662 295 662 295 676 363 c 128,-1,38
 690 431 690 431 690 512 c 0,39,40
 690 785 690 785 856 1081 c 1,41,-1
 1081 1081 l 1,42,43
 1043 994 1043 994 1016 927.5 c 128,-1,44
 989 861 989 861 970.5 809.5 c 128,-1,45
 952 758 952 758 941.5 717.5 c 128,-1,46
 931 677 931 677 925.5 642 c 128,-1,47
 920 607 920 607 918.5 574.5 c 128,-1,48
 917 542 917 542 917 506 c 0,49,50
 917 422 917 422 932 355 c 128,-1,51
 947 288 947 288 974 241 c 128,-1,52
 1001 194 1001 194 1037.5 169 c 128,-1,53
 1074 144 1074 144 1117 144 c 0,54,55
 1158 144 1158 144 1200 164 c 128,-1,56
 1242 184 1242 184 1278 217 c 128,-1,57
 1314 250 1314 250 1340.5 293 c 128,-1,58
 1367 336 1367 336 1376 382 c 1,59,-1
 1376 1485 l 1,0,-1
EndSplineSet
Validated: 1
EndChar

StartChar: uniE00F
Encoding: 57359 57359 19
Width: 1812
GlyphClass: 1
Flags: W
AnchorPoint: "TehtaBelow" 1012 -200 basechar 0
AnchorPoint: "TehtaAbove" 1012 1500 basechar 0
LayerCount: 2
Fore
SplineSet
1455 1081 m 1,0,-1
 1455 1485 l 1,1,-1
 1683 1485 l 1,2,-1
 1683 -20 l 1,3,-1
 1455 -20 l 1,4,-1
 1455 74 l 1,5,6
 1349 -44 1349 -44 1174 -44 c 256,7,8
 999 -44 999 -44 883 102 c 1,9,-1
 884 100 l 1,10,11
 877 107 877 107 872.5 113.5 c 128,-1,12
 868 120 868 120 863 127 c 1,13,14
 805 39 805 39 725 -2.5 c 128,-1,15
 645 -44 645 -44 556 -44 c 0,16,17
 452 -44 452 -44 372.5 -5 c 128,-1,18
 293 34 293 34 239 106 c 128,-1,19
 185 178 185 178 157.5 281 c 128,-1,20
 130 384 130 384 130 512 c 0,21,22
 130 605 130 605 149 698 c 128,-1,23
 168 791 168 791 205 886 c 1,24,-1
 51 886 l 1,25,-1
 51 1081 l 1,26,-1
 1455 1081 l 1,0,-1
442 886 m 1,27,28
 422 834 422 834 406.5 787.5 c 128,-1,29
 391 741 391 741 385 711 c 0,30,31
 373 654 373 654 366.5 601.5 c 128,-1,32
 360 549 360 549 360 506 c 0,33,34
 360 422 360 422 375 355 c 128,-1,35
 390 288 390 288 417 241 c 128,-1,36
 444 194 444 194 481.5 169 c 128,-1,37
 519 144 519 144 564 144 c 256,38,39
 609 144 609 144 647 169.5 c 128,-1,40
 685 195 685 195 712 242.5 c 128,-1,41
 739 290 739 290 754 358 c 128,-1,42
 769 426 769 426 769 512 c 0,43,44
 769 696 769 696 842 886 c 1,45,-1
 442 886 l 1,27,28
1079 886 m 1,46,47
 1057 831 1057 831 1042.5 785 c 128,-1,48
 1028 739 1028 739 1021 710 c 1,49,-1
 1022 711 l 1,50,51
 1009 654 1009 654 1003 602 c 128,-1,52
 997 550 997 550 997 506 c 0,53,54
 997 422 997 422 1012 355 c 128,-1,55
 1027 288 1027 288 1054 241 c 128,-1,56
 1081 194 1081 194 1117.5 169 c 128,-1,57
 1154 144 1154 144 1197 144 c 0,58,59
 1233 144 1233 144 1267 157 c 128,-1,60
 1301 170 1301 170 1331 192.5 c 128,-1,61
 1361 215 1361 215 1385 245 c 128,-1,62
 1409 275 1409 275 1424 308 c 0,63,64
 1450 359 1450 359 1462 429.5 c 128,-1,65
 1474 500 1474 500 1474 589 c 2,66,-1
 1474 602 l 2,67,68
 1473 689 1473 689 1469.5 758.5 c 128,-1,69
 1466 828 1466 828 1458 886 c 1,70,-1
 1079 886 l 1,46,47
EndSplineSet
Validated: 1
EndChar

StartChar: uniE010
Encoding: 57360 57360 20
Width: 1729
GlyphClass: 1
Flags: W
AnchorPoint: "TehtaAbove" 929 1500 basechar 0
AnchorPoint: "TehtaBelow" 929 -200 basechar 0
LayerCount: 2
Fore
SplineSet
336 -20 m 1,0,-1
 108 -20 l 1,1,-1
 108 1081 l 1,2,-1
 336 1081 l 1,3,-1
 336 984 l 1,4,5
 444 1105 444 1105 616 1105 c 0,6,7
 810 1105 810 1105 927 930 c 1,8,9
 984 1018 984 1018 1063.5 1061.5 c 128,-1,10
 1143 1105 1143 1105 1235 1105 c 0,11,12
 1337 1105 1337 1105 1416.5 1066.5 c 128,-1,13
 1496 1028 1496 1028 1550 956 c 128,-1,14
 1604 884 1604 884 1632 781 c 128,-1,15
 1660 678 1660 678 1660 549 c 0,16,17
 1660 409 1660 409 1618.5 270.5 c 128,-1,18
 1577 132 1577 132 1494 -20 c 1,19,-1
 1268 -20 l 1,20,21
 1326 114 1326 114 1361.5 207 c 128,-1,22
 1397 300 1397 300 1408 351 c 1,23,-1
 1407 350 l 1,24,25
 1417 404 1417 404 1423.5 456.5 c 128,-1,26
 1430 509 1430 509 1430 555 c 0,27,28
 1430 639 1430 639 1415 706 c 128,-1,29
 1400 773 1400 773 1373.5 819.5 c 128,-1,30
 1347 866 1347 866 1310 891 c 128,-1,31
 1273 916 1273 916 1229 916 c 0,32,33
 1181 916 1181 916 1143 890 c 128,-1,34
 1105 864 1105 864 1078 816 c 128,-1,35
 1051 768 1051 768 1036.5 700.5 c 128,-1,36
 1022 633 1022 633 1022 549 c 0,37,38
 1022 409 1022 409 981 270 c 128,-1,39
 940 131 940 131 858 -20 c 1,40,-1
 630 -20 l 1,41,42
 686 110 686 110 719 197.5 c 128,-1,43
 752 285 752 285 768.5 347.5 c 128,-1,44
 785 410 785 410 789.5 457.5 c 128,-1,45
 794 505 794 505 794 555 c 0,46,47
 794 636 794 636 779.5 702.5 c 128,-1,48
 765 769 765 769 738.5 816.5 c 128,-1,49
 712 864 712 864 675.5 890 c 128,-1,50
 639 916 639 916 594 916 c 0,51,52
 550 916 550 916 507.5 895.5 c 128,-1,53
 465 875 465 875 429.5 841.5 c 128,-1,54
 394 808 394 808 369 765.5 c 128,-1,55
 344 723 344 723 336 678 c 1,56,-1
 336 -20 l 1,0,-1
EndSplineSet
Validated: 1
EndChar

StartChar: uniE011
Encoding: 57361 57361 21
Width: 1810
GlyphClass: 1
Flags: W
AnchorPoint: "TehtaAbove" 1010 1500 basechar 0
AnchorPoint: "TehtaBelow" 1010 -200 basechar 0
LayerCount: 2
Fore
SplineSet
1741 -20 m 1,0,-1
 109 -20 l 1,1,-1
 109 1081 l 1,2,-1
 336 1081 l 1,3,-1
 336 984 l 1,4,5
 444 1105 444 1105 617 1105 c 0,6,7
 711 1105 711 1105 789.5 1061.5 c 128,-1,8
 868 1018 868 1018 928 930 c 1,9,10
 985 1020 985 1020 1063.5 1062.5 c 128,-1,11
 1142 1105 1142 1105 1235 1105 c 0,12,13
 1340 1105 1340 1105 1419.5 1065 c 128,-1,14
 1499 1025 1499 1025 1553 952 c 128,-1,15
 1607 879 1607 879 1634 776.5 c 128,-1,16
 1661 674 1661 674 1661 549 c 0,17,18
 1661 365 1661 365 1588 175 c 1,19,-1
 1741 175 l 1,20,-1
 1741 -20 l 1,0,-1
1349 175 m 1,21,22
 1377 247 1377 247 1393.5 299 c 128,-1,23
 1410 351 1410 351 1418.5 393.5 c 128,-1,24
 1427 436 1427 436 1429.5 474 c 128,-1,25
 1432 512 1432 512 1432 555 c 0,26,27
 1432 634 1432 634 1417.5 700.5 c 128,-1,28
 1403 767 1403 767 1376.5 815 c 128,-1,29
 1350 863 1350 863 1312 889.5 c 128,-1,30
 1274 916 1274 916 1227 916 c 256,31,32
 1180 916 1180 916 1142.5 889.5 c 128,-1,33
 1105 863 1105 863 1078 815 c 128,-1,34
 1051 767 1051 767 1036.5 699.5 c 128,-1,35
 1022 632 1022 632 1022 549 c 2,36,-1
 1022 544 l 2,37,38
 1022 451 1022 451 1004 360 c 128,-1,39
 986 269 986 269 951 175 c 1,40,-1
 1349 175 l 1,21,22
713 175 m 1,41,42
 740 240 740 240 756 291.5 c 128,-1,43
 772 343 772 343 780.5 387 c 128,-1,44
 789 431 789 431 791.5 471.5 c 128,-1,45
 794 512 794 512 794 555 c 0,46,47
 794 639 794 639 779 705.5 c 128,-1,48
 764 772 764 772 737.5 819 c 128,-1,49
 711 866 711 866 674.5 891 c 128,-1,50
 638 916 638 916 595 916 c 0,51,52
 559 916 559 916 525 903.5 c 128,-1,53
 491 891 491 891 461 869 c 128,-1,54
 431 847 431 847 407 817 c 128,-1,55
 383 787 383 787 367 753 c 0,56,57
 316 645 316 645 316 467 c 0,58,59
 316 373 316 373 320 303.5 c 128,-1,60
 324 234 324 234 332 175 c 1,61,-1
 713 175 l 1,41,42
EndSplineSet
Validated: 1
EndChar

StartChar: uniE012
Encoding: 57362 57362 22
Width: 1731
GlyphClass: 1
Flags: W
AnchorPoint: "TehtaBelow" 931 -200 basechar 0
AnchorPoint: "TehtaAbove" 931 1500 basechar 0
LayerCount: 2
Fore
SplineSet
1376 1081 m 1,0,-1
 1602 1081 l 1,1,-1
 1602 -20 l 1,2,-1
 1376 -20 l 1,3,-1
 1376 76 l 1,4,5
 1268 -45 1268 -45 1095 -45 c 0,6,7
 921 -45 921 -45 803 102 c 1,8,-1
 804 100 l 1,9,10
 793 111 793 111 783 126 c 1,11,12
 725 39 725 39 644.5 -3 c 128,-1,13
 564 -45 564 -45 477 -45 c 0,14,15
 373 -45 373 -45 293.5 -5.5 c 128,-1,16
 214 34 214 34 160 106.5 c 128,-1,17
 106 179 106 179 78.5 282 c 128,-1,18
 51 385 51 385 51 512 c 0,19,20
 51 781 51 781 216 1081 c 1,21,-1
 444 1081 l 1,22,23
 406 994 406 994 379 927.5 c 128,-1,24
 352 861 352 861 333.5 809.5 c 128,-1,25
 315 758 315 758 304.5 717.5 c 128,-1,26
 294 677 294 677 288.5 642 c 128,-1,27
 283 607 283 607 281.5 574.5 c 128,-1,28
 280 542 280 542 280 506 c 0,29,30
 280 423 280 423 295 356 c 128,-1,31
 310 289 310 289 336.5 242 c 128,-1,32
 363 195 363 195 400 169.5 c 128,-1,33
 437 144 437 144 481 144 c 0,34,35
 530 144 530 144 569 171 c 128,-1,36
 608 198 608 198 635 246.5 c 128,-1,37
 662 295 662 295 676 363 c 128,-1,38
 690 431 690 431 690 512 c 0,39,40
 690 785 690 785 856 1081 c 1,41,-1
 1081 1081 l 1,42,43
 1043 994 1043 994 1016 927.5 c 128,-1,44
 989 861 989 861 970.5 809.5 c 128,-1,45
 952 758 952 758 941.5 717.5 c 128,-1,46
 931 677 931 677 925.5 642 c 128,-1,47
 920 607 920 607 918.5 574.5 c 128,-1,48
 917 542 917 542 917 506 c 0,49,50
 917 422 917 422 932 355 c 128,-1,51
 947 288 947 288 974 241 c 128,-1,52
 1001 194 1001 194 1037.5 169 c 128,-1,53
 1074 144 1074 144 1117 144 c 0,54,55
 1158 144 1158 144 1200 164 c 128,-1,56
 1242 184 1242 184 1278 217 c 128,-1,57
 1314 250 1314 250 1340.5 293 c 128,-1,58
 1367 336 1367 336 1376 382 c 1,59,-1
 1376 1081 l 1,0,-1
EndSplineSet
Validated: 1
EndChar

StartChar: uniE013
Encoding: 57363 57363 23
Width: 1812
GlyphClass: 1
Flags: W
AnchorPoint: "TehtaBelow" 1012 -200 basechar 0
AnchorPoint: "TehtaAbove" 1012 1500 basechar 0
LayerCount: 2
Fore
SplineSet
51 1081 m 1,0,-1
 1683 1081 l 1,1,-1
 1683 -20 l 1,2,-1
 1455 -20 l 1,3,-1
 1455 76 l 1,4,5
 1347 -45 1347 -45 1174 -45 c 256,6,7
 1001 -45 1001 -45 883 102 c 1,8,-1
 884 100 l 1,9,10
 877 107 877 107 872.5 113.5 c 128,-1,11
 868 120 868 120 863 127 c 1,12,13
 805 39 805 39 725 -3 c 128,-1,14
 645 -45 645 -45 556 -45 c 0,15,16
 453 -45 453 -45 373.5 -6 c 128,-1,17
 294 33 294 33 240 106 c 128,-1,18
 186 179 186 179 158 281.5 c 128,-1,19
 130 384 130 384 130 512 c 0,20,21
 130 605 130 605 149 698 c 128,-1,22
 168 791 168 791 205 886 c 1,23,-1
 51 886 l 1,24,-1
 51 1081 l 1,0,-1
442 886 m 1,25,26
 422 834 422 834 406.5 787.5 c 128,-1,27
 391 741 391 741 385 711 c 0,28,29
 373 654 373 654 366.5 601.5 c 128,-1,30
 360 549 360 549 360 506 c 0,31,32
 360 422 360 422 375 355 c 128,-1,33
 390 288 390 288 417 241 c 128,-1,34
 444 194 444 194 481.5 169 c 128,-1,35
 519 144 519 144 564 144 c 256,36,37
 609 144 609 144 647 169.5 c 128,-1,38
 685 195 685 195 712 242.5 c 128,-1,39
 739 290 739 290 754 358 c 128,-1,40
 769 426 769 426 769 512 c 0,41,42
 769 696 769 696 842 886 c 1,43,-1
 442 886 l 1,25,26
1079 886 m 1,44,45
 1057 831 1057 831 1042.5 785 c 128,-1,46
 1028 739 1028 739 1021 710 c 1,47,-1
 1022 711 l 1,48,49
 1009 654 1009 654 1003 602 c 128,-1,50
 997 550 997 550 997 506 c 0,51,52
 997 422 997 422 1012 355 c 128,-1,53
 1027 288 1027 288 1054 241 c 128,-1,54
 1081 194 1081 194 1117.5 169 c 128,-1,55
 1154 144 1154 144 1197 144 c 0,56,57
 1233 144 1233 144 1267 157 c 128,-1,58
 1301 170 1301 170 1331 192.5 c 128,-1,59
 1361 215 1361 215 1385 245 c 128,-1,60
 1409 275 1409 275 1424 308 c 0,61,62
 1450 359 1450 359 1462 429.5 c 128,-1,63
 1474 500 1474 500 1474 589 c 2,64,-1
 1474 602 l 2,65,66
 1473 689 1473 689 1469.5 758.5 c 128,-1,67
 1466 828 1466 828 1458 886 c 1,68,-1
 1079 886 l 1,44,45
EndSplineSet
Validated: 1
EndChar

StartChar: uniE014
Encoding: 57364 57364 24
Width: 1093
GlyphClass: 1
Flags: W
AnchorPoint: "TehtaAbove" 593 1500 basechar 0
AnchorPoint: "TehtaBelow" 593 -200 basechar 0
LayerCount: 2
Fore
SplineSet
335 -20 m 1,0,-1
 107 -20 l 1,1,-1
 107 1081 l 1,2,-1
 335 1081 l 1,3,-1
 335 984 l 1,4,5
 443 1105 443 1105 618 1105 c 0,6,7
 706 1105 706 1105 781 1068.5 c 128,-1,8
 856 1032 856 1032 911 961 c 128,-1,9
 966 890 966 890 997 786.5 c 128,-1,10
 1028 683 1028 683 1028 549 c 0,11,12
 1028 409 1028 409 986.5 270.5 c 128,-1,13
 945 132 945 132 862 -20 c 1,14,-1
 633 -20 l 1,15,16
 693 114 693 114 727.5 206.5 c 128,-1,17
 762 299 762 299 773 350 c 0,18,19
 785 405 785 405 791.5 455.5 c 128,-1,20
 798 506 798 506 798 555 c 0,21,22
 798 637 798 637 783.5 704 c 128,-1,23
 769 771 769 771 742.5 818 c 128,-1,24
 716 865 716 865 678.5 890.5 c 128,-1,25
 641 916 641 916 596 916 c 0,26,27
 547 916 547 916 503.5 894 c 128,-1,28
 460 872 460 872 425.5 836.5 c 128,-1,29
 391 801 391 801 367.5 758 c 128,-1,30
 344 715 344 715 335 673 c 1,31,-1
 335 -20 l 1,0,-1
EndSplineSet
Validated: 1
EndChar

StartChar: uniE015
Encoding: 57365 57365 25
Width: 1170
GlyphClass: 1
Flags: W
AnchorPoint: "TehtaAbove" 670 1500 basechar 0
AnchorPoint: "TehtaBelow" 670 -200 basechar 0
LayerCount: 2
Fore
SplineSet
717 175 m 1,0,1
 740 235 740 235 753 277 c 128,-1,2
 766 319 766 319 774 351 c 0,3,4
 801 465 801 465 801 555 c 0,5,6
 801 632 801 632 786.5 698 c 128,-1,7
 772 764 772 764 745.5 812.5 c 128,-1,8
 719 861 719 861 681 888.5 c 128,-1,9
 643 916 643 916 596 916 c 0,10,11
 559 916 559 916 524 903 c 128,-1,12
 489 890 489 890 459 868 c 128,-1,13
 429 846 429 846 405 816.5 c 128,-1,14
 381 787 381 787 366 753 c 0,15,16
 315 643 315 643 315 468 c 0,17,18
 315 374 315 374 319 304 c 128,-1,19
 323 234 323 234 331 175 c 1,20,-1
 717 175 l 1,0,1
1104 -20 m 1,21,-1
 107 -20 l 1,22,-1
 107 1081 l 1,23,-1
 335 1081 l 1,24,-1
 335 984 l 1,25,26
 443 1105 443 1105 618 1105 c 0,27,28
 706 1105 706 1105 781 1068.5 c 128,-1,29
 856 1032 856 1032 911 961 c 128,-1,30
 966 890 966 890 997 786.5 c 128,-1,31
 1028 683 1028 683 1028 549 c 0,32,33
 1028 457 1028 457 1009 363 c 128,-1,34
 990 269 990 269 954 175 c 1,35,-1
 1104 175 l 1,36,-1
 1104 -20 l 1,21,-1
EndSplineSet
Validated: 1
EndChar

StartChar: uniE016
Encoding: 57366 57366 26
Width: 1095
GlyphClass: 1
Flags: W
AnchorPoint: "TehtaAbove" 595 1500 basechar 0
AnchorPoint: "TehtaBelow" 595 -200 basechar 0
LayerCount: 2
Fore
SplineSet
743 1081 m 1,0,-1
 970 1081 l 1,1,-1
 970 -20 l 1,2,-1
 743 -20 l 1,3,-1
 743 76 l 1,4,5
 635 -45 635 -45 459 -45 c 0,6,7
 371 -45 371 -45 296 -8 c 128,-1,8
 221 29 221 29 166 100.5 c 128,-1,9
 111 172 111 172 80 275.5 c 128,-1,10
 49 379 49 379 49 512 c 0,11,12
 49 651 49 651 90.5 790 c 128,-1,13
 132 929 132 929 215 1081 c 1,14,-1
 443 1081 l 1,15,16
 405 994 405 994 378 928 c 128,-1,17
 351 862 351 862 332.5 810 c 128,-1,18
 314 758 314 758 303.5 717.5 c 128,-1,19
 293 677 293 677 287.5 642 c 128,-1,20
 282 607 282 607 280.5 574.5 c 128,-1,21
 279 542 279 542 279 506 c 0,22,23
 279 422 279 422 294 355 c 128,-1,24
 309 288 309 288 335.5 241 c 128,-1,25
 362 194 362 194 398.5 169 c 128,-1,26
 435 144 435 144 478 144 c 2,27,-1
 482 144 l 2,28,29
 532 144 532 144 575.5 166 c 128,-1,30
 619 188 619 188 653.5 223 c 128,-1,31
 688 258 688 258 711 301.5 c 128,-1,32
 734 345 734 345 743 387 c 1,33,-1
 743 1081 l 1,0,-1
EndSplineSet
Validated: 1
EndChar

StartChar: uniE017
Encoding: 57367 57367 27
Width: 1172
GlyphClass: 1
Flags: W
AnchorPoint: "TehtaAbove" 672 1500 basechar 0
AnchorPoint: "TehtaBelow" 672 -200 basechar 0
LayerCount: 2
Fore
SplineSet
438 886 m 1,0,1
 409 814 409 814 392 758.5 c 128,-1,2
 375 703 375 703 366.5 658.5 c 128,-1,3
 358 614 358 614 355.5 577 c 128,-1,4
 353 540 353 540 353 506 c 0,5,6
 353 426 353 426 367.5 359.5 c 128,-1,7
 382 293 382 293 409 245 c 128,-1,8
 436 197 436 197 473.5 170.5 c 128,-1,9
 511 144 511 144 558 144 c 0,10,11
 594 144 594 144 628 156.5 c 128,-1,12
 662 169 662 169 692 190.5 c 128,-1,13
 722 212 722 212 746.5 242 c 128,-1,14
 771 272 771 272 788 308 c 0,15,16
 814 360 814 360 826 430 c 128,-1,17
 838 500 838 500 838 589 c 2,18,-1
 838 602 l 2,19,20
 837 689 837 689 833.5 758.5 c 128,-1,21
 830 828 830 828 822 886 c 1,22,-1
 438 886 l 1,0,1
50 1081 m 1,23,-1
 1046 1081 l 1,24,-1
 1046 -20 l 1,25,-1
 819 -20 l 1,26,-1
 819 76 l 1,27,28
 711 -45 711 -45 536 -45 c 0,29,30
 448 -45 448 -45 373 -8.5 c 128,-1,31
 298 28 298 28 243 98.5 c 128,-1,32
 188 169 188 169 157 273 c 128,-1,33
 126 377 126 377 126 512 c 0,34,35
 126 698 126 698 198 886 c 1,36,-1
 50 886 l 1,37,-1
 50 1081 l 1,23,-1
EndSplineSet
Validated: 1
EndChar

StartChar: uniE018
Encoding: 57368 57368 28
Width: 1093
GlyphClass: 1
Flags: W
AnchorPoint: "TehtaAbove" 693 1500 basechar 0
AnchorPoint: "TehtaBelow" 693 -200 basechar 0
LayerCount: 2
Fore
SplineSet
335 -426 m 1,0,-1
 107 -426 l 1,1,-1
 107 1485 l 1,2,-1
 335 1485 l 1,3,-1
 335 984 l 1,4,5
 443 1105 443 1105 617 1105 c 0,6,7
 706 1105 706 1105 781.5 1068.5 c 128,-1,8
 857 1032 857 1032 911.5 961.5 c 128,-1,9
 966 891 966 891 997 787 c 128,-1,10
 1028 683 1028 683 1028 549 c 0,11,12
 1028 409 1028 409 986.5 270.5 c 128,-1,13
 945 132 945 132 862 -20 c 1,14,-1
 633 -20 l 1,15,16
 693 114 693 114 727.5 206.5 c 128,-1,17
 762 299 762 299 773 350 c 0,18,19
 785 405 785 405 791.5 455.5 c 128,-1,20
 798 506 798 506 798 555 c 0,21,22
 798 637 798 637 783.5 703.5 c 128,-1,23
 769 770 769 770 742.5 817 c 128,-1,24
 716 864 716 864 678.5 890 c 128,-1,25
 641 916 641 916 596 916 c 0,26,27
 545 916 545 916 501.5 893 c 128,-1,28
 458 870 458 870 424 834.5 c 128,-1,29
 390 799 390 799 367 756 c 128,-1,30
 344 713 344 713 335 673 c 1,31,-1
 335 -426 l 1,0,-1
EndSplineSet
Validated: 1
EndChar

StartChar: uniE019
Encoding: 57369 57369 29
Width: 1170
GlyphClass: 1
Flags: W
AnchorPoint: "TehtaAbove" 770 1500 basechar 0
AnchorPoint: "TehtaBelow" 770 -200 basechar 0
LayerCount: 2
Fore
SplineSet
717 175 m 1,0,1
 740 235 740 235 753 277 c 128,-1,2
 766 319 766 319 774 351 c 0,3,4
 801 465 801 465 801 555 c 0,5,6
 801 632 801 632 786.5 698 c 128,-1,7
 772 764 772 764 745.5 812.5 c 128,-1,8
 719 861 719 861 681 888.5 c 128,-1,9
 643 916 643 916 596 916 c 0,10,11
 559 916 559 916 524 903 c 128,-1,12
 489 890 489 890 459 868 c 128,-1,13
 429 846 429 846 405 816.5 c 128,-1,14
 381 787 381 787 366 753 c 0,15,16
 315 643 315 643 315 468 c 0,17,18
 315 374 315 374 319 304 c 128,-1,19
 323 234 323 234 331 175 c 1,20,-1
 717 175 l 1,0,1
335 -20 m 1,21,-1
 335 -426 l 1,22,-1
 107 -426 l 1,23,-1
 107 1485 l 1,24,-1
 335 1485 l 1,25,-1
 335 984 l 1,26,27
 443 1105 443 1105 618 1105 c 0,28,29
 706 1105 706 1105 781 1068.5 c 128,-1,30
 856 1032 856 1032 911 961 c 128,-1,31
 966 890 966 890 997 786.5 c 128,-1,32
 1028 683 1028 683 1028 549 c 0,33,34
 1028 457 1028 457 1009 363 c 128,-1,35
 990 269 990 269 954 175 c 1,36,-1
 1104 175 l 1,37,-1
 1104 -20 l 1,38,-1
 335 -20 l 1,21,-1
EndSplineSet
Validated: 1
EndChar

StartChar: uniE01A
Encoding: 57370 57370 30
Width: 1095
GlyphClass: 1
Flags: W
AnchorPoint: "TehtaAbove" 495 1500 basechar 0
AnchorPoint: "TehtaBelow" 495 -200 basechar 0
LayerCount: 2
Fore
SplineSet
743 1485 m 1,0,-1
 970 1485 l 1,1,-1
 970 -426 l 1,2,-1
 743 -426 l 1,3,-1
 743 76 l 1,4,5
 635 -45 635 -45 459 -45 c 0,6,7
 371 -45 371 -45 296 -8 c 128,-1,8
 221 29 221 29 166 100.5 c 128,-1,9
 111 172 111 172 80 275.5 c 128,-1,10
 49 379 49 379 49 512 c 0,11,12
 49 651 49 651 90.5 790 c 128,-1,13
 132 929 132 929 215 1081 c 1,14,-1
 443 1081 l 1,15,16
 405 994 405 994 378 928 c 128,-1,17
 351 862 351 862 332.5 810 c 128,-1,18
 314 758 314 758 303.5 717.5 c 128,-1,19
 293 677 293 677 287.5 642 c 128,-1,20
 282 607 282 607 280.5 574.5 c 128,-1,21
 279 542 279 542 279 506 c 0,22,23
 279 422 279 422 294 355 c 128,-1,24
 309 288 309 288 335.5 241 c 128,-1,25
 362 194 362 194 398.5 169 c 128,-1,26
 435 144 435 144 478 144 c 2,27,-1
 482 144 l 2,28,29
 532 144 532 144 575.5 166 c 128,-1,30
 619 188 619 188 653.5 223 c 128,-1,31
 688 258 688 258 711 301.5 c 128,-1,32
 734 345 734 345 743 387 c 1,33,-1
 743 1485 l 1,0,-1
EndSplineSet
Validated: 1
EndChar

StartChar: uniE01B
Encoding: 57371 57371 31
Width: 1172
GlyphClass: 1
Flags: W
AnchorPoint: "TehtaAbove" 572 1500 basechar 0
AnchorPoint: "TehtaBelow" 572 -200 basechar 0
LayerCount: 2
Fore
SplineSet
438 886 m 1,0,1
 409 814 409 814 392 758.5 c 128,-1,2
 375 703 375 703 366.5 658.5 c 128,-1,3
 358 614 358 614 355.5 577 c 128,-1,4
 353 540 353 540 353 506 c 0,5,6
 353 426 353 426 367.5 359.5 c 128,-1,7
 382 293 382 293 409 245 c 128,-1,8
 436 197 436 197 473.5 170.5 c 128,-1,9
 511 144 511 144 558 144 c 0,10,11
 594 144 594 144 628 156.5 c 128,-1,12
 662 169 662 169 692 190.5 c 128,-1,13
 722 212 722 212 746.5 242 c 128,-1,14
 771 272 771 272 788 308 c 0,15,16
 814 360 814 360 826 430 c 128,-1,17
 838 500 838 500 838 589 c 2,18,-1
 838 602 l 2,19,20
 837 689 837 689 833.5 758.5 c 128,-1,21
 830 828 830 828 822 886 c 1,22,-1
 438 886 l 1,0,1
819 1081 m 1,23,-1
 819 1485 l 1,24,-1
 1046 1485 l 1,25,-1
 1046 -425 l 1,26,-1
 819 -425 l 1,27,-1
 819 76 l 1,28,29
 711 -45 711 -45 536 -45 c 0,30,31
 448 -45 448 -45 373 -8.5 c 128,-1,32
 298 28 298 28 243 98.5 c 128,-1,33
 188 169 188 169 157 273 c 128,-1,34
 126 377 126 377 126 512 c 0,35,36
 126 698 126 698 198 886 c 1,37,-1
 50 886 l 1,38,-1
 50 1081 l 1,39,-1
 819 1081 l 1,23,-1
EndSplineSet
Validated: 1
EndChar

StartChar: uniE01C
Encoding: 57372 57372 32
Width: 1729
GlyphClass: 1
Flags: W
AnchorPoint: "TehtaAbove" 929 1500 basechar 0
AnchorPoint: "TehtaBelow" 929 -200 basechar 0
LayerCount: 2
Fore
SplineSet
336 -426 m 1,0,-1
 108 -426 l 1,1,-1
 108 1485 l 1,2,-1
 336 1485 l 1,3,-1
 336 984 l 1,4,5
 444 1105 444 1105 616 1105 c 0,6,7
 810 1105 810 1105 927 930 c 1,8,9
 984 1018 984 1018 1063.5 1061.5 c 128,-1,10
 1143 1105 1143 1105 1235 1105 c 0,11,12
 1337 1105 1337 1105 1416.5 1066.5 c 128,-1,13
 1496 1028 1496 1028 1550 956 c 128,-1,14
 1604 884 1604 884 1632 781 c 128,-1,15
 1660 678 1660 678 1660 549 c 0,16,17
 1660 409 1660 409 1618.5 270.5 c 128,-1,18
 1577 132 1577 132 1494 -20 c 1,19,-1
 1268 -20 l 1,20,21
 1326 114 1326 114 1361.5 207 c 128,-1,22
 1397 300 1397 300 1408 351 c 1,23,-1
 1407 350 l 1,24,25
 1417 404 1417 404 1423.5 456.5 c 128,-1,26
 1430 509 1430 509 1430 555 c 0,27,28
 1430 639 1430 639 1415 706 c 128,-1,29
 1400 773 1400 773 1373.5 819.5 c 128,-1,30
 1347 866 1347 866 1310 891 c 128,-1,31
 1273 916 1273 916 1229 916 c 0,32,33
 1181 916 1181 916 1143 890 c 128,-1,34
 1105 864 1105 864 1078 816 c 128,-1,35
 1051 768 1051 768 1036.5 700.5 c 128,-1,36
 1022 633 1022 633 1022 549 c 0,37,38
 1022 409 1022 409 981 270 c 128,-1,39
 940 131 940 131 858 -20 c 1,40,-1
 630 -20 l 1,41,42
 686 110 686 110 719 197.5 c 128,-1,43
 752 285 752 285 768.5 347.5 c 128,-1,44
 785 410 785 410 789.5 457.5 c 128,-1,45
 794 505 794 505 794 555 c 0,46,47
 794 636 794 636 779.5 702.5 c 128,-1,48
 765 769 765 769 738.5 816.5 c 128,-1,49
 712 864 712 864 675.5 890 c 128,-1,50
 639 916 639 916 594 916 c 0,51,52
 550 916 550 916 507.5 895.5 c 128,-1,53
 465 875 465 875 429.5 841.5 c 128,-1,54
 394 808 394 808 369 765.5 c 128,-1,55
 344 723 344 723 336 678 c 1,56,-1
 336 -426 l 1,0,-1
EndSplineSet
Validated: 1
EndChar

StartChar: uniE01D
Encoding: 57373 57373 33
Width: 1810
GlyphClass: 1
Flags: W
AnchorPoint: "TehtaAbove" 1010 1500 basechar 0
AnchorPoint: "TehtaBelow" 1010 -200 basechar 0
LayerCount: 2
Fore
SplineSet
336 -20 m 1,0,-1
 336 -426 l 1,1,-1
 109 -426 l 1,2,-1
 109 1485 l 1,3,-1
 336 1485 l 1,4,-1
 336 984 l 1,5,6
 444 1105 444 1105 617 1105 c 0,7,8
 711 1105 711 1105 789.5 1061.5 c 128,-1,9
 868 1018 868 1018 928 930 c 1,10,11
 985 1020 985 1020 1063.5 1062.5 c 128,-1,12
 1142 1105 1142 1105 1235 1105 c 0,13,14
 1340 1105 1340 1105 1419.5 1065 c 128,-1,15
 1499 1025 1499 1025 1553 952 c 128,-1,16
 1607 879 1607 879 1634 776.5 c 128,-1,17
 1661 674 1661 674 1661 549 c 0,18,19
 1661 365 1661 365 1588 175 c 1,20,-1
 1741 175 l 1,21,-1
 1741 -20 l 1,22,-1
 336 -20 l 1,0,-1
1349 175 m 1,23,24
 1377 247 1377 247 1393.5 299 c 128,-1,25
 1410 351 1410 351 1418.5 393.5 c 128,-1,26
 1427 436 1427 436 1429.5 474 c 128,-1,27
 1432 512 1432 512 1432 555 c 0,28,29
 1432 634 1432 634 1417.5 700.5 c 128,-1,30
 1403 767 1403 767 1376.5 815 c 128,-1,31
 1350 863 1350 863 1312 889.5 c 128,-1,32
 1274 916 1274 916 1227 916 c 256,33,34
 1180 916 1180 916 1142.5 889.5 c 128,-1,35
 1105 863 1105 863 1078 815 c 128,-1,36
 1051 767 1051 767 1036.5 699.5 c 128,-1,37
 1022 632 1022 632 1022 549 c 2,38,-1
 1022 544 l 2,39,40
 1022 451 1022 451 1004 360 c 128,-1,41
 986 269 986 269 951 175 c 1,42,-1
 1349 175 l 1,23,24
713 175 m 1,43,44
 740 240 740 240 756 291.5 c 128,-1,45
 772 343 772 343 780.5 387 c 128,-1,46
 789 431 789 431 791.5 471.5 c 128,-1,47
 794 512 794 512 794 555 c 0,48,49
 794 639 794 639 779 705.5 c 128,-1,50
 764 772 764 772 737.5 819 c 128,-1,51
 711 866 711 866 674.5 891 c 128,-1,52
 638 916 638 916 595 916 c 0,53,54
 559 916 559 916 525 903.5 c 128,-1,55
 491 891 491 891 461 869 c 128,-1,56
 431 847 431 847 407 817 c 128,-1,57
 383 787 383 787 367 753 c 0,58,59
 316 645 316 645 316 467 c 0,60,61
 316 373 316 373 320 303.5 c 128,-1,62
 324 234 324 234 332 175 c 1,63,-1
 713 175 l 1,43,44
EndSplineSet
Validated: 1
EndChar

StartChar: uniE01E
Encoding: 57374 57374 34
Width: 1731
GlyphClass: 1
Flags: W
AnchorPoint: "TehtaBelow" 931 -200 basechar 0
AnchorPoint: "TehtaAbove" 931 1500 basechar 0
LayerCount: 2
Fore
SplineSet
1376 1485 m 1,0,-1
 1602 1485 l 1,1,-1
 1602 -425 l 1,2,-1
 1376 -425 l 1,3,-1
 1376 76 l 1,4,5
 1268 -45 1268 -45 1095 -45 c 0,6,7
 921 -45 921 -45 803 102 c 1,8,-1
 804 100 l 1,9,10
 793 111 793 111 783 126 c 1,11,12
 725 39 725 39 644.5 -3 c 128,-1,13
 564 -45 564 -45 477 -45 c 0,14,15
 373 -45 373 -45 293.5 -5.5 c 128,-1,16
 214 34 214 34 160 106.5 c 128,-1,17
 106 179 106 179 78.5 282 c 128,-1,18
 51 385 51 385 51 512 c 0,19,20
 51 781 51 781 216 1081 c 1,21,-1
 444 1081 l 1,22,23
 406 994 406 994 379 927.5 c 128,-1,24
 352 861 352 861 333.5 809.5 c 128,-1,25
 315 758 315 758 304.5 717.5 c 128,-1,26
 294 677 294 677 288.5 642 c 128,-1,27
 283 607 283 607 281.5 574.5 c 128,-1,28
 280 542 280 542 280 506 c 0,29,30
 280 423 280 423 295 356 c 128,-1,31
 310 289 310 289 336.5 242 c 128,-1,32
 363 195 363 195 400 169.5 c 128,-1,33
 437 144 437 144 481 144 c 0,34,35
 530 144 530 144 569 171 c 128,-1,36
 608 198 608 198 635 246.5 c 128,-1,37
 662 295 662 295 676 363 c 128,-1,38
 690 431 690 431 690 512 c 0,39,40
 690 785 690 785 856 1081 c 1,41,-1
 1081 1081 l 1,42,43
 1043 994 1043 994 1016 927.5 c 128,-1,44
 989 861 989 861 970.5 809.5 c 128,-1,45
 952 758 952 758 941.5 717.5 c 128,-1,46
 931 677 931 677 925.5 642 c 128,-1,47
 920 607 920 607 918.5 574.5 c 128,-1,48
 917 542 917 542 917 506 c 0,49,50
 917 422 917 422 932 355 c 128,-1,51
 947 288 947 288 974 241 c 128,-1,52
 1001 194 1001 194 1037.5 169 c 128,-1,53
 1074 144 1074 144 1117 144 c 0,54,55
 1158 144 1158 144 1200 164 c 128,-1,56
 1242 184 1242 184 1278 217 c 128,-1,57
 1314 250 1314 250 1340.5 293 c 128,-1,58
 1367 336 1367 336 1376 382 c 1,59,-1
 1376 1485 l 1,0,-1
EndSplineSet
Validated: 1
EndChar

StartChar: uniE01F
Encoding: 57375 57375 35
Width: 1812
GlyphClass: 1
Flags: W
AnchorPoint: "TehtaBelow" 1012 -200 basechar 0
AnchorPoint: "TehtaAbove" 1012 1500 basechar 0
LayerCount: 2
Fore
SplineSet
1455 1081 m 1,0,-1
 1455 1485 l 1,1,-1
 1683 1485 l 1,2,-1
 1683 -425 l 1,3,-1
 1455 -425 l 1,4,-1
 1455 74 l 1,5,6
 1349 -44 1349 -44 1174 -44 c 256,7,8
 999 -44 999 -44 883 102 c 1,9,-1
 884 100 l 1,10,11
 877 107 877 107 872.5 113.5 c 128,-1,12
 868 120 868 120 863 127 c 1,13,14
 805 39 805 39 725 -2.5 c 128,-1,15
 645 -44 645 -44 556 -44 c 0,16,17
 452 -44 452 -44 372.5 -5 c 128,-1,18
 293 34 293 34 239 106 c 128,-1,19
 185 178 185 178 157.5 281 c 128,-1,20
 130 384 130 384 130 512 c 0,21,22
 130 605 130 605 149 698 c 128,-1,23
 168 791 168 791 205 886 c 1,24,-1
 51 886 l 1,25,-1
 51 1081 l 1,26,-1
 1455 1081 l 1,0,-1
442 886 m 1,27,28
 422 834 422 834 406.5 787.5 c 128,-1,29
 391 741 391 741 385 711 c 0,30,31
 373 654 373 654 366.5 601.5 c 128,-1,32
 360 549 360 549 360 506 c 0,33,34
 360 422 360 422 375 355 c 128,-1,35
 390 288 390 288 417 241 c 128,-1,36
 444 194 444 194 481.5 169 c 128,-1,37
 519 144 519 144 564 144 c 256,38,39
 609 144 609 144 647 169.5 c 128,-1,40
 685 195 685 195 712 242.5 c 128,-1,41
 739 290 739 290 754 358 c 128,-1,42
 769 426 769 426 769 512 c 0,43,44
 769 696 769 696 842 886 c 1,45,-1
 442 886 l 1,27,28
1079 886 m 1,46,47
 1057 831 1057 831 1042.5 785 c 128,-1,48
 1028 739 1028 739 1021 710 c 1,49,-1
 1022 711 l 1,50,51
 1009 654 1009 654 1003 602 c 128,-1,52
 997 550 997 550 997 506 c 0,53,54
 997 422 997 422 1012 355 c 128,-1,55
 1027 288 1027 288 1054 241 c 128,-1,56
 1081 194 1081 194 1117.5 169 c 128,-1,57
 1154 144 1154 144 1197 144 c 0,58,59
 1233 144 1233 144 1267 157 c 128,-1,60
 1301 170 1301 170 1331 192.5 c 128,-1,61
 1361 215 1361 215 1385 245 c 128,-1,62
 1409 275 1409 275 1424 308 c 0,63,64
 1450 359 1450 359 1462 429.5 c 128,-1,65
 1474 500 1474 500 1474 589 c 2,66,-1
 1474 602 l 2,67,68
 1473 689 1473 689 1469.5 758.5 c 128,-1,69
 1466 828 1466 828 1458 886 c 1,70,-1
 1079 886 l 1,46,47
EndSplineSet
Validated: 1
EndChar

StartChar: uniE020
Encoding: 57376 57376 36
Width: 1157
GlyphClass: 1
Flags: W
AnchorPoint: "TehtaAbove" 657 1500 basechar 0
AnchorPoint: "TehtaBelow" 757 -500 basechar 0
LayerCount: 2
Fore
SplineSet
649 -73 m 2,0,1
 641 -94 641 -94 641 -116 c 0,2,3
 641 -140 641 -140 650.5 -161 c 128,-1,4
 660 -182 660 -182 676 -197 c 128,-1,5
 692 -212 692 -212 712.5 -221 c 128,-1,6
 733 -230 733 -230 755 -230 c 2,7,-1
 1012 -230 l 1,8,-1
 1012 -426 l 1,9,-1
 719 -425 l 2,10,11
 655 -425 655 -425 598.5 -400.5 c 128,-1,12
 542 -376 542 -376 500 -334 c 128,-1,13
 458 -292 458 -292 433.5 -235.5 c 128,-1,14
 409 -179 409 -179 409 -115 c 0,15,16
 409 -49 409 -49 430 -2 c 1,17,-1
 429 -3 l 1,18,19
 451 54 451 54 473 110.5 c 128,-1,20
 495 167 495 167 518 224 c 0,21,22
 526 246 526 246 533 262.5 c 128,-1,23
 540 279 540 279 548 300 c 1,24,25
 447 451 447 451 349 599 c 128,-1,26
 251 747 251 747 151 898 c 0,27,28
 138 917 138 917 122 941 c 128,-1,29
 106 965 106 965 89.5 990 c 128,-1,30
 73 1015 73 1015 57.5 1038.5 c 128,-1,31
 42 1062 42 1062 29 1081 c 1,32,-1
 299 1081 l 1,33,-1
 647 554 l 1,34,35
 670 614 670 614 694 673 c 128,-1,36
 718 732 718 732 741 792 c 2,37,-1
 854 1081 l 1,38,-1
 1103 1081 l 1,39,-1
 649 -73 l 2,0,1
EndSplineSet
Validated: 1
EndChar

StartChar: uniE021
Encoding: 57377 57377 37
Width: 1157
GlyphClass: 1
Flags: W
AnchorPoint: "TehtaBelow" 757 -500 basechar 0
AnchorPoint: "TehtaAbove" 657 1500 basechar 0
LayerCount: 2
Fore
SplineSet
31 1081 m 1,0,-1
 299 1081 l 1,1,-1
 647 554 l 1,2,3
 670 614 670 614 694 673 c 128,-1,4
 718 732 718 732 741 792 c 2,5,-1
 854 1081 l 1,6,-1
 1103 1081 l 1,7,-1
 650 -73 l 2,8,9
 642 -94 642 -94 642 -116 c 0,10,11
 642 -141 642 -141 651.5 -162 c 128,-1,12
 661 -183 661 -183 676.5 -198 c 128,-1,13
 692 -213 692 -213 712.5 -221.5 c 128,-1,14
 733 -230 733 -230 755 -230 c 2,15,-1
 1013 -230 l 1,16,-1
 1013 -426 l 1,17,-1
 719 -425 l 2,18,19
 655 -425 655 -425 598.5 -400.5 c 128,-1,20
 542 -376 542 -376 500 -334 c 128,-1,21
 458 -292 458 -292 433.5 -235.5 c 128,-1,22
 409 -179 409 -179 409 -115 c 0,23,24
 409 -49 409 -49 430 -2 c 1,25,-1
 429 -3 l 1,26,27
 448 45 448 45 467 93.5 c 128,-1,28
 486 142 486 142 506 191 c 0,29,30
 518 221 518 221 527.5 246 c 128,-1,31
 537 271 537 271 549 301 c 1,32,33
 530 329 530 329 512 356 c 128,-1,34
 494 383 494 383 476 410 c 256,35,36
 458 437 458 437 438 466.5 c 128,-1,37
 418 496 418 496 401 523 c 1,38,39
 392 526 392 526 380.5 528 c 128,-1,40
 369 530 369 530 359 530 c 0,41,42
 336 530 336 530 315.5 520.5 c 128,-1,43
 295 511 295 511 279.5 495.5 c 128,-1,44
 264 480 264 480 254.5 459 c 128,-1,45
 245 438 245 438 245 416 c 0,46,47
 245 392 245 392 254.5 371 c 128,-1,48
 264 350 264 350 280 334.5 c 128,-1,49
 296 319 296 319 316.5 310 c 128,-1,50
 337 301 337 301 359 301 c 2,51,-1
 468 300 l 1,52,-1
 468 105 l 1,53,-1
 360 106 l 2,54,55
 299 107 299 107 243 129.5 c 128,-1,56
 187 152 187 152 144 192.5 c 128,-1,57
 101 233 101 233 75.5 289.5 c 128,-1,58
 50 346 50 346 50 415 c 0,59,60
 50 467 50 467 67 515 c 128,-1,61
 84 563 84 563 114 602.5 c 128,-1,62
 144 642 144 642 184.5 671 c 128,-1,63
 225 700 225 700 273 714 c 1,64,-1
 31 1081 l 1,0,-1
EndSplineSet
Validated: 1
EndChar

StartChar: lambe
Encoding: 57378 57378 38
Width: 1217
GlyphClass: 1
Flags: W
AnchorPoint: "LambeXhook" 417 0 basechar 0
AnchorPoint: "TehtaBelow" 717 300 basechar 0
AnchorPoint: "TehtaAbove" 717 1500 basechar 0
AnchorPoint: "LambeBar" 917 800 basechar 0
LayerCount: 2
Fore
SplineSet
720 886 m 1,0,1
 716 864 716 864 710 845.5 c 128,-1,2
 704 827 704 827 697 811 c 0,3,4
 688 785 688 785 673.5 760.5 c 128,-1,5
 659 736 659 736 636 707.5 c 128,-1,6
 613 679 613 679 578 645.5 c 128,-1,7
 543 612 543 612 492 568 c 0,8,9
 451 533 451 533 424 506.5 c 128,-1,10
 397 480 397 480 381 451.5 c 128,-1,11
 365 423 365 423 358 388 c 128,-1,12
 351 353 351 353 351 301 c 0,13,14
 351 253 351 253 356.5 219 c 128,-1,15
 362 185 362 185 372.5 159.5 c 128,-1,16
 383 134 383 134 398.5 113.5 c 128,-1,17
 414 93 414 93 434 72 c 0,18,19
 475 29 475 29 526.5 5.5 c 128,-1,20
 578 -18 578 -18 637 -18 c 256,21,22
 696 -18 696 -18 748 7.5 c 128,-1,23
 800 33 800 33 843 73 c 1,24,-1
 841 70 l 1,25,26
 873 111 873 111 894 170 c 128,-1,27
 915 229 915 229 923 312 c 1,28,-1
 1153 285 l 1,29,30
 1144 197 1144 197 1123.5 129.5 c 128,-1,31
 1103 62 1103 62 1071.5 10.5 c 128,-1,32
 1040 -41 1040 -41 998 -78.5 c 128,-1,33
 956 -116 956 -116 904 -143 c 0,34,35
 782 -208 782 -208 637 -208 c 0,36,37
 554 -208 554 -208 480 -187.5 c 128,-1,38
 406 -167 406 -167 344.5 -128.5 c 128,-1,39
 283 -90 283 -90 235 -36 c 128,-1,40
 187 18 187 18 156 85 c 1,41,-1
 156 84 l 1,42,43
 120 159 120 159 120 296 c 0,44,45
 120 374 120 374 134 432 c 128,-1,46
 148 490 148 490 176.5 538.5 c 128,-1,47
 205 587 205 587 247.5 630.5 c 128,-1,48
 290 674 290 674 347 722 c 0,49,50
 384 754 384 754 408.5 776 c 128,-1,51
 433 798 433 798 448 816 c 128,-1,52
 463 834 463 834 471.5 850 c 128,-1,53
 480 866 480 866 487 886 c 1,54,-1
 50 886 l 1,55,-1
 50 1081 l 1,56,-1
 1151 1081 l 1,57,-1
 1151 886 l 1,58,-1
 720 886 l 1,0,1
EndSplineSet
Validated: 1
EndChar

StartChar: alda
Encoding: 57379 57379 39
Width: 1367
GlyphClass: 1
Flags: W
AnchorPoint: "LambeXhook" 417 0 basechar 0
AnchorPoint: "TehtaBelow" 717 300 basechar 0
AnchorPoint: "TehtaAbove" 717 1500 basechar 0
AnchorPoint: "LambeBar" 917 800 basechar 0
LayerCount: 2
Fore
SplineSet
969 -42 m 1,0,1
 897 -98 897 -98 813 -121 c 128,-1,2
 729 -144 729 -144 638 -144 c 0,3,4
 554 -144 554 -144 480 -124 c 128,-1,5
 406 -104 406 -104 344 -68 c 128,-1,6
 282 -32 282 -32 234 19 c 128,-1,7
 186 70 186 70 156 132 c 0,8,9
 137 170 137 170 129 219 c 128,-1,10
 121 268 121 268 121 334 c 0,11,12
 121 410 121 410 135.5 466.5 c 128,-1,13
 150 523 150 523 178.5 569 c 128,-1,14
 207 615 207 615 249 656 c 128,-1,15
 291 697 291 697 347 742 c 1,16,-1
 347 741 l 1,17,18
 385 772 385 772 409 793 c 128,-1,19
 433 814 433 814 448 830.5 c 128,-1,20
 463 847 463 847 472 861.5 c 128,-1,21
 481 876 481 876 488 894 c 1,22,-1
 50 894 l 1,23,-1
 50 1081 l 1,24,-1
 1151 1081 l 1,25,-1
 1151 894 l 1,26,-1
 720 894 l 1,27,28
 715 875 715 875 709 856 c 128,-1,29
 703 837 703 837 697 822 c 0,30,31
 672 761 672 761 622 708 c 0,32,33
 616 701 616 701 595 682.5 c 128,-1,34
 574 664 574 664 546 639 c 0,35,36
 523 619 523 619 498 597 c 128,-1,37
 473 575 473 575 449.5 553.5 c 128,-1,38
 426 532 426 532 407.5 513 c 128,-1,39
 389 494 389 494 380 479 c 0,40,41
 351 436 351 436 351 339 c 0,42,43
 351 295 351 295 356 264 c 128,-1,44
 361 233 361 233 371.5 209 c 128,-1,45
 382 185 382 185 397.5 164.5 c 128,-1,46
 413 144 413 144 434 122 c 1,47,-1
 433 122 l 1,48,49
 515 37 515 37 638 37 c 0,50,51
 751 37 751 37 830 110 c 1,52,-1
 829 110 l 1,53,54
 914 189 914 189 1037 189 c 0,55,56
 1101 189 1101 189 1157.5 163.5 c 128,-1,57
 1214 138 1214 138 1256 95 c 128,-1,58
 1298 52 1298 52 1322.5 -4 c 128,-1,59
 1347 -60 1347 -60 1347 -121 c 0,60,61
 1347 -184 1347 -184 1323 -240 c 128,-1,62
 1299 -296 1299 -296 1257 -338.5 c 128,-1,63
 1215 -381 1215 -381 1158.5 -405.5 c 128,-1,64
 1102 -430 1102 -430 1037 -430 c 2,65,-1
 928 -430 l 1,66,-1
 928 -235 l 1,67,-1
 1030 -235 l 2,68,69
 1052 -234 1052 -234 1071 -225.5 c 128,-1,70
 1090 -217 1090 -217 1104.5 -202.5 c 128,-1,71
 1119 -188 1119 -188 1127.5 -169.5 c 128,-1,72
 1136 -151 1136 -151 1136 -129 c 0,73,74
 1136 -108 1136 -108 1127.5 -89 c 128,-1,75
 1119 -70 1119 -70 1104.5 -55 c 128,-1,76
 1090 -40 1090 -40 1071 -31.5 c 128,-1,77
 1052 -23 1052 -23 1031 -23 c 0,78,79
 999 -23 999 -23 968 -43 c 1,80,-1
 969 -42 l 1,0,1
EndSplineSet
Validated: 1
EndChar

StartChar: uniE024
Encoding: 57380 57380 40
Width: 1102
GlyphClass: 1
Flags: W
AnchorPoint: "TehtaBelow" 602 -200 basechar 0
AnchorPoint: "TehtaAbove" 302 1500 basechar 0
LayerCount: 2
Fore
SplineSet
320 566 m 2,0,1
 318 564 318 564 314.5 557.5 c 128,-1,2
 311 551 311 551 307 543 c 0,3,4
 281 494 281 494 281 435 c 0,5,6
 281 382 281 382 301 333.5 c 128,-1,7
 321 285 321 285 355.5 247.5 c 128,-1,8
 390 210 390 210 437 188 c 128,-1,9
 484 166 484 166 538 166 c 0,10,11
 589 166 589 166 633 185 c 128,-1,12
 677 204 677 204 711.5 244.5 c 128,-1,13
 746 285 746 285 771 348 c 128,-1,14
 796 411 796 411 809 499 c 1,15,-1
 1038 469 l 1,16,17
 1025 340 1025 340 984.5 244 c 128,-1,18
 944 148 944 148 880 83.5 c 128,-1,19
 816 19 816 19 730.5 -13 c 128,-1,20
 645 -45 645 -45 541 -45 c 0,21,22
 428 -45 428 -45 337.5 -8 c 128,-1,23
 247 29 247 29 183 92.5 c 128,-1,24
 119 156 119 156 84.5 241 c 128,-1,25
 50 326 50 326 50 422 c 0,26,27
 50 497 50 497 69 564 c 128,-1,28
 88 631 88 631 136 692 c 1,29,-1
 136 691 l 1,30,31
 174 745 174 745 212.5 799 c 128,-1,32
 251 853 251 853 290 909 c 0,33,34
 355 1000 355 1000 418.5 1090.5 c 128,-1,35
 482 1181 482 1181 545 1271 c 0,36,37
 555 1285 555 1285 563.5 1303 c 128,-1,38
 572 1321 572 1321 579 1346.5 c 128,-1,39
 586 1372 586 1372 591 1405.5 c 128,-1,40
 596 1439 596 1439 599 1484 c 1,41,-1
 824 1485 l 1,42,43
 817 1426 817 1426 808.5 1376 c 128,-1,44
 800 1326 800 1326 788 1283 c 128,-1,45
 776 1240 776 1240 760 1204.5 c 128,-1,46
 744 1169 744 1169 723 1138 c 2,47,-1
 320 566 l 2,0,1
EndSplineSet
Validated: 1
EndChar

StartChar: uniE025
Encoding: 57381 57381 41
Width: 1102
GlyphClass: 1
Flags: W
AnchorPoint: "TehtaAbove" 602 1500 basechar 0
AnchorPoint: "TehtaBelow" 1002 -200 basechar 0
LayerCount: 2
Fore
SplineSet
768 498 m 1,0,-1
 770 500 l 2,1,2
 771 501 771 501 769.5 500 c 128,-1,3
 768 499 768 499 770 502 c 0,4,5
 772 507 772 507 774 512 c 128,-1,6
 776 517 776 517 780 522 c 1,7,-1
 780 521 l 1,8,9
 805 564 805 564 805 627 c 0,10,11
 805 677 805 677 786 725 c 128,-1,12
 767 773 767 773 732.5 811 c 128,-1,13
 698 849 698 849 651 872 c 128,-1,14
 604 895 604 895 548 895 c 0,15,16
 442 895 442 895 371 815 c 128,-1,17
 300 735 300 735 278 563 c 1,18,-1
 48 593 l 1,19,20
 74 845 74 845 201 976 c 128,-1,21
 328 1107 328 1107 545 1107 c 0,22,23
 658 1107 658 1107 749 1069.5 c 128,-1,24
 840 1032 840 1032 903.5 968.5 c 128,-1,25
 967 905 967 905 1001.5 820 c 128,-1,26
 1036 735 1036 735 1036 640 c 0,27,28
 1036 600 1036 600 1031.5 568 c 128,-1,29
 1027 536 1027 536 1017 506 c 128,-1,30
 1007 476 1007 476 990.5 443.5 c 128,-1,31
 974 411 974 411 950 369 c 1,32,-1
 541 -210 l 1,33,-1
 542 -209 l 1,34,35
 519 -243 519 -243 504 -292 c 128,-1,36
 489 -341 489 -341 487 -421 c 1,37,-1
 263 -422 l 1,38,39
 272 -306 272 -306 295.5 -223 c 128,-1,40
 319 -140 319 -140 363 -77 c 2,41,-1
 768 498 l 1,0,-1
EndSplineSet
Validated: 1
EndChar

StartChar: uniE026
Encoding: 57382 57382 42
Width: 1102
GlyphClass: 1
Flags: W
AnchorPoint: "TehtaAbove" 302 1500 basechar 0
AnchorPoint: "TehtaBelow" 602 -500 basechar 0
LayerCount: 2
Fore
SplineSet
541 56 m 0,0,1
 471 56 471 56 408 70 c 128,-1,2
 345 84 345 84 293 111 c 1,3,4
 287 94 287 94 284 75 c 128,-1,5
 281 56 281 56 281 36 c 0,6,7
 281 -16 281 -16 301.5 -64.5 c 128,-1,8
 322 -113 322 -113 357 -150 c 128,-1,9
 392 -187 392 -187 438.5 -209.5 c 128,-1,10
 485 -232 485 -232 538 -232 c 0,11,12
 590 -232 590 -232 634 -213 c 128,-1,13
 678 -194 678 -194 712.5 -153.5 c 128,-1,14
 747 -113 747 -113 771.5 -50.5 c 128,-1,15
 796 12 796 12 809 100 c 1,16,-1
 1038 70 l 1,17,18
 1025 -59 1025 -59 984 -155 c 128,-1,19
 943 -251 943 -251 878.5 -315.5 c 128,-1,20
 814 -380 814 -380 728.5 -412 c 128,-1,21
 643 -444 643 -444 541 -444 c 0,22,23
 428 -444 428 -444 337.5 -406.5 c 128,-1,24
 247 -369 247 -369 183 -305 c 128,-1,25
 119 -241 119 -241 84.5 -156.5 c 128,-1,26
 50 -72 50 -72 50 22 c 0,27,28
 50 87 50 87 67.5 152 c 128,-1,29
 85 217 85 217 120 271 c 1,30,31
 83 328 83 328 66.5 389 c 128,-1,32
 50 450 50 450 50 523 c 0,33,34
 50 601 50 601 69.5 665.5 c 128,-1,35
 89 730 89 730 136 793 c 1,36,-1
 546 1273 l 1,37,-1
 545 1272 l 1,38,39
 555 1285 555 1285 563.5 1303 c 128,-1,40
 572 1321 572 1321 579 1346.5 c 128,-1,41
 586 1372 586 1372 591 1406 c 128,-1,42
 596 1440 596 1440 599 1484 c 1,43,-1
 824 1485 l 1,44,45
 817 1422 817 1422 808.5 1372 c 128,-1,46
 800 1322 800 1322 788 1280.5 c 128,-1,47
 776 1239 776 1239 760 1204 c 128,-1,48
 744 1169 744 1169 722 1135 c 1,49,-1
 323 672 l 1,50,51
 323 673 323 673 323 673 c 1,52,53
 281 595 281 595 281 537 c 0,54,55
 281 483 281 483 301.5 434 c 128,-1,56
 322 385 322 385 357 348.5 c 128,-1,57
 392 312 392 312 438.5 290 c 128,-1,58
 485 268 485 268 538 268 c 0,59,60
 588 268 588 268 631.5 286.5 c 128,-1,61
 675 305 675 305 710 345 c 128,-1,62
 745 385 745 385 770.5 448.5 c 128,-1,63
 796 512 796 512 809 602 c 1,64,-1
 1038 571 l 1,65,66
 1025 443 1025 443 984.5 346.5 c 128,-1,67
 944 250 944 250 880 185.5 c 128,-1,68
 816 121 816 121 730.5 88.5 c 128,-1,69
 645 56 645 56 541 56 c 0,0,1
EndSplineSet
Validated: 1
EndChar

StartChar: uniE027
Encoding: 57383 57383 43
Width: 1102
GlyphClass: 1
Flags: W
AnchorPoint: "TehtaBelow" 1002 -200 basechar 0
AnchorPoint: "TehtaAbove" 602 1800 basechar 0
LayerCount: 2
Fore
SplineSet
772 401 m 1,0,1
 772 401 772 401 774 403 c 1,2,-1
 773 402 l 1,3,-1
 772 401 l 1,0,1
545 1007 m 0,4,5
 615 1007 615 1007 678 992 c 128,-1,6
 741 977 741 977 793 950 c 1,7,8
 800 968 800 968 802.5 986.5 c 128,-1,9
 805 1005 805 1005 805 1027 c 0,10,11
 805 1077 805 1077 786 1125 c 128,-1,12
 767 1173 767 1173 732.5 1211 c 128,-1,13
 698 1249 698 1249 651 1272 c 128,-1,14
 604 1295 604 1295 548 1295 c 0,15,16
 442 1295 442 1295 371 1215 c 128,-1,17
 300 1135 300 1135 278 963 c 1,18,-1
 48 993 l 1,19,20
 74 1245 74 1245 201 1376 c 128,-1,21
 328 1507 328 1507 545 1507 c 0,22,23
 658 1507 658 1507 749 1469.5 c 128,-1,24
 840 1432 840 1432 903.5 1368.5 c 128,-1,25
 967 1305 967 1305 1001.5 1220 c 128,-1,26
 1036 1135 1036 1135 1036 1040 c 0,27,28
 1036 973 1036 973 1018.5 909 c 128,-1,29
 1001 845 1001 845 966 791 c 1,30,31
 1003 734 1003 734 1019.5 673 c 128,-1,32
 1036 612 1036 612 1036 539 c 0,33,34
 1036 497 1036 497 1031.5 463.5 c 128,-1,35
 1027 430 1027 430 1017 399 c 128,-1,36
 1007 368 1007 368 990.5 336.5 c 128,-1,37
 974 305 974 305 950 268 c 1,38,-1
 540 -209 l 1,39,-1
 541 -208 l 1,40,41
 518 -240 518 -240 503.5 -289 c 128,-1,42
 489 -338 489 -338 487 -421 c 1,43,-1
 263 -421 l 1,44,45
 270 -358 270 -358 278 -307.5 c 128,-1,46
 286 -257 286 -257 297.5 -215 c 128,-1,47
 309 -173 309 -173 325.5 -137.5 c 128,-1,48
 342 -102 342 -102 366 -70 c 2,49,-1
 766 395 l 1,50,-1
 766 394 l 1,51,52
 768 398 768 398 770 399 c 1,53,54
 769 399 769 399 770 401 c 0,55,56
 772 406 772 406 774 411 c 128,-1,57
 776 416 776 416 780 421 c 1,58,-1
 780 420 l 1,59,60
 805 463 805 463 805 526 c 0,61,62
 805 579 805 579 784.5 627.5 c 128,-1,63
 764 676 764 676 729 713.5 c 128,-1,64
 694 751 694 751 647.5 773 c 128,-1,65
 601 795 601 795 548 795 c 0,66,67
 498 795 498 795 453.5 776 c 128,-1,68
 409 757 409 757 373.5 716.5 c 128,-1,69
 338 676 338 676 313.5 612.5 c 128,-1,70
 289 549 289 549 278 461 c 1,71,-1
 48 492 l 1,72,73
 61 618 61 618 101.5 714.5 c 128,-1,74
 142 811 142 811 206 876 c 128,-1,75
 270 941 270 941 355.5 974 c 128,-1,76
 441 1007 441 1007 545 1007 c 0,4,5
EndSplineSet
Validated: 1
EndChar

StartChar: uniE028
Encoding: 57384 57384 44
Width: 1248
GlyphClass: 1
Flags: W
AnchorPoint: "TehtaBelow" 648 -200 basechar 0
AnchorPoint: "TehtaAbove" 948 1500 basechar 0
LayerCount: 2
Fore
SplineSet
531 884 m 1,0,1
 516 922 516 922 491 975 c 128,-1,2
 466 1028 466 1028 433 1098 c 0,3,4
 363 1243 363 1243 344 1260 c 0,5,6
 298 1300 298 1300 238 1300 c 0,7,8
 156 1300 156 1300 50 1238 c 1,9,-1
 50 1462 l 1,10,11
 115 1482 115 1482 166 1492.5 c 128,-1,12
 217 1503 217 1503 256 1503 c 0,13,14
 300 1503 300 1503 335.5 1497.5 c 128,-1,15
 371 1492 371 1492 400.5 1477 c 128,-1,16
 430 1462 430 1462 456.5 1436.5 c 128,-1,17
 483 1411 483 1411 510.5 1371 c 128,-1,18
 538 1331 538 1331 568 1276 c 128,-1,19
 598 1221 598 1221 634 1146 c 2,20,-1
 1197 -20 l 1,21,-1
 951 -20 l 1,22,-1
 640 648 l 1,23,24
 598 570 598 570 556.5 492 c 128,-1,25
 515 414 515 414 474 337 c 0,26,27
 428 250 428 250 379 159 c 128,-1,28
 330 68 330 68 283 -20 c 1,29,-1
 32 -20 l 1,30,-1
 531 884 l 1,0,1
EndSplineSet
Validated: 1
EndChar

StartChar: uniE029
Encoding: 57385 57385 45
Width: 1465
GlyphClass: 1
Flags: W
AnchorPoint: "TehtaAbove" 472 1500 basechar 0
AnchorPoint: "TehtaBelow" 672 -200 basechar 0
LayerCount: 2
Fore
SplineSet
1397 -20 m 1,0,-1
 1034 -20 l 2,1,2
 977 -20 977 -20 925 4.5 c 128,-1,3
 873 29 873 29 823 97 c 1,4,5
 769 29 769 29 694.5 -6 c 128,-1,6
 620 -41 620 -41 528 -41 c 0,7,8
 426 -41 426 -41 339 0.5 c 128,-1,9
 252 42 252 42 187.5 118 c 128,-1,10
 123 194 123 194 86.5 299 c 128,-1,11
 50 404 50 404 50 532 c 0,12,13
 50 650 50 650 80.5 755 c 128,-1,14
 111 860 111 860 171 938.5 c 128,-1,15
 231 1017 231 1017 318.5 1062.5 c 128,-1,16
 406 1108 406 1108 520 1108 c 0,17,18
 601 1108 601 1108 668.5 1079.5 c 128,-1,19
 736 1051 736 1051 787 1003 c 1,20,-1
 787 1485 l 1,21,-1
 1012 1485 l 1,22,-1
 1013 505 l 2,23,24
 1013 442 1013 442 1021.5 384.5 c 128,-1,25
 1030 327 1030 327 1050.5 283.5 c 128,-1,26
 1071 240 1071 240 1105.5 214 c 128,-1,27
 1140 188 1140 188 1192 188 c 2,28,-1
 1397 188 l 1,29,-1
 1397 -20 l 1,0,-1
282 532 m 0,30,31
 282 435 282 435 304 364 c 128,-1,32
 326 293 326 293 362.5 246 c 128,-1,33
 399 199 399 199 446.5 176 c 128,-1,34
 494 153 494 153 545 153 c 256,35,36
 596 153 596 153 643 174.5 c 128,-1,37
 690 196 690 196 725 241 c 128,-1,38
 760 286 760 286 781 354.5 c 128,-1,39
 802 423 802 423 802 517 c 0,40,41
 802 620 802 620 781 694.5 c 128,-1,42
 760 769 760 769 724 817.5 c 128,-1,43
 688 866 688 866 640 889 c 128,-1,44
 592 912 592 912 537 912 c 256,45,46
 482 912 482 912 435 889.5 c 128,-1,47
 388 867 388 867 354 820 c 128,-1,48
 320 773 320 773 301 701.5 c 128,-1,49
 282 630 282 630 282 532 c 0,30,31
EndSplineSet
Validated: 1
EndChar

StartChar: uniE02A
Encoding: 57386 57386 46
Width: 1055
GlyphClass: 1
Flags: W
AnchorPoint: "TehtaAbove" 555 1500 basechar 0
AnchorPoint: "TehtaBelow" 555 -200 basechar 0
LayerCount: 2
Fore
SplineSet
304 -20 m 1,0,-1
 60 -20 l 1,1,-1
 444 678 l 1,2,3
 417 748 417 748 393.5 792 c 128,-1,4
 370 836 370 836 345.5 860.5 c 128,-1,5
 321 885 321 885 294.5 893.5 c 128,-1,6
 268 902 268 902 237 902 c 0,7,8
 157 902 157 902 49 841 c 1,9,-1
 49 1064 l 1,10,11
 115 1084 115 1084 166 1094.5 c 128,-1,12
 217 1105 217 1105 256 1105 c 0,13,14
 389 1105 389 1105 461 1032 c 0,15,16
 493 998 493 998 537 926 c 128,-1,17
 581 854 581 854 633 748 c 0,18,19
 677 657 677 657 722 565 c 128,-1,20
 767 473 767 473 812 379 c 0,21,22
 834 332 834 332 859 281 c 128,-1,23
 884 230 884 230 909 178.5 c 128,-1,24
 934 127 934 127 958.5 76.5 c 128,-1,25
 983 26 983 26 1005 -19 c 1,26,-1
 765 -20 l 1,27,-1
 550 443 l 1,28,-1
 304 -20 l 1,0,-1
EndSplineSet
Validated: 1
EndChar

StartChar: uniE02B
Encoding: 57387 57387 47
Width: 1151
GlyphClass: 1
Flags: W
AnchorPoint: "TehtaBelow" 651 -200 basechar 0
AnchorPoint: "TehtaAbove" 651 1500 basechar 0
LayerCount: 2
Fore
SplineSet
50 530 m 0,0,1
 50 669 50 669 88 776 c 128,-1,2
 126 883 126 883 194.5 956 c 128,-1,3
 263 1029 263 1029 358.5 1067 c 128,-1,4
 454 1105 454 1105 568 1105 c 256,5,6
 682 1105 682 1105 777 1066.5 c 128,-1,7
 872 1028 872 1028 940.5 956 c 128,-1,8
 1009 884 1009 884 1047 780 c 128,-1,9
 1085 676 1085 676 1085 545 c 0,10,11
 1085 436 1085 436 1068.5 353 c 128,-1,12
 1052 270 1052 270 1020.5 207.5 c 128,-1,13
 989 145 989 145 942 100 c 128,-1,14
 895 55 895 55 835 22 c 0,15,16
 713 -44 713 -44 568 -44 c 0,17,18
 454 -44 454 -44 358.5 -7 c 128,-1,19
 263 30 263 30 194.5 102 c 128,-1,20
 126 174 126 174 88 281.5 c 128,-1,21
 50 389 50 389 50 530 c 0,0,1
281 530 m 256,22,23
 281 437 281 437 303 366 c 128,-1,24
 325 295 325 295 363.5 247 c 128,-1,25
 402 199 402 199 454.5 174.5 c 128,-1,26
 507 150 507 150 568 150 c 0,27,28
 628 150 628 150 680 173.5 c 128,-1,29
 732 197 732 197 771 245 c 128,-1,30
 810 293 810 293 832 365.5 c 128,-1,31
 854 438 854 438 854 536 c 0,32,33
 854 626 854 626 832 696 c 128,-1,34
 810 766 810 766 771 813 c 128,-1,35
 732 860 732 860 680 884.5 c 128,-1,36
 628 909 628 909 568 909 c 0,37,38
 507 909 507 909 454.5 884.5 c 128,-1,39
 402 860 402 860 363.5 812.5 c 128,-1,40
 325 765 325 765 303 694 c 128,-1,41
 281 623 281 623 281 530 c 256,22,23
EndSplineSet
Validated: 1
EndChar

StartChar: uniE02C
Encoding: 57388 57388 48
Width: 290
GlyphClass: 1
Flags: W
AnchorPoint: "TehtaBelow" 190 -500 basechar 0
AnchorPoint: "TehtaAbove" 190 1500 basechar 0
LayerCount: 2
Fore
SplineSet
34 -426 m 1,0,-1
 34 1081 l 1,1,-1
 260 1081 l 1,2,-1
 260 -426 l 1,3,-1
 34 -426 l 1,0,-1
EndSplineSet
Validated: 1
EndChar

StartChar: uniE02D
Encoding: 57389 57389 49
Width: 290
GlyphClass: 1
Flags: W
AnchorPoint: "TehtaBelow" 190 -200 basechar 0
AnchorPoint: "TehtaAbove" 190 1800 basechar 0
LayerCount: 2
Fore
SplineSet
34 -20 m 1,0,-1
 34 1485 l 1,1,-1
 260 1485 l 1,2,-1
 260 -20 l 1,3,-1
 34 -20 l 1,0,-1
EndSplineSet
Validated: 1
EndChar

StartChar: uniE02E
Encoding: 57390 57390 50
Width: 290
GlyphClass: 1
Flags: W
AnchorPoint: "TehtaAbove" 190 1500 basechar 0
AnchorPoint: "TehtaBelow" 190 -200 basechar 0
LayerCount: 2
Fore
SplineSet
34 -20 m 1,0,-1
 34 1081 l 1,1,-1
 260 1081 l 1,2,-1
 260 -20 l 1,3,-1
 34 -20 l 1,0,-1
EndSplineSet
Validated: 1
EndChar

StartChar: uniE02F
Encoding: 57391 57391 51
Width: 290
GlyphClass: 1
Flags: W
AnchorPoint: "TehtaBelow" 190 -500 basechar 0
AnchorPoint: "TehtaAbove" 190 1800 basechar 0
LayerCount: 2
Fore
SplineSet
34 -426 m 1,0,-1
 34 1485 l 1,1,-1
 260 1485 l 1,2,-1
 260 -426 l 1,3,-1
 34 -426 l 1,0,-1
EndSplineSet
Validated: 1
EndChar

StartChar: uniE030
Encoding: 57392 57392 52
Width: 793
GlyphClass: 1
Flags: W
LayerCount: 2
Fore
SplineSet
-86 775 m 1,0,1
 -66 812 -66 812 -42 855 c 0,2,3
 -18 898 -18 898 5 936 c 0,4,5
 117 1105 117 1105 326 1105 c 0,6,7
 414 1105 414 1105 489 1068 c 0,8,9
 564 1031 564 1031 619 960 c 0,10,11
 674 890 674 890 705 786 c 0,12,13
 736 682 736 682 736 549 c 0,14,15
 736 281 736 281 569 -20 c 1,16,-1
 343 -20 l 1,17,18
 380 66 380 66 407 133 c 0,19,20
 434 200 434 200 452 252 c 0,21,22
 470 304 470 304 481 346 c 0,23,24
 492 388 492 388 498 423 c 0,25,26
 504 458 504 458 506 490 c 0,27,28
 508 522 508 522 507 555 c 0,29,30
 507 634 507 634 493 700 c 0,31,32
 478 766 478 766 452 814 c 0,33,34
 426 862 426 862 388 889 c 0,35,36
 350 916 350 916 303 916 c 0,37,38
 258 916 258 916 217 896 c 0,39,40
 176 876 176 876 139 842 c 0,41,42
 102 810 102 810 70 769 c 0,43,44
 38 728 38 728 10 688 c 1,45,-1
 -86 775 l 1,0,1
EndSplineSet
Validated: 33
EndChar

StartChar: uniE031
Encoding: 57393 57393 53
Width: 871
GlyphClass: 1
Flags: W
LayerCount: 2
Fore
SplineSet
814 175 m 1,0,-1
 814 -20 l 1,1,-1
 -76 -20 l 1,2,-1
 -76 175 l 1,3,-1
 428 175 l 1,4,5
 456 246 456 246 472 300 c 0,6,7
 488 354 488 354 497 398 c 0,8,9
 506 442 506 442 508 478 c 0,10,11
 510 516 510 516 510 555 c 0,12,13
 510 634 510 634 496 700 c 0,14,15
 482 766 482 766 455 814 c 0,16,17
 429 862 429 862 391 889 c 0,18,19
 353 916 353 916 307 916 c 0,20,21
 260 916 260 916 219 896 c 0,22,23
 178 876 178 876 142 842 c 0,24,25
 106 810 106 810 73 769 c 0,26,27
 41 728 41 728 13 688 c 1,28,-1
 -83 775 l 1,29,30
 -64 812 -64 812 -40 855 c 0,31,32
 -16 898 -16 898 8 936 c 0,33,34
 120 1105 120 1105 329 1105 c 0,35,36
 417 1105 417 1105 492 1068 c 0,37,38
 567 1031 567 1031 622 960 c 0,39,40
 677 890 677 890 708 786 c 0,41,42
 739 682 739 682 739 549 c 0,43,44
 739 365 739 365 666 175 c 1,45,-1
 814 175 l 1,0,-1
EndSplineSet
Validated: 1
EndChar

StartChar: uniE032
Encoding: 57394 57394 54
Width: 775
GlyphClass: 1
Flags: W
LayerCount: 2
Fore
SplineSet
871 288 m 1,0,1
 832 205 832 205 791 143 c 128,-1,2
 750 81 750 81 701.5 39.5 c 128,-1,3
 653 -2 653 -2 593.5 -22.5 c 128,-1,4
 534 -43 534 -43 459 -43 c 0,5,6
 369 -43 369 -43 294 -6 c 128,-1,7
 219 31 219 31 164.5 101.5 c 128,-1,8
 110 172 110 172 79.5 275.5 c 128,-1,9
 49 379 49 379 49 513 c 0,10,11
 49 652 49 652 90.5 790.5 c 128,-1,12
 132 929 132 929 215 1081 c 1,13,-1
 443 1081 l 1,14,15
 385 949 385 949 350 857 c 128,-1,16
 315 765 315 765 303 711 c 0,17,18
 279 609 279 609 279 506 c 0,19,20
 279 425 279 425 293.5 358.5 c 128,-1,21
 308 292 308 292 334.5 244.5 c 128,-1,22
 361 197 361 197 398.5 171 c 128,-1,23
 436 145 436 145 482 145 c 0,24,25
 527 145 527 145 567.5 165.5 c 128,-1,26
 608 186 608 186 644.5 218 c 128,-1,27
 681 250 681 250 714 290.5 c 128,-1,28
 747 331 747 331 777 372 c 1,29,-1
 871 288 l 1,0,1
EndSplineSet
Validated: 1
EndChar

StartChar: uniE033
Encoding: 57395 57395 55
Width: 856
GlyphClass: 1
Flags: W
LayerCount: 2
Fore
SplineSet
49 886 m 1,0,-1
 49 1081 l 1,1,-1
 940 1081 l 1,2,-1
 940 886 l 1,3,-1
 435 886 l 1,4,5
 414 831 414 831 400 785 c 0,6,7
 386 739 386 739 378 711 c 0,8,9
 366 662 366 662 360 608 c 0,10,11
 354 554 354 554 354 506 c 0,12,13
 354 421 354 421 369 354 c 0,14,15
 384 286 384 286 411 240 c 0,16,17
 438 194 438 194 475 170 c 0,18,19
 512 146 512 146 557 145 c 0,20,21
 603 145 603 145 643 165 c 0,22,23
 683 185 683 185 719 217 c 0,24,25
 756 249 756 249 788 290 c 0,26,27
 820 331 820 331 851 372 c 1,28,-1
 948 288 l 1,29,30
 909 207 909 207 868 145 c 0,31,32
 827 84 827 84 778 42 c 0,33,34
 730 0 730 0 670 -22 c 0,35,36
 610 -44 610 -44 535 -43 c 0,37,38
 446 -43 446 -43 370 -6 c 0,39,40
 294 30 294 30 240 102 c 0,41,42
 186 174 186 174 154 278 c 0,43,44
 124 382 124 382 124 513 c 0,45,46
 124 696 124 696 197 886 c 1,47,-1
 49 886 l 1,0,-1
EndSplineSet
Validated: 33
EndChar

StartChar: uniE034
Encoding: 57396 57396 56
Width: 1058
GlyphClass: 1
Flags: W
LayerCount: 2
Fore
SplineSet
276 -20 m 1,0,-1
 49 -20 l 1,1,-1
 49 1081 l 1,2,-1
 276 1081 l 1,3,-1
 276 1034 l 1,4,5
 339 1071 339 1071 405 1088 c 0,6,7
 471 1105 471 1105 548 1105 c 0,8,9
 636 1105 636 1105 711 1081 c 0,10,11
 786 1057 786 1057 844 1010 c 0,12,13
 902 963 902 963 942 894 c 0,14,15
 982 825 982 825 998 735 c 1,16,-1
 779 701 l 1,17,18
 752 806 752 806 696 860 c 0,19,20
 640 914 640 914 555 913 c 0,21,22
 494 913 494 913 443 892 c 0,23,24
 392 871 392 871 355 826 c 0,25,26
 318 781 318 781 297 711 c 0,27,28
 276 641 276 641 276 544 c 2,29,-1
 276 -20 l 1,0,-1
EndSplineSet
Validated: 33
EndChar

StartChar: uniE035
Encoding: 57397 57397 57
Width: 1895
GlyphClass: 1
Flags: W
AnchorPoint: "TehtaBelow" 595 -200 basechar 0
AnchorPoint: "TehtaAbove" 595 1500 basechar 0
LayerCount: 2
Fore
SplineSet
882 51 m 1,0,1
 816 4 816 4 738.5 -20 c 128,-1,2
 661 -44 661 -44 569 -44 c 0,3,4
 453 -44 453 -44 358 -6 c 128,-1,5
 263 32 263 32 194.5 105 c 128,-1,6
 126 178 126 178 88.5 285 c 128,-1,7
 51 392 51 392 51 530 c 256,8,9
 51 668 51 668 90 775.5 c 128,-1,10
 129 883 129 883 200 956 c 128,-1,11
 271 1029 271 1029 371 1067 c 128,-1,12
 471 1105 471 1105 593 1105 c 1,13,-1
 593 909 l 1,14,15
 525 909 525 909 468.5 884.5 c 128,-1,16
 412 860 412 860 370.5 812.5 c 128,-1,17
 329 765 329 765 306 694 c 128,-1,18
 283 623 283 623 283 530 c 256,19,20
 283 437 283 437 305 366 c 128,-1,21
 327 295 327 295 365.5 247 c 128,-1,22
 404 199 404 199 456 175 c 128,-1,23
 508 151 508 151 569 151 c 256,24,25
 630 151 630 151 681 174.5 c 128,-1,26
 732 198 732 198 774 243 c 0,27,28
 795 267 795 267 814.5 297.5 c 128,-1,29
 834 328 834 328 849 365 c 128,-1,30
 864 402 864 402 873.5 443.5 c 128,-1,31
 883 485 883 485 883 532 c 2,32,-1
 882 1081 l 1,33,-1
 1107 1081 l 1,34,-1
 1107 1033 l 1,35,36
 1169 1068 1169 1068 1237 1086.5 c 128,-1,37
 1305 1105 1305 1105 1380 1105 c 0,38,39
 1561 1105 1561 1105 1677.5 1010 c 128,-1,40
 1794 915 1794 915 1830 735 c 1,41,-1
 1610 701 l 1,42,43
 1580 812 1580 812 1524 862.5 c 128,-1,44
 1468 913 1468 913 1387 913 c 0,45,46
 1327 913 1327 913 1275.5 892 c 128,-1,47
 1224 871 1224 871 1186.5 826 c 128,-1,48
 1149 781 1149 781 1128 711 c 128,-1,49
 1107 641 1107 641 1107 544 c 2,50,-1
 1107 -20 l 1,51,-1
 882 -20 l 1,52,-1
 882 51 l 1,0,1
EndSplineSet
Validated: 1
EndChar

StartChar: uniE036
Encoding: 57398 57398 58
Width: 1078
GlyphClass: 1
Flags: W
AnchorPoint: "TehtaAbove" 578 1500 basechar 0
AnchorPoint: "TehtaBelow" 578 -200 basechar 0
LayerCount: 2
Fore
SplineSet
957 -20 m 1,0,-1
 749 -20 l 1,1,-1
 749 95 l 1,2,3
 629 -44 629 -44 437 -44 c 0,4,5
 378 -44 378 -44 322.5 -29 c 128,-1,6
 267 -14 267 -14 220 13.5 c 128,-1,7
 173 41 173 41 138 79.5 c 128,-1,8
 103 118 103 118 86 165 c 0,9,10
 70 213 70 213 61.5 273 c 128,-1,11
 53 333 53 333 53 404 c 2,12,-1
 53 1081 l 1,13,-1
 280 1081 l 1,14,-1
 280 473 l 2,15,16
 280 410 280 410 282 364.5 c 128,-1,17
 284 319 284 319 291 286 c 128,-1,18
 298 253 298 253 312.5 231 c 128,-1,19
 327 209 327 209 352 193 c 0,20,21
 401 158 401 158 474 158 c 0,22,23
 519 158 519 158 563.5 174 c 128,-1,24
 608 190 608 190 651 223 c 0,25,26
 730 284 730 284 730 494 c 2,27,-1
 730 1081 l 1,28,-1
 957 1081 l 1,29,-1
 957 -20 l 1,0,-1
EndSplineSet
Validated: 1
EndChar

StartChar: uniE037
Encoding: 57399 57399 59
Width: 1172
GlyphClass: 1
Flags: W
AnchorPoint: "TehtaBelow" 572 -200 basechar 0
AnchorPoint: "TehtaAbove" 672 1500 basechar 0
LayerCount: 2
Fore
SplineSet
821 175 m 1,0,1
 829 233 829 233 833 301.5 c 128,-1,2
 837 370 837 370 838 459 c 2,3,-1
 838 471 l 2,4,5
 838 617 838 617 804 713.5 c 128,-1,6
 770 810 770 810 695 868 c 0,7,8
 664 892 664 892 629 904 c 128,-1,9
 594 916 594 916 558 916 c 0,10,11
 511 916 511 916 473.5 889.5 c 128,-1,12
 436 863 436 863 409 815 c 128,-1,13
 382 767 382 767 367.5 700.5 c 128,-1,14
 353 634 353 634 353 555 c 0,15,16
 353 520 353 520 356 482.5 c 128,-1,17
 359 445 359 445 368 400 c 128,-1,18
 377 355 377 355 393.5 300 c 128,-1,19
 410 245 410 245 438 175 c 1,20,-1
 821 175 l 1,0,1
819 -20 m 1,21,-1
 50 -20 l 1,22,-1
 50 175 l 1,23,-1
 198 175 l 1,24,25
 126 362 126 362 126 549 c 0,26,27
 126 683 126 683 157 786.5 c 128,-1,28
 188 890 188 890 243 961 c 128,-1,29
 298 1032 298 1032 373 1068.5 c 128,-1,30
 448 1105 448 1105 536 1105 c 256,31,32
 624 1105 624 1105 693.5 1075.5 c 128,-1,33
 763 1046 763 1046 818 983 c 1,34,35
 818 1009 818 1009 818.5 1035 c 128,-1,36
 819 1061 819 1061 819 1081 c 1,37,-1
 1046 1081 l 1,38,-1
 1046 -426 l 1,39,-1
 819 -426 l 1,40,-1
 819 -20 l 1,21,-1
EndSplineSet
Validated: 1
EndChar

StartChar: uniE038
Encoding: 57400 57400 60
Width: 1172
GlyphClass: 1
Flags: W
AnchorPoint: "TehtaBelow" 672 -200 basechar 0
AnchorPoint: "TehtaAbove" 572 1500 basechar 0
LayerCount: 2
Fore
SplineSet
821 175 m 1,0,1
 829 233 829 233 833 301.5 c 128,-1,2
 837 370 837 370 838 459 c 2,3,-1
 838 471 l 2,4,5
 838 617 838 617 804 713.5 c 128,-1,6
 770 810 770 810 695 868 c 0,7,8
 664 892 664 892 629 904 c 128,-1,9
 594 916 594 916 558 916 c 0,10,11
 511 916 511 916 473.5 889.5 c 128,-1,12
 436 863 436 863 409 815 c 128,-1,13
 382 767 382 767 367.5 700.5 c 128,-1,14
 353 634 353 634 353 555 c 0,15,16
 353 520 353 520 356 482.5 c 128,-1,17
 359 445 359 445 368 400 c 128,-1,18
 377 355 377 355 393.5 300 c 128,-1,19
 410 245 410 245 438 175 c 1,20,-1
 821 175 l 1,0,1
50 -20 m 1,21,-1
 50 175 l 1,22,-1
 198 175 l 1,23,24
 126 362 126 362 126 549 c 0,25,26
 126 683 126 683 157 786.5 c 128,-1,27
 188 890 188 890 243 961 c 128,-1,28
 298 1032 298 1032 373 1068.5 c 128,-1,29
 448 1105 448 1105 536 1105 c 256,30,31
 624 1105 624 1105 693.5 1075.5 c 128,-1,32
 763 1046 763 1046 818 983 c 1,33,34
 818 1108 818 1108 818.5 1235.5 c 128,-1,35
 819 1363 819 1363 819 1485 c 1,36,-1
 1046 1485 l 1,37,-1
 1046 -20 l 1,38,-1
 50 -20 l 1,21,-1
EndSplineSet
Validated: 1
EndChar

StartChar: uniE039
Encoding: 57401 57401 61
Width: 1108
GlyphClass: 1
Flags: W
LayerCount: 2
Fore
SplineSet
574 223 m 1,0,1
 576 222 576 222 582 220 c 0,2,3
 588 218 588 218 591 217 c 0,4,5
 645 198 645 198 695 182 c 0,6,7
 745 166 745 166 780 167 c 0,8,9
 808 168 808 168 841 178 c 0,10,11
 874 188 874 188 908 207 c 0,12,13
 942 226 942 226 976 252 c 0,14,15
 1010 278 1010 278 1042 309 c 1,16,-1
 1042 71 l 1,17,18
 1006 44 1006 44 974 24 c 0,19,20
 942 4 942 4 910 -8 c 0,21,22
 877 -20 877 -20 841 -26 c 0,23,24
 805 -32 805 -32 762 -33 c 0,25,26
 728 -32 728 -32 702 -30 c 0,27,28
 676 -28 676 -28 646 -21 c 0,29,30
 616 -14 616 -14 580 -0 c 0,31,32
 543 14 543 14 489 34 c 0,33,34
 436 54 436 54 391 64 c 0,35,36
 346 74 346 74 315 75 c 0,37,38
 288 74 288 74 263 70 c 0,39,40
 238 66 238 66 208 51 c 0,41,42
 178 36 178 36 140 9 c 0,43,44
 102 -18 102 -18 50 -63 c 1,45,-1
 50 164 l 1,46,47
 164 275 164 275 331 275 c 2,48,-1
 342 275 l 1,49,-1
 343 276 l 2,50,51
 346 282 346 282 352 294 c 0,52,53
 358 306 358 306 366 314 c 0,54,55
 465 452 465 452 567 598 c 0,56,57
 669 744 669 744 768 883 c 1,58,-1
 767 881 l 1,59,60
 772 888 772 888 776 898 c 0,61,62
 777 903 777 903 782 908 c 0,63,64
 808 954 808 954 808 1015 c 0,65,66
 808 1068 808 1068 788 1116 c 0,67,68
 768 1164 768 1164 732 1202 c 0,69,70
 696 1240 696 1240 650 1262 c 0,71,72
 604 1284 604 1284 551 1284 c 0,73,74
 445 1284 445 1284 374 1204 c 0,75,76
 303 1124 303 1124 281 952 c 1,77,-1
 51 981 l 1,78,79
 64 1105 64 1105 102 1201 c 0,80,81
 140 1296 140 1296 204 1362 c 0,82,83
 267 1428 267 1428 353 1462 c 0,84,85
 439 1496 439 1496 548 1496 c 0,86,87
 660 1496 660 1496 751 1459 c 0,88,89
 842 1422 842 1422 906 1358 c 0,90,91
 970 1294 970 1294 1004 1210 c 0,92,93
 1038 1125 1038 1125 1039 1029 c 0,94,95
 1038 990 1038 990 1034 956 c 0,96,97
 1030 922 1030 922 1020 892 c 0,98,99
 1010 860 1010 860 992 828 c 0,100,101
 976 796 976 796 953 759 c 2,102,-1
 574 223 l 1,0,1
EndSplineSet
Validated: 33
EndChar

StartChar: uniE03A
Encoding: 57402 57402 62
Width: 1970
GlyphClass: 1
Flags: W
AnchorPoint: "TehtaBelow" 1010 -200 basechar 0
AnchorPoint: "TehtaAbove" 1010 1500 basechar 0
LayerCount: 2
Fore
SplineSet
668 175 m 1,0,1
 696 246 696 246 712.5 299.5 c 128,-1,2
 729 353 729 353 737.5 396.5 c 128,-1,3
 746 440 746 440 748.5 477.5 c 128,-1,4
 751 515 751 515 751 555 c 0,5,6
 751 634 751 634 736.5 700.5 c 128,-1,7
 722 767 722 767 695.5 815 c 128,-1,8
 669 863 669 863 632 889.5 c 128,-1,9
 595 916 595 916 550 916 c 0,10,11
 515 916 515 916 481 903.5 c 128,-1,12
 447 891 447 891 417 869 c 128,-1,13
 387 847 387 847 363 817 c 128,-1,14
 339 787 339 787 323 752 c 0,15,16
 273 649 273 649 273 467 c 0,17,18
 273 376 273 376 276.5 304.5 c 128,-1,19
 280 233 280 233 288 175 c 1,20,-1
 668 175 l 1,0,1
1307 175 m 1,21,22
 1334 246 1334 246 1350 298.5 c 128,-1,23
 1366 351 1366 351 1374.5 393.5 c 128,-1,24
 1383 436 1383 436 1385 474.5 c 128,-1,25
 1387 513 1387 513 1387 555 c 0,26,27
 1387 637 1387 637 1372.5 703.5 c 128,-1,28
 1358 770 1358 770 1331.5 817 c 128,-1,29
 1305 864 1305 864 1267 890 c 128,-1,30
 1229 916 1229 916 1183 916 c 0,31,32
 1136 916 1136 916 1098.5 890 c 128,-1,33
 1061 864 1061 864 1034 816 c 128,-1,34
 1007 768 1007 768 992.5 700.5 c 128,-1,35
 978 633 978 633 978 549 c 0,36,37
 978 364 978 364 907 175 c 1,38,-1
 1307 175 l 1,21,22
55 -18 m 1,39,-1
 55 1083 l 1,40,-1
 292 1083 l 1,41,-1
 292 984 l 1,42,43
 400 1105 400 1105 572 1105 c 0,44,45
 767 1105 767 1105 884 930 c 1,46,47
 941 1018 941 1018 1020 1061.5 c 128,-1,48
 1099 1105 1099 1105 1192 1105 c 0,49,50
 1295 1105 1295 1105 1374 1066.5 c 128,-1,51
 1453 1028 1453 1028 1507 956 c 128,-1,52
 1561 884 1561 884 1588.5 781 c 128,-1,53
 1616 678 1616 678 1616 549 c 0,54,55
 1616 363 1616 363 1543 175 c 1,56,-1
 1593 175 l 2,57,58
 1656 175 1656 175 1712.5 151 c 128,-1,59
 1769 127 1769 127 1811 85 c 128,-1,60
 1853 43 1853 43 1878 -13 c 128,-1,61
 1903 -69 1903 -69 1903 -133 c 256,62,63
 1903 -197 1903 -197 1878.5 -253.5 c 128,-1,64
 1854 -310 1854 -310 1812 -352.5 c 128,-1,65
 1770 -395 1770 -395 1713.5 -419.5 c 128,-1,66
 1657 -444 1657 -444 1593 -444 c 0,67,68
 1466 -444 1466 -444 1358 -336 c 1,69,-1
 1495 -198 l 1,70,71
 1546 -249 1546 -249 1593 -249 c 0,72,73
 1615 -249 1615 -249 1636 -240 c 128,-1,74
 1657 -231 1657 -231 1672.5 -215.5 c 128,-1,75
 1688 -200 1688 -200 1697.5 -179 c 128,-1,76
 1707 -158 1707 -158 1707 -134 c 0,77,78
 1707 -111 1707 -111 1698 -90.5 c 128,-1,79
 1689 -70 1689 -70 1674 -54 c 128,-1,80
 1659 -38 1659 -38 1638 -29 c 128,-1,81
 1617 -20 1617 -20 1593 -20 c 2,82,-1
 55 -18 l 1,39,-1
EndSplineSet
Validated: 1
EndChar

StartChar: uniE03B
Encoding: 57403 57403 63
Width: 1333
GlyphClass: 1
Flags: W
AnchorPoint: "TehtaBelow" 670 -200 basechar 0
AnchorPoint: "TehtaAbove" 670 1500 basechar 0
LayerCount: 2
Fore
SplineSet
267 -18 m 1,0,-1
 54 -18 l 1,1,-1
 54 1083 l 1,2,-1
 290 1083 l 1,3,-1
 291 984 l 1,4,5
 399 1105 399 1105 574 1105 c 0,6,7
 662 1105 662 1105 737 1068.5 c 128,-1,8
 812 1032 812 1032 867 961 c 128,-1,9
 922 890 922 890 953 786.5 c 128,-1,10
 984 683 984 683 984 549 c 0,11,12
 984 365 984 365 911 175 c 1,13,-1
 960 175 l 2,14,15
 1021 175 1021 175 1077 152 c 128,-1,16
 1133 129 1133 129 1176 88 c 128,-1,17
 1219 47 1219 47 1244.5 -9.5 c 128,-1,18
 1270 -66 1270 -66 1270 -133 c 0,19,20
 1270 -197 1270 -197 1246 -253.5 c 128,-1,21
 1222 -310 1222 -310 1180 -352.5 c 128,-1,22
 1138 -395 1138 -395 1081.5 -419.5 c 128,-1,23
 1025 -444 1025 -444 960 -444 c 0,24,25
 832 -444 832 -444 726 -336 c 1,26,-1
 863 -198 l 1,27,28
 914 -249 914 -249 961 -249 c 0,29,30
 985 -249 985 -249 1006 -239.5 c 128,-1,31
 1027 -230 1027 -230 1042 -214 c 128,-1,32
 1057 -198 1057 -198 1066 -177.5 c 128,-1,33
 1075 -157 1075 -157 1075 -134 c 0,34,35
 1075 -113 1075 -113 1066.5 -92.5 c 128,-1,36
 1058 -72 1058 -72 1043 -56 c 128,-1,37
 1028 -40 1028 -40 1007 -30 c 128,-1,38
 986 -20 986 -20 961 -20 c 2,39,-1
 267 -18 l 1,0,-1
672 175 m 1,40,41
 695 233 695 233 709.5 276.5 c 128,-1,42
 724 320 724 320 731 351 c 1,43,-1
 730 350 l 1,44,45
 744 413 744 413 750.5 462.5 c 128,-1,46
 757 512 757 512 757 555 c 0,47,48
 757 634 757 634 742.5 700.5 c 128,-1,49
 728 767 728 767 701 815 c 128,-1,50
 674 863 674 863 636 889.5 c 128,-1,51
 598 916 598 916 552 916 c 0,52,53
 515 916 515 916 480.5 903.5 c 128,-1,54
 446 891 446 891 416 869 c 128,-1,55
 386 847 386 847 362 817 c 128,-1,56
 338 787 338 787 322 753 c 0,57,58
 271 643 271 643 271 468 c 0,59,60
 271 374 271 374 275 304 c 128,-1,61
 279 234 279 234 287 175 c 1,62,-1
 672 175 l 1,40,41
EndSplineSet
Validated: 1
EndChar

StartChar: uniE03C
Encoding: 57404 57404 64
Width: 1140
GlyphClass: 1
Flags: W
AnchorPoint: "TehtaAbove" 640 1500 basechar 0
AnchorPoint: "TehtaBelow" 1040 -200 basechar 0
LayerCount: 2
Fore
SplineSet
474 76 m 1,0,1
 420 250 420 250 368 421 c 128,-1,2
 316 592 316 592 263 763 c 0,3,4
 209 937 209 937 152 1122.5 c 128,-1,5
 95 1308 95 1308 41 1485 c 1,6,-1
 277 1485 l 1,7,-1
 624 347 l 1,8,9
 679 444 679 444 730.5 538 c 128,-1,10
 782 632 782 632 834 732 c 0,11,12
 842 745 842 745 842 771 c 0,13,14
 842 795 842 795 832.5 816 c 128,-1,15
 823 837 823 837 807 852.5 c 128,-1,16
 791 868 791 868 770.5 877 c 128,-1,17
 750 886 750 886 728 886 c 2,18,-1
 471 886 l 1,19,-1
 471 1081 l 1,20,-1
 764 1081 l 2,21,22
 827 1081 827 1081 883 1057 c 128,-1,23
 939 1033 939 1033 981.5 991 c 128,-1,24
 1024 949 1024 949 1049 892 c 128,-1,25
 1074 835 1074 835 1074 770 c 0,26,27
 1074 704 1074 704 1053 655 c 1,28,-1
 455 -426 l 1,29,-1
 203 -426 l 1,30,-1
 474 76 l 1,0,1
EndSplineSet
Validated: 1
EndChar

StartChar: uniE03D
Encoding: 57405 57405 65
Width: 1337
GlyphClass: 1
Flags: W
AnchorPoint: "TehtaAbove" 651 1500 basechar 0
AnchorPoint: "TehtaBelow" 651 -200 basechar 0
LayerCount: 2
Fore
SplineSet
282 506 m 0,0,1
 282 412 282 412 304 341 c 128,-1,2
 326 270 326 270 364.5 222 c 128,-1,3
 403 174 403 174 455 150 c 128,-1,4
 507 126 507 126 568 126 c 0,5,6
 627 126 627 126 679 148.5 c 128,-1,7
 731 171 731 171 770 218.5 c 128,-1,8
 809 266 809 266 831.5 338.5 c 128,-1,9
 854 411 854 411 854 512 c 0,10,11
 854 603 854 603 831.5 672.5 c 128,-1,12
 809 742 809 742 770.5 789.5 c 128,-1,13
 732 837 732 837 680 861 c 128,-1,14
 628 885 628 885 568 885 c 0,15,16
 507 885 507 885 455 860.5 c 128,-1,17
 403 836 403 836 364.5 788.5 c 128,-1,18
 326 741 326 741 304 670 c 128,-1,19
 282 599 282 599 282 506 c 0,0,1
735 -43 m 1,20,21
 697 -56 697 -56 654.5 -62 c 128,-1,22
 612 -68 612 -68 568 -68 c 0,23,24
 452 -68 452 -68 356.5 -30 c 128,-1,25
 261 8 261 8 193 81 c 128,-1,26
 125 154 125 154 87.5 261 c 128,-1,27
 50 368 50 368 50 506 c 256,28,29
 50 644 50 644 88 751 c 128,-1,30
 126 858 126 858 194 931.5 c 128,-1,31
 262 1005 262 1005 357.5 1043 c 128,-1,32
 453 1081 453 1081 568 1081 c 0,33,34
 679 1081 679 1081 773.5 1043.5 c 128,-1,35
 868 1006 868 1006 937.5 934.5 c 128,-1,36
 1007 863 1007 863 1046 759 c 128,-1,37
 1085 655 1085 655 1085 521 c 0,38,39
 1085 408 1085 408 1068 325.5 c 128,-1,40
 1051 243 1051 243 1015 178 c 1,41,42
 1061 172 1061 172 1107 156.5 c 128,-1,43
 1153 141 1153 141 1189 107 c 128,-1,44
 1225 73 1225 73 1247.5 16 c 128,-1,45
 1270 -41 1270 -41 1270 -131 c 0,46,47
 1270 -176 1270 -176 1264.5 -224.5 c 128,-1,48
 1259 -273 1259 -273 1247 -327 c 1,49,-1
 1109 -299 l 1,50,51
 1116 -260 1116 -260 1119 -227.5 c 128,-1,52
 1122 -195 1122 -195 1122 -166 c 0,53,54
 1122 -140 1122 -140 1118.5 -117.5 c 128,-1,55
 1115 -95 1115 -95 1101 -78.5 c 128,-1,56
 1087 -62 1087 -62 1059 -52.5 c 128,-1,57
 1031 -43 1031 -43 983 -43 c 2,58,-1
 735 -43 l 1,20,21
EndSplineSet
Validated: 1
EndChar

StartChar: uniE040
Encoding: 57408 57408 66
Width: 0
Flags: W
AnchorPoint: "mkmk_up" -500 1500 mark 0
AnchorPoint: "mkmk_up" -500 1800 basemark 0
AnchorPoint: "TehtaAbove" -500 1500 mark 0
LayerCount: 2
Fore
SplineSet
-648 1420 m 1,0,-1
 -648 1626 l 1,1,-1
 -442 1626 l 1,2,-1
 -442 1420 l 1,3,-1
 -648 1420 l 1,0,-1
-436 1229 m 1,4,-1
 -436 1434 l 1,5,-1
 -230 1434 l 1,6,-1
 -230 1229 l 1,7,-1
 -436 1229 l 1,4,-1
-860 1229 m 1,8,-1
 -860 1434 l 1,9,-1
 -654 1434 l 1,10,-1
 -654 1229 l 1,11,-1
 -860 1229 l 1,8,-1
EndSplineSet
Validated: 1
EndChar

StartChar: uniE041
Encoding: 57409 57409 67
Width: 0
Flags: W
AnchorPoint: "mkmk_down" -500 -200 mark 0
AnchorPoint: "mkmk_down" -500 -500 basemark 0
AnchorPoint: "TehtaBelow" -500 -200 mark 0
LayerCount: 2
Fore
SplineSet
-230 -46 m 1,0,-1
 -230 -252 l 1,1,-1
 -436 -252 l 1,2,-1
 -436 -46 l 1,3,-1
 -230 -46 l 1,0,-1
-654 -46 m 1,4,-1
 -654 -252 l 1,5,-1
 -860 -252 l 1,6,-1
 -860 -46 l 1,7,-1
 -654 -46 l 1,4,-1
-442 -238 m 1,8,-1
 -442 -444 l 1,9,-1
 -648 -444 l 1,10,-1
 -648 -238 l 1,11,-1
 -442 -238 l 1,8,-1
EndSplineSet
Validated: 1
EndChar

StartChar: uniE042
Encoding: 57410 57410 68
Width: 0
Flags: W
AnchorPoint: "mkmk_up" -500 1800 basemark 0
AnchorPoint: "mkmk_up" -500 1500 mark 0
AnchorPoint: "TehtaAbove" -500 1500 mark 0
LayerCount: 2
Fore
SplineSet
-476 1301 m 1,0,-1
 -476 1552 l 1,1,-1
 -241 1552 l 1,2,-1
 -241 1301 l 1,3,-1
 -476 1301 l 1,0,-1
-846 1301 m 1,4,-1
 -846 1552 l 1,5,-1
 -611 1552 l 1,6,-1
 -611 1301 l 1,7,-1
 -846 1301 l 1,4,-1
EndSplineSet
Validated: 1
Ligature2: "Ligatures subtable" uniE044 uniE044
LCarets2: 1 0
EndChar

StartChar: uniE043
Encoding: 57411 57411 69
Width: 0
Flags: W
AnchorPoint: "mkmk_down" -500 -500 basemark 0
AnchorPoint: "mkmk_down" -500 -200 mark 0
AnchorPoint: "TehtaBelow" -500 -200 mark 0
LayerCount: 2
Fore
SplineSet
-846 -426 m 1,0,-1
 -846 -175 l 1,1,-1
 -611 -175 l 1,2,-1
 -611 -426 l 1,3,-1
 -846 -426 l 1,0,-1
-476 -426 m 1,4,-1
 -476 -175 l 1,5,-1
 -241 -175 l 1,6,-1
 -241 -426 l 1,7,-1
 -476 -426 l 1,4,-1
EndSplineSet
Validated: 1
Ligature2: "Ligatures subtable" uniE045 uniE045
LCarets2: 1 0
EndChar

StartChar: uniE044
Encoding: 57412 57412 70
Width: 0
Flags: W
AnchorPoint: "mkmk_up" -500 1500 mark 0
AnchorPoint: "mkmk_up" -500 1800 basemark 0
AnchorPoint: "TehtaAbove" -500 1500 mark 0
LayerCount: 2
Fore
SplineSet
-660 1300 m 1,0,-1
 -660 1551 l 1,1,-1
 -426 1551 l 1,2,-1
 -426 1300 l 1,3,-1
 -660 1300 l 1,0,-1
EndSplineSet
Validated: 1
EndChar

StartChar: uniE045
Encoding: 57413 57413 71
Width: 0
Flags: W
AnchorPoint: "mkmk_down" -500 -500 basemark 0
AnchorPoint: "mkmk_down" -500 -200 mark 0
AnchorPoint: "TehtaBelow" -500 -200 mark 0
LayerCount: 2
Fore
SplineSet
-428 -175 m 1,0,-1
 -428 -426 l 1,1,-1
 -662 -426 l 1,2,-1
 -662 -175 l 1,3,-1
 -428 -175 l 1,0,-1
EndSplineSet
Validated: 1
EndChar

StartChar: uniE046
Encoding: 57414 57414 72
Width: 0
Flags: W
AnchorPoint: "mkmk_up" -500 1500 mark 0
AnchorPoint: "mkmk_up" -500 1800 basemark 0
AnchorPoint: "TehtaAbove" -500 1500 mark 0
LayerCount: 2
Fore
SplineSet
-253 1591 m 1,0,-1
 -510 1264 l 1,1,-1
 -707 1264 l 1,2,-1
 -552 1591 l 1,3,-1
 -253 1591 l 1,0,-1
EndSplineSet
Validated: 1
EndChar

StartChar: uniE047
Encoding: 57415 57415 73
Width: 0
Flags: W
AnchorPoint: "mkmk_down" -500 -500 basemark 0
AnchorPoint: "mkmk_down" -500 -200 mark 0
AnchorPoint: "TehtaBelow" -500 -200 mark 0
LayerCount: 2
Fore
SplineSet
-830 -444 m 1,0,-1
 -573 -117 l 1,1,-1
 -376 -117 l 1,2,-1
 -531 -444 l 1,3,-1
 -830 -444 l 1,0,-1
EndSplineSet
Validated: 1
EndChar

StartChar: uniE048
Encoding: 57416 57416 74
Width: 0
Flags: W
AnchorPoint: "mkmk_up" -500 1500 mark 0
AnchorPoint: "mkmk_up" -500 1800 basemark 0
AnchorPoint: "TehtaAbove" -500 1500 mark 0
LayerCount: 2
Fore
SplineSet
-88 1590 m 1,0,-1
 -345 1263 l 1,1,-1
 -542 1263 l 1,2,-1
 -387 1590 l 1,3,-1
 -88 1590 l 1,0,-1
-424 1590 m 1,4,-1
 -681 1263 l 1,5,-1
 -878 1263 l 1,6,-1
 -723 1590 l 1,7,-1
 -424 1590 l 1,4,-1
EndSplineSet
Validated: 1
Ligature2: "Ligatures subtable" uniE046 uniE046
LCarets2: 1 0
EndChar

StartChar: uniE049
Encoding: 57417 57417 75
Width: 0
Flags: W
AnchorPoint: "mkmk_down" -500 -500 basemark 0
AnchorPoint: "mkmk_down" -500 -200 mark 0
AnchorPoint: "TehtaBelow" -500 -200 mark 0
LayerCount: 2
Fore
SplineSet
-665 -444 m 1,0,-1
 -408 -117 l 1,1,-1
 -211 -117 l 1,2,-1
 -366 -444 l 1,3,-1
 -665 -444 l 1,0,-1
-1001 -444 m 1,4,-1
 -744 -117 l 1,5,-1
 -547 -117 l 1,6,-1
 -702 -444 l 1,7,-1
 -1001 -444 l 1,4,-1
EndSplineSet
Validated: 1
Ligature2: "Ligatures subtable" uniE047 uniE047
LCarets2: 1 0
EndChar

StartChar: uniE04A
Encoding: 57418 57418 76
Width: 0
Flags: W
AnchorPoint: "mkmk_up" -500 1500 mark 0
AnchorPoint: "mkmk_up" -500 1800 basemark 0
AnchorPoint: "TehtaAbove" -500 1500 mark 0
LayerCount: 2
Fore
SplineSet
-285 1399 m 1,0,1
 -285 1446 -285 1446 -290 1481.5 c 128,-1,2
 -295 1517 -295 1517 -310 1532 c 0,3,4
 -321 1543 -321 1543 -336.5 1545 c 128,-1,5
 -352 1547 -352 1547 -367 1542 c 1,6,-1
 -365 1542 l 1,7,8
 -388 1531 -388 1531 -428 1491 c 2,9,-1
 -712 1204 l 1,10,-1
 -824 1317 l 1,11,-1
 -468 1672 l 2,12,13
 -431 1705 -431 1705 -393.5 1719.5 c 128,-1,14
 -356 1734 -356 1734 -321.5 1733 c 128,-1,15
 -287 1732 -287 1732 -257 1717 c 128,-1,16
 -227 1702 -227 1702 -202 1677 c 0,17,18
 -184 1659 -184 1659 -171 1635 c 128,-1,19
 -158 1611 -158 1611 -148.5 1583.5 c 128,-1,20
 -139 1556 -139 1556 -133 1527 c 128,-1,21
 -127 1498 -127 1498 -124 1469 c 1,22,-1
 -285 1399 l 1,0,1
EndSplineSet
Validated: 33
EndChar

StartChar: uniE04B
Encoding: 57419 57419 77
Width: 0
Flags: W
AnchorPoint: "TehtaBelow" -500 -200 mark 0
AnchorPoint: "mkmk_down" -500 -500 basemark 0
AnchorPoint: "mkmk_down" -500 -200 mark 0
LayerCount: 2
Fore
SplineSet
-670 -551 m 1,0,1
 -728 -527 -728 -527 -778.5 -495 c 128,-1,2
 -829 -463 -829 -463 -852 -424 c 0,3,4
 -870 -393 -870 -393 -876 -359.5 c 128,-1,5
 -882 -326 -882 -326 -873.5 -292.5 c 128,-1,6
 -865 -259 -865 -259 -842 -226.5 c 128,-1,7
 -819 -194 -819 -194 -779 -166 c 1,8,-1
 -341 87 l 1,9,-1
 -262 -50 l 1,10,-1
 -612 -251 l 2,11,12
 -667 -283 -667 -283 -683.5 -305 c 128,-1,13
 -700 -327 -700 -327 -685 -353 c 0,14,15
 -667 -385 -667 -385 -561 -414 c 1,16,-1
 -670 -551 l 1,0,1
EndSplineSet
Validated: 33
EndChar

StartChar: uniE04C
Encoding: 57420 57420 78
Width: 0
Flags: W
AnchorPoint: "mkmk_up" -500 1500 mark 0
AnchorPoint: "mkmk_up" -500 1800 basemark 0
AnchorPoint: "TehtaAbove" -500 1500 mark 0
LayerCount: 2
Fore
SplineSet
-418 1826 m 5,0,1
 -389 1814 -389 1814 -361.5 1799 c 132,-1,2
 -334 1784 -334 1784 -310.5 1768 c 132,-1,3
 -287 1752 -287 1752 -268 1733.5 c 132,-1,4
 -249 1715 -249 1715 -238 1696 c 4,5,6
 -222 1667 -222 1667 -215 1634.5 c 132,-1,7
 -208 1602 -208 1602 -215.5 1569 c 132,-1,8
 -223 1536 -223 1536 -245.5 1503 c 132,-1,9
 -268 1470 -268 1470 -310 1441 c 5,10,-1
 -750 1188 l 5,11,-1
 -829 1325 l 5,12,-1
 -478 1526 l 6,13,14
 -453 1540 -453 1540 -437 1551.5 c 132,-1,15
 -421 1563 -421 1563 -413 1573 c 132,-1,16
 -405 1583 -405 1583 -402.5 1592 c 132,-1,17
 -400 1601 -400 1601 -400 1611 c 4,18,19
 -402 1616 -402 1616 -403.5 1620.5 c 132,-1,20
 -405 1625 -405 1625 -406 1627 c 4,21,22
 -411 1636 -411 1636 -423 1646 c 5,23,-1
 -422 1646 l 5,24,25
 -437 1656 -437 1656 -463.5 1666.5 c 132,-1,26
 -490 1677 -490 1677 -531 1688 c 5,27,-1
 -418 1826 l 5,0,1
EndSplineSet
Validated: 33
EndChar

StartChar: uniE04D
Encoding: 57421 57421 79
Width: 0
Flags: W
AnchorPoint: "mkmk_down" -500 -500 basemark 0
AnchorPoint: "mkmk_down" -500 -200 mark 0
AnchorPoint: "TehtaBelow" -500 -200 mark 0
LayerCount: 2
Fore
SplineSet
-686 -165 m 1,0,1
 -700 -210 -700 -210 -704 -246.5 c 128,-1,2
 -708 -283 -708 -283 -698 -300 c 0,3,4
 -684 -325 -684 -325 -656.5 -324.5 c 128,-1,5
 -629 -324 -629 -324 -583 -296 c 2,6,-1
 -226 -87 l 1,7,-1
 -146 -225 l 1,8,-1
 -583 -479 l 1,9,10
 -629 -501 -629 -501 -668.5 -504 c 128,-1,11
 -708 -507 -708 -507 -740.5 -497 c 128,-1,12
 -773 -487 -773 -487 -798.5 -465 c 128,-1,13
 -824 -443 -824 -443 -841 -413 c 0,14,15
 -853 -393 -853 -393 -859.5 -366 c 128,-1,16
 -866 -339 -866 -339 -868 -309.5 c 128,-1,17
 -870 -280 -870 -280 -868 -250 c 128,-1,18
 -866 -220 -866 -220 -862 -191 c 1,19,-1
 -686 -165 l 1,0,1
EndSplineSet
Validated: 33
EndChar

StartChar: bar_above
Encoding: 57424 57424 80
Width: 0
Flags: W
AnchorPoint: "mkmk_up" -500 1500 mark 0
AnchorPoint: "mkmk_up" -500 1700 basemark 0
AnchorPoint: "TehtaAbove" -500 1500 mark 0
LayerCount: 2
Fore
SplineSet
-210 1223 m 1,0,-1
 -880 1223 l 1,1,-1
 -880 1410 l 1,2,-1
 -210 1410 l 1,3,-1
 -210 1223 l 1,0,-1
EndSplineSet
Validated: 1
Substitution2: "Single Substitution lookup 8 subtable" bar_above_narrow
Substitution2: "Single Substitution lookup 7 subtable" bar_above_narrow
Substitution2: "Single Substitution lookup 6 subtable" bar_above_narrow
Substitution2: "Single Substitution lookup 5 subtable" bar_above_narrow
Substitution2: "Single Substitution lookup 4 subtable" bar_above_wide
Substitution2: "Single Substitution lookup 3 subtable" bar_above_wide
Substitution2: "Single Substitution lookup 2 subtable" bar_above_wide
Substitution2: "Single Substitution lookup 1 subtable" bar_above_wide
EndChar

StartChar: bar_below
Encoding: 57425 57425 81
Width: 0
Flags: W
AnchorPoint: "mkmk_down" -500 -500 basemark 0
AnchorPoint: "mkmk_down" -500 -200 mark 0
AnchorPoint: "TehtaBelow" -500 -200 mark 0
LayerCount: 2
Fore
SplineSet
-210 -346 m 1,0,-1
 -880 -346 l 1,1,-1
 -880 -159 l 1,2,-1
 -210 -159 l 1,3,-1
 -210 -346 l 1,0,-1
EndSplineSet
Validated: 1
Substitution2: "Single Substitution lookup 13 subtable" lambe_bar_below
Substitution2: "Single Substitution lookup 12 subtable" lambe_bar_below
Substitution2: "Single Substitution lookup 11 subtable" lambe_bar_below
Substitution2: "Single Substitution lookup 10 subtable" lambe_bar_below
Substitution2: "Single Substitution lookup 8 subtable" bar_below_narrow
Substitution2: "Single Substitution lookup 7 subtable" bar_below_narrow
Substitution2: "Single Substitution lookup 6 subtable" bar_below_narrow
Substitution2: "Single Substitution lookup 5 subtable" bar_below_narrow
Substitution2: "Single Substitution lookup 4 subtable" bar_below_wide
Substitution2: "Single Substitution lookup 3 subtable" bar_below_wide
Substitution2: "Single Substitution lookup 2 subtable" bar_below_wide
Substitution2: "Single Substitution lookup 1 subtable" bar_below_wide
EndChar

StartChar: uniE052
Encoding: 57426 57426 82
Width: 0
Flags: W
AnchorPoint: "mkmk_up" -500 1500 mark 0
AnchorPoint: "mkmk_up" -500 1800 basemark 0
AnchorPoint: "TehtaAbove" -500 1500 mark 0
LayerCount: 2
Fore
SplineSet
-731 1564 m 1,0,1
 -722 1471 -722 1471 -674 1471 c 0,2,3
 -633 1471 -633 1471 -565 1514 c 0,4,5
 -523 1540 -523 1540 -484.5 1552 c 128,-1,6
 -446 1564 -446 1564 -412 1564 c 0,7,8
 -368 1564 -368 1564 -327.5 1547.5 c 128,-1,9
 -287 1531 -287 1531 -255.5 1497.5 c 128,-1,10
 -224 1464 -224 1464 -205.5 1412.5 c 128,-1,11
 -187 1361 -187 1361 -187 1291 c 1,12,-1
 -356 1291 l 1,13,14
 -361 1384 -361 1384 -418 1384 c 0,15,16
 -455 1384 -455 1384 -517 1344 c 0,17,18
 -543 1328 -543 1328 -560.5 1318 c 128,-1,19
 -578 1308 -578 1308 -595 1302 c 128,-1,20
 -612 1296 -612 1296 -631.5 1293.5 c 128,-1,21
 -651 1291 -651 1291 -680 1291 c 0,22,23
 -725 1291 -725 1291 -765 1307.5 c 128,-1,24
 -805 1324 -805 1324 -835 1358 c 128,-1,25
 -865 1392 -865 1392 -882 1443.5 c 128,-1,26
 -899 1495 -899 1495 -899 1564 c 1,27,-1
 -731 1564 l 1,0,1
EndSplineSet
Validated: 1
EndChar

StartChar: uniE053
Encoding: 57427 57427 83
Width: 0
Flags: W
AnchorPoint: "mkmk_up" -500 1500 mark 0
AnchorPoint: "mkmk_up" -500 1800 basemark 0
AnchorPoint: "TehtaAbove" -500 1500 mark 0
LayerCount: 2
Fore
SplineSet
-224 1574 m 5,0,1
 -232 1495 -232 1495 -261 1437.5 c 132,-1,2
 -290 1380 -290 1380 -333 1342.5 c 132,-1,3
 -376 1305 -376 1305 -430.5 1286.5 c 132,-1,4
 -485 1268 -485 1268 -543 1268 c 4,5,6
 -600 1268 -600 1268 -653.5 1284.5 c 132,-1,7
 -707 1301 -707 1301 -751 1337.5 c 132,-1,8
 -795 1374 -795 1374 -825 1432 c 132,-1,9
 -855 1490 -855 1490 -864 1574 c 5,10,-1
 -696 1574 l 5,11,12
 -683 1508 -683 1508 -647.5 1473.5 c 132,-1,13
 -612 1439 -612 1439 -549 1439 c 4,14,15
 -483 1439 -483 1439 -444.5 1473.5 c 132,-1,16
 -406 1508 -406 1508 -392 1574 c 5,17,-1
 -224 1574 l 5,0,1
EndSplineSet
Validated: 1
EndChar

StartChar: uniE054
Encoding: 57428 57428 84
Width: 0
Flags: W
AnchorPoint: "mkmk_up" -500 1500 mark 0
AnchorPoint: "mkmk_up" -500 1800 basemark 0
AnchorPoint: "TehtaAbove" -500 1500 mark 0
LayerCount: 2
Fore
SplineSet
-385 1263 m 1,0,-1
 -582 1263 l 1,1,-1
 -839 1590 l 1,2,-1
 -540 1590 l 1,3,-1
 -385 1263 l 1,0,-1
EndSplineSet
Validated: 1
EndChar

StartChar: uniE055
Encoding: 57429 57429 85
Width: 0
Flags: W
AnchorPoint: "mkmk_up" -500 1500 mark 0
AnchorPoint: "mkmk_up" -500 1800 basemark 0
AnchorPoint: "TehtaAbove" -500 1500 mark 0
LayerCount: 2
Fore
SplineSet
-176 1262 m 1,0,-1
 -445 1262 l 1,1,-1
 -540 1413 l 1,2,3
 -551 1398 -551 1398 -560 1383.5 c 128,-1,4
 -569 1369 -569 1369 -579 1354 c 0,5,6
 -593 1333 -593 1333 -610 1308 c 128,-1,7
 -627 1283 -627 1283 -641 1262 c 1,8,-1
 -906 1262 l 1,9,-1
 -652 1589 l 1,10,-1
 -440 1589 l 1,11,-1
 -176 1262 l 1,0,-1
EndSplineSet
Validated: 1
EndChar

StartChar: uniE056
Encoding: 57430 57430 86
Width: 0
Flags: W
AnchorPoint: "mkmk_up" -500 1500 mark 0
AnchorPoint: "mkmk_up" -500 1800 basemark 0
AnchorPoint: "TehtaAbove" -500 1500 mark 0
LayerCount: 2
Fore
SplineSet
-440 1432 m 1,0,-1
 -440 1227 l 1,1,-1
 -646 1227 l 1,2,-1
 -646 1432 l 1,3,-1
 -440 1432 l 1,0,-1
-652 1624 m 1,4,-1
 -652 1418 l 1,5,-1
 -858 1418 l 1,6,-1
 -858 1624 l 1,7,-1
 -652 1624 l 1,4,-1
-228 1624 m 1,8,-1
 -228 1418 l 1,9,-1
 -434 1418 l 1,10,-1
 -434 1624 l 1,11,-1
 -228 1624 l 1,8,-1
EndSplineSet
Validated: 1
EndChar

StartChar: uniE057
Encoding: 57431 57431 87
Width: 0
GlyphClass: 1
Flags: W
AnchorPoint: "mkmk_down" -500 -200 mark 0
AnchorPoint: "mkmk_down" -500 -500 basemark 0
AnchorPoint: "TehtaBelow" -500 -200 mark 0
LayerCount: 2
Fore
SplineSet
-461 -444 m 1,0,-1
 -630 -444 l 1,1,-1
 -630 -91 l 1,2,-1
 -461 -91 l 1,3,-1
 -461 -444 l 1,0,-1
EndSplineSet
Validated: 1
Ligature2: "Ligatures subtable" zwj uniE02C
LCarets2: 1 0
EndChar

StartChar: uniE058
Encoding: 57432 57432 88
Width: 378
GlyphClass: 2
Flags: W
AnchorPoint: "TehtaBelow" 228 -500 basechar 0
AnchorPoint: "TehtaAbove" 178 600 basechar 0
LayerCount: 2
Fore
SplineSet
214 -352 m 0,0,1
 189 -375 189 -375 180 -423 c 1,2,-1
 -15 -448 l 1,3,4
 -9 -299 -9 -299 76 -214 c 0,5,6
 110 -180 110 -180 110 -134 c 0,7,8
 110 -112 110 -112 101 -91 c 128,-1,9
 92 -70 92 -70 77 -54 c 128,-1,10
 62 -38 62 -38 41 -30 c 0,11,12
 20 -20 20 -20 -4 -20 c 2,13,-1
 -131 -20 l 1,14,-1
 -131 175 l 1,15,-1
 -5 175 l 2,16,17
 58 175 58 175 114 151 c 128,-1,18
 170 127 170 127 213 85 c 128,-1,19
 256 43 256 43 281 -13 c 128,-1,20
 306 -69 306 -69 306 -133 c 0,21,22
 306 -260 306 -260 214 -352 c 0,0,1
EndSplineSet
EndChar

StartChar: uniE059
Encoding: 57433 57433 89
Width: 0
Flags: W
AnchorPoint: "TehtaBelow" -500 -200 mark 0
AnchorPoint: "mkmk_down" -500 -500 basemark 0
AnchorPoint: "mkmk_down" -500 -200 mark 0
LayerCount: 2
Fore
SplineSet
-670 -551 m 1,0,1
 -728 -527 -728 -527 -778.5 -495 c 128,-1,2
 -829 -463 -829 -463 -852 -424 c 0,3,4
 -870 -393 -870 -393 -876 -359.5 c 128,-1,5
 -882 -326 -882 -326 -873.5 -292.5 c 128,-1,6
 -865 -259 -865 -259 -842 -226.5 c 128,-1,7
 -819 -194 -819 -194 -779 -166 c 1,8,-1
 -341 87 l 1,9,-1
 -262 -50 l 1,10,-1
 -612 -251 l 2,11,12
 -667 -283 -667 -283 -683.5 -305 c 128,-1,13
 -700 -327 -700 -327 -685 -353 c 0,14,15
 -667 -385 -667 -385 -561 -414 c 1,16,-1
 -670 -551 l 1,0,1
EndSplineSet
Validated: 33
Substitution2: "Single Substitution lookup 18 subtable" lambe_xhook
Substitution2: "Single Substitution lookup 17 subtable" lambe_xhook
Substitution2: "Single Substitution lookup 16 subtable" lambe_xhook
Substitution2: "Single Substitution lookup 15 subtable" lambe_xhook
EndChar

StartChar: uniE05A
Encoding: 57434 57434 90
Width: 0
GlyphClass: 1
Flags: W
LayerCount: 2
Fore
SplineSet
-549 691 m 0,0,1
 -534 691 -534 691 -524.5 683 c 128,-1,2
 -515 675 -515 675 -496 656 c 0,3,4
 -484 644 -484 644 -465.5 625.5 c 128,-1,5
 -447 607 -447 607 -418 581 c 0,6,7
 -407 570 -407 570 -399.5 556 c 128,-1,8
 -392 542 -392 542 -391 534 c 0,9,10
 -391 516 -391 516 -402 499 c 128,-1,11
 -413 482 -413 482 -447 452 c 1,12,-1
 -446 452 l 1,13,14
 -457 442 -457 442 -465.5 434 c 128,-1,15
 -474 426 -474 426 -482 418 c 0,16,17
 -501 399 -501 399 -516 386 c 128,-1,18
 -531 373 -531 373 -548 373 c 256,19,20
 -565 373 -565 373 -578.5 383.5 c 128,-1,21
 -592 394 -592 394 -617 419 c 0,22,23
 -639 442 -639 442 -681 483 c 1,24,-1
 -680 482 l 1,25,26
 -708 506 -708 506 -708 533 c 0,27,28
 -708 540 -708 540 -702.5 550 c 128,-1,29
 -697 560 -697 560 -688 571.5 c 128,-1,30
 -679 583 -679 583 -668 594.5 c 128,-1,31
 -657 606 -657 606 -646 616 c 2,32,-1
 -594 668 l 2,33,34
 -580 682 -580 682 -570 686.5 c 128,-1,35
 -560 691 -560 691 -549 691 c 0,0,1
EndSplineSet
Validated: 1
EndChar

StartChar: uniE060
Encoding: 57440 57440 91
Width: 361
GlyphClass: 1
Flags: W
LayerCount: 2
Fore
SplineSet
300 656 m 1,0,-1
 300 405 l 1,1,-1
 48 405 l 1,2,-1
 48 656 l 1,3,-1
 300 656 l 1,0,-1
EndSplineSet
Validated: 1
EndChar

StartChar: uniE061
Encoding: 57441 57441 92
Width: 361
GlyphClass: 1
Flags: W
LayerCount: 2
Fore
SplineSet
300 444 m 1,0,-1
 300 192 l 1,1,-1
 48 192 l 1,2,-1
 48 444 l 1,3,-1
 300 444 l 1,0,-1
300 869 m 1,4,-1
 300 617 l 1,5,-1
 48 617 l 1,6,-1
 48 869 l 1,7,-1
 300 869 l 1,4,-1
EndSplineSet
Validated: 1
EndChar

StartChar: uniE062
Encoding: 57442 57442 93
Width: 361
GlyphClass: 1
Flags: W
LayerCount: 2
Fore
SplineSet
300 1081 m 1,0,-1
 300 830 l 1,1,-1
 48 830 l 1,2,-1
 48 1081 l 1,3,-1
 300 1081 l 1,0,-1
300 231 m 1,4,-1
 300 -20 l 1,5,-1
 48 -20 l 1,6,-1
 48 231 l 1,7,-1
 300 231 l 1,4,-1
300 656 m 1,8,-1
 300 405 l 1,9,-1
 48 405 l 1,10,-1
 48 656 l 1,11,-1
 300 656 l 1,8,-1
EndSplineSet
Validated: 1
EndChar

StartChar: uniE063
Encoding: 57443 57443 94
Width: 945
GlyphClass: 1
Flags: W
LayerCount: 2
Fore
SplineSet
49 656 m 1,0,-1
 301 656 l 1,1,-1
 301 405 l 1,2,-1
 49 405 l 1,3,-1
 49 656 l 1,0,-1
629 656 m 1,4,-1
 880 656 l 1,5,-1
 880 405 l 1,6,-1
 629 405 l 1,7,-1
 629 656 l 1,4,-1
590 395 m 1,8,-1
 590 144 l 1,9,-1
 339 144 l 1,10,-1
 339 395 l 1,11,-1
 590 395 l 1,8,-1
590 917 m 1,12,-1
 590 666 l 1,13,-1
 339 666 l 1,14,-1
 339 917 l 1,15,-1
 590 917 l 1,12,-1
EndSplineSet
Validated: 1
EndChar

StartChar: uniE064
Encoding: 57444 57444 95
Width: 1217
GlyphClass: 1
Flags: W
LayerCount: 2
Fore
SplineSet
726 1081 m 1,0,-1
 726 830 l 1,1,-1
 476 830 l 1,2,-1
 476 1081 l 1,3,-1
 726 1081 l 1,0,-1
726 231 m 1,4,-1
 726 -20 l 1,5,-1
 476 -20 l 1,6,-1
 476 231 l 1,7,-1
 726 231 l 1,4,-1
726 656 m 1,8,-1
 726 405 l 1,9,-1
 476 405 l 1,10,-1
 476 656 l 1,11,-1
 726 656 l 1,8,-1
900 656 m 1,12,-1
 1151 656 l 1,13,-1
 1151 405 l 1,14,-1
 900 405 l 1,15,-1
 900 656 l 1,12,-1
50 656 m 1,16,-1
 301 656 l 1,17,-1
 301 405 l 1,18,-1
 50 405 l 1,19,-1
 50 656 l 1,16,-1
EndSplineSet
Validated: 1
EndChar

StartChar: uniE065
Encoding: 57445 57445 96
Width: 498
GlyphClass: 1
Flags: W
LayerCount: 2
Fore
SplineSet
10 421 m 1,0,1
 62 469 62 469 96 508 c 0,2,3
 130 547 130 547 152 580 c 0,4,5
 172 613 172 613 180 643 c 0,6,7
 188 673 188 673 189 704 c 0,8,9
 189 777 189 777 137 890 c 0,10,11
 112 942 112 942 96 980 c 0,12,13
 80 1018 80 1018 70 1052 c 0,14,15
 60 1084 60 1084 56 1116 c 0,16,17
 52 1148 52 1148 51 1185 c 0,18,19
 52 1230 52 1230 58 1268 c 0,20,21
 64 1306 64 1306 80 1342 c 0,22,23
 96 1378 96 1378 120 1412 c 0,24,25
 145 1447 145 1447 181 1485 c 1,26,-1
 475 1485 l 1,27,28
 386 1404 386 1404 340 1334 c 0,29,30
 294 1264 294 1264 294 1204 c 0,31,32
 294 1185 294 1185 296 1168 c 0,33,34
 298 1151 298 1151 305 1133 c 0,35,36
 312 1115 312 1115 320 1093 c 0,37,38
 328 1071 328 1071 340 1042 c 0,39,40
 364 988 364 988 382 944 c 0,41,42
 400 900 400 900 410 861 c 0,43,44
 422 823 422 823 428 789 c 0,45,46
 434 755 434 755 433 721 c 0,47,48
 433 539 433 539 294 421 c 1,49,-1
 10 421 l 1,0,1
EndSplineSet
Validated: 33
EndChar

StartChar: uniE066
Encoding: 57446 57446 97
Width: 913
GlyphClass: 1
Flags: W
LayerCount: 2
Fore
SplineSet
335 615 m 1,0,1
 424 628 424 628 486 641 c 0,2,3
 548 654 548 654 577 677 c 0,4,5
 616 708 616 708 616 774 c 2,6,-1
 616 779 l 2,7,8
 614 823 614 823 582 852 c 0,9,10
 550 881 550 881 499 881 c 0,11,12
 453 881 453 881 366 869 c 2,13,-1
 335 864 l 1,14,-1
 335 615 l 1,0,1
335 1283 m 1,15,16
 332 1282 332 1282 329 1282 c 0,17,18
 326 1282 326 1282 324 1282 c 2,19,-1
 315 1282 l 1,20,-1
 335 1302 l 1,21,-1
 335 1283 l 1,15,16
318 1050 m 0,22,23
 320 1050 320 1050 322 1050 c 0,24,25
 324 1050 324 1050 328 1051 c 0,26,27
 332 1051 332 1051 335 1052 c 1,28,-1
 335 1029 l 1,29,-1
 315 1049 l 1,30,-1
 316 1049 l 2,31,32
 317 1049 317 1049 318 1050 c 0,22,23
422 1290 m 0,33,34
 404 1290 404 1290 382 1288 c 0,35,36
 360 1286 360 1286 335 1283 c 1,37,-1
 335 1052 l 1,38,39
 380 1058 380 1058 410 1065 c 0,40,41
 440 1072 440 1072 462 1081 c 0,42,43
 484 1090 484 1090 498 1102 c 0,44,45
 513 1114 513 1114 526 1128 c 0,46,47
 536 1142 536 1142 542 1159 c 0,48,49
 548 1176 548 1176 547 1194 c 2,50,-1
 547 1199 l 2,51,52
 544 1246 544 1246 516 1268 c 0,53,54
 488 1290 488 1290 422 1290 c 0,33,34
335 404 m 1,55,-1
 335 -20 l 1,56,-1
 107 -20 l 1,57,-1
 107 1485 l 1,58,-1
 335 1485 l 1,59,-1
 335 1470 l 1,60,61
 346 1471 346 1471 356 1472 c 0,62,63
 366 1473 366 1473 378 1475 c 0,64,65
 409 1480 409 1480 437 1482 c 0,66,67
 465 1484 465 1484 490 1484 c 0,68,69
 544 1484 544 1484 596 1468 c 0,70,71
 648 1452 648 1452 688 1419 c 0,72,73
 728 1386 728 1386 751 1335 c 0,74,75
 775 1284 775 1284 775 1215 c 0,76,77
 775 1154 775 1154 756 1104 c 0,78,79
 737 1054 737 1054 694 1012 c 1,80,81
 760 986 760 986 800 930 c 0,82,83
 840 874 840 874 849 783 c 1,84,85
 850 706 850 706 824 646 c 0,86,87
 798 586 798 586 750 540 c 0,88,89
 702 495 702 495 632 466 c 0,90,91
 563 437 563 437 476 424 c 2,92,-1
 335 404 l 1,55,-1
EndSplineSet
Validated: 37
EndChar

StartChar: uniE067
Encoding: 57447 57447 98
Width: 788
GlyphClass: 1
Flags: W
LayerCount: 2
Fore
SplineSet
447 1267 m 1,0,-1
 376 1267 l 1,1,-1
 376 -22 l 1,2,-1
 159 -22 l 1,3,-1
 159 1485 l 1,4,-1
 665 1485 l 1,5,-1
 665 -111 l 2,6,7
 666 -140 666 -140 664 -170 c 0,8,9
 662 -200 662 -200 656 -232 c 0,10,11
 650 -262 650 -262 639 -290 c 0,12,13
 628 -318 628 -318 609 -343 c 0,14,15
 560 -400 560 -400 492 -424 c 0,16,17
 424 -448 424 -448 350 -448 c 0,18,19
 314 -448 314 -448 282 -445 c 0,20,21
 250 -442 250 -442 220 -436 c 0,22,23
 190 -430 190 -430 160 -424 c 0,24,25
 130 -416 130 -416 96 -406 c 1,26,-1
 169 -262 l 1,27,28
 244 -288 244 -288 324 -288 c 0,29,30
 350 -288 350 -288 372 -283 c 0,31,32
 394 -278 394 -278 411 -264 c 0,33,34
 428 -250 428 -250 438 -226 c 0,35,36
 448 -202 448 -202 449 -165 c 2,37,-1
 449 -137 l 2,38,39
 448 -115 448 -115 448 -91 c 0,40,41
 448 -67 448 -67 447 -49 c 2,42,-1
 447 1267 l 1,0,-1
EndSplineSet
Validated: 1
EndChar

StartChar: uniE068
Encoding: 57448 57448 99
Width: 1179
GlyphClass: 1
Flags: W
LayerCount: 2
Fore
SplineSet
50 580 m 1,0,1
 167 715 167 715 350 715 c 0,2,3
 384 716 384 716 414 712 c 0,4,5
 444 708 444 708 478 698 c 0,6,7
 512 688 512 688 558 671 c 0,8,9
 604 654 604 654 671 626 c 0,10,11
 708 610 708 610 732 601 c 0,12,13
 756 592 756 592 772 588 c 0,14,15
 790 584 790 584 804 582 c 0,16,17
 818 581 818 581 833 581 c 0,18,19
 890 580 890 580 963 626 c 0,20,21
 1036 672 1036 672 1113 757 c 1,22,-1
 1113 472 l 1,23,24
 1078 440 1078 440 1044 416 c 0,25,26
 1010 392 1010 392 976 377 c 0,27,28
 940 362 940 362 900 354 c 0,29,30
 860 346 860 346 814 346 c 0,31,32
 780 346 780 346 748 350 c 0,33,34
 716 354 716 354 682 364 c 0,35,36
 648 374 648 374 609 390 c 0,37,38
 570 406 570 406 519 429 c 0,39,40
 466 452 466 452 418 465 c 0,41,42
 370 478 370 478 334 478 c 0,43,44
 304 478 304 478 276 472 c 0,45,46
 248 466 248 466 217 448 c 0,47,48
 185 430 185 430 145 398 c 0,49,50
 105 366 105 366 50 311 c 1,51,-1
 50 580 l 1,0,1
EndSplineSet
Validated: 33
EndChar

StartChar: uniE069
Encoding: 57449 57449 100
Width: 1179
GlyphClass: 1
Flags: W
LayerCount: 2
Fore
SplineSet
50 364 m 1,0,1
 167 499 167 499 350 499 c 0,2,3
 386 499 386 499 420 494 c 0,4,5
 454 489 454 489 492 478 c 0,6,7
 530 467 530 467 572 450 c 0,8,9
 616 433 616 433 671 410 c 0,10,11
 709 393 709 393 732 384 c 0,12,13
 756 375 756 375 772 371 c 0,14,15
 788 367 788 367 802 366 c 0,16,17
 816 365 816 365 833 365 c 0,18,19
 888 365 888 365 956 401 c 1,20,-1
 955 400 l 1,21,22
 986 420 986 420 1026 455 c 0,23,24
 1066 490 1066 490 1113 539 c 1,25,-1
 1113 257 l 1,26,27
 1078 226 1078 226 1044 202 c 0,28,29
 1010 178 1010 178 976 162 c 0,30,31
 940 146 940 146 900 138 c 0,32,33
 860 130 860 130 814 131 c 0,34,35
 776 130 776 130 746 134 c 0,36,37
 716 138 716 138 686 147 c 0,38,39
 654 156 654 156 615 172 c 0,40,41
 576 188 576 188 519 212 c 0,42,43
 462 238 462 238 416 250 c 0,44,45
 370 262 370 262 334 263 c 0,46,47
 305 264 305 264 278 258 c 0,48,49
 251 252 251 252 219 234 c 0,50,51
 186 216 186 216 146 184 c 0,52,53
 106 151 106 151 50 96 c 1,54,-1
 50 364 l 1,0,1
50 795 m 1,55,56
 167 930 167 930 350 930 c 0,57,58
 384 930 384 930 413 927 c 0,59,60
 442 924 442 924 477 914 c 0,61,62
 512 904 512 904 558 888 c 0,63,64
 604 870 604 870 671 842 c 0,65,66
 700 828 700 828 722 820 c 0,67,68
 744 812 744 812 763 806 c 0,69,70
 782 801 782 801 799 799 c 0,71,72
 816 797 816 797 833 797 c 0,73,74
 894 796 894 796 968 844 c 0,75,76
 1042 892 1042 892 1113 974 c 1,77,-1
 1113 689 l 1,78,79
 1077 655 1077 655 1042 631 c 0,80,81
 1007 608 1007 608 971 592 c 0,82,83
 934 576 934 576 896 569 c 0,84,85
 858 562 858 562 814 562 c 0,86,87
 779 562 779 562 748 566 c 0,88,89
 718 570 718 570 684 578 c 0,90,91
 650 588 650 588 610 604 c 0,92,93
 570 620 570 620 519 644 c 0,94,95
 464 670 464 670 416 682 c 0,96,97
 368 694 368 694 334 694 c 0,98,99
 304 694 304 694 276 687 c 0,100,101
 248 680 248 680 216 662 c 0,102,103
 184 644 184 644 144 610 c 0,104,105
 104 578 104 578 50 527 c 1,106,-1
 50 795 l 1,55,56
EndSplineSet
Validated: 33
EndChar

StartChar: uniE06A
Encoding: 57450 57450 101
Width: 617
GlyphClass: 1
Flags: W
LayerCount: 2
Fore
SplineSet
554 1485 m 1,0,-1
 554 1028 l 2,1,2
 554 964 554 964 545 904 c 0,3,4
 536 844 536 844 504 796 c 0,5,6
 472 748 472 748 408 720 c 0,7,8
 346 692 346 692 239 692 c 0,9,10
 153 692 153 692 44 714 c 1,11,-1
 72 854 l 1,12,13
 118 846 118 846 150 842 c 0,14,15
 182 838 182 838 205 839 c 0,16,17
 260 839 260 839 298 863 c 0,18,19
 328 881 328 881 328 978 c 2,20,-1
 328 1290 l 1,21,-1
 243 1290 l 1,22,-1
 243 924 l 1,23,-1
 49 924 l 1,24,-1
 49 1485 l 1,25,-1
 554 1485 l 1,0,-1
EndSplineSet
Validated: 1
EndChar

StartChar: uniE06B
Encoding: 57451 57451 102
Width: 617
GlyphClass: 1
Flags: W
LayerCount: 2
Fore
SplineSet
49 -20 m 1,0,-1
 49 437 l 2,1,2
 48 475 48 475 52 515 c 0,3,4
 56 555 56 555 67 592 c 0,5,6
 78 629 78 629 98 662 c 0,7,8
 118 696 118 696 154 720 c 0,9,10
 189 744 189 744 240 758 c 0,11,12
 291 772 291 772 363 773 c 0,13,14
 405 774 405 774 454 768 c 0,15,16
 503 762 503 762 559 750 c 1,17,-1
 531 611 l 1,18,19
 486 618 486 618 454 622 c 0,20,21
 422 626 422 626 399 626 c 0,22,23
 343 626 343 626 306 602 c 0,24,25
 275 581 275 581 275 486 c 2,26,-1
 275 175 l 1,27,-1
 359 175 l 1,28,-1
 359 541 l 1,29,-1
 554 541 l 1,30,-1
 554 -20 l 1,31,-1
 49 -20 l 1,0,-1
EndSplineSet
Validated: 33
EndChar

StartChar: uniE06C
Encoding: 57452 57452 103
Width: 855
GlyphClass: 1
Flags: W
LayerCount: 2
Fore
SplineSet
573 886 m 1,0,-1
 49 886 l 1,1,-1
 49 1081 l 1,2,-1
 791 1081 l 1,3,-1
 791 365 l 2,4,5
 791 256 791 256 765 178.5 c 128,-1,6
 739 101 739 101 692 51.5 c 128,-1,7
 645 2 645 2 580 -21.5 c 128,-1,8
 515 -45 515 -45 437 -45 c 0,9,10
 342 -45 342 -45 248 -3 c 1,11,-1
 328 176 l 1,12,13
 383 150 383 150 432 150 c 0,14,15
 462 150 462 150 488 159 c 128,-1,16
 514 168 514 168 533 191.5 c 128,-1,17
 552 215 552 215 562.5 255 c 128,-1,18
 573 295 573 295 573 358 c 2,19,-1
 573 886 l 1,0,-1
EndSplineSet
Validated: 1
EndChar

StartChar: uniE070
Encoding: 57456 57456 104
Width: 1153
GlyphClass: 1
Flags: W
AnchorPoint: "TehtaAbove" 653 1500 basechar 0
AnchorPoint: "TehtaBelow" 653 -200 basechar 0
LayerCount: 2
Fore
SplineSet
50 530 m 2,0,1
 50 669 50 669 88.5 776 c 128,-1,2
 127 883 127 883 196 956 c 128,-1,3
 265 1029 265 1029 360 1067 c 128,-1,4
 455 1105 455 1105 569 1105 c 0,5,6
 681 1105 681 1105 776 1068 c 128,-1,7
 871 1031 871 1031 940 958 c 128,-1,8
 1009 885 1009 885 1048 778 c 128,-1,9
 1087 671 1087 671 1087 530 c 0,10,11
 1087 390 1087 390 1048.5 282.5 c 128,-1,12
 1010 175 1010 175 941.5 102.5 c 128,-1,13
 873 30 873 30 778 -7.5 c 128,-1,14
 683 -45 683 -45 569 -45 c 0,15,16
 363 -45 363 -45 203 94 c 1,17,-1
 342 264 l 1,18,19
 444 150 444 150 569 150 c 0,20,21
 630 150 630 150 683 173 c 128,-1,22
 736 196 736 196 775.5 243 c 128,-1,23
 815 290 815 290 838 361.5 c 128,-1,24
 861 433 861 433 861 530 c 0,25,26
 861 626 861 626 838.5 697.5 c 128,-1,27
 816 769 816 769 777 816 c 128,-1,28
 738 863 738 863 684.5 886.5 c 128,-1,29
 631 910 631 910 569 910 c 0,30,31
 516 910 516 910 468.5 893 c 128,-1,32
 421 876 421 876 383 841.5 c 128,-1,33
 345 807 345 807 319 753.5 c 128,-1,34
 293 700 293 700 283 627 c 1,35,-1
 504 627 l 1,36,-1
 504 433 l 1,37,-1
 50 433 l 1,38,-1
 50 530 l 2,0,1
EndSplineSet
Validated: 1
EndChar

StartChar: uniE071
Encoding: 57457 57457 105
Width: 1332
GlyphClass: 1
Flags: W
AnchorPoint: "TehtaBelow" 832 -200 basechar 0
AnchorPoint: "TehtaAbove" 632 1500 basechar 0
LayerCount: 2
Fore
SplineSet
549 886 m 1,0,1
 549 826 549 826 548.5 769 c 128,-1,2
 548 712 548 712 548 654 c 2,3,-1
 548 402 l 2,4,5
 548 279 548 279 591.5 214 c 128,-1,6
 635 149 635 149 725 149 c 0,7,8
 812 149 812 149 858 217 c 128,-1,9
 904 285 904 285 904 432 c 1,10,-1
 1119 428 l 1,11,12
 1119 330 1119 330 1093.5 244 c 128,-1,13
 1068 158 1068 158 1018 94 c 128,-1,14
 968 30 968 30 895 -7.5 c 128,-1,15
 822 -45 822 -45 727 -45 c 0,16,17
 634 -45 634 -45 560.5 -12 c 128,-1,18
 487 21 487 21 436 80 c 128,-1,19
 385 139 385 139 358 220 c 128,-1,20
 331 301 331 301 331 397 c 2,21,-1
 331 886 l 1,22,-1
 50 886 l 1,23,-1
 50 1081 l 1,24,-1
 1265 1081 l 1,25,-1
 1265 886 l 1,26,-1
 549 886 l 1,0,1
EndSplineSet
Validated: 1
EndChar

StartChar: uniE072
Encoding: 57458 57458 106
Width: 1491
GlyphClass: 1
Flags: W
AnchorPoint: "TehtaBelow" 791 -200 basechar 0
AnchorPoint: "TehtaAbove" 691 1500 basechar 0
LayerCount: 2
Fore
SplineSet
966 886 m 1,0,-1
 966 358 l 2,1,2
 966 296 966 296 976.5 255.5 c 128,-1,3
 987 215 987 215 1005.5 191.5 c 128,-1,4
 1024 168 1024 168 1050 159 c 128,-1,5
 1076 150 1076 150 1106 150 c 0,6,7
 1173 150 1173 150 1222 187 c 1,8,-1
 1385 83 l 1,9,10
 1279 -45 1279 -45 1101 -45 c 0,11,12
 1023 -45 1023 -45 958.5 -22.5 c 128,-1,13
 894 0 894 0 847.5 49.5 c 128,-1,14
 801 99 801 99 775 177 c 128,-1,15
 749 255 749 255 749 365 c 2,16,-1
 749 886 l 1,17,-1
 363 886 l 1,18,-1
 363 358 l 2,19,20
 363 294 363 294 374 253.5 c 128,-1,21
 385 213 385 213 403.5 190 c 128,-1,22
 422 167 422 167 448 158.5 c 128,-1,23
 474 150 474 150 504 150 c 0,24,25
 570 150 570 150 619 187 c 1,26,-1
 782 83 l 1,27,28
 681 -45 681 -45 499 -45 c 0,29,30
 421 -45 421 -45 356 -22 c 128,-1,31
 291 1 291 1 244.5 50.5 c 128,-1,32
 198 100 198 100 172 178 c 128,-1,33
 146 256 146 256 146 365 c 2,34,-1
 146 886 l 1,35,-1
 50 886 l 1,36,-1
 50 1081 l 1,37,-1
 1423 1081 l 1,38,-1
 1423 886 l 1,39,-1
 966 886 l 1,0,-1
EndSplineSet
Validated: 1
EndChar

StartChar: uniE073
Encoding: 57459 57459 107
Width: 1491
GlyphClass: 1
Flags: W
AnchorPoint: "TehtaAbove" 691 1500 basechar 0
AnchorPoint: "TehtaBelow" 791 -200 basechar 0
LayerCount: 2
Fore
SplineSet
409 150 m 0,0,1
 452 150 452 150 497 171 c 1,2,3
 469 253 469 253 469 365 c 2,4,-1
 469 886 l 1,5,-1
 268 886 l 1,6,-1
 268 358 l 2,7,8
 268 295 268 295 278.5 255 c 128,-1,9
 289 215 289 215 308 191.5 c 128,-1,10
 327 168 327 168 353 159 c 128,-1,11
 379 150 379 150 409 150 c 0,0,1
828 150 m 0,12,13
 871 150 871 150 916 171 c 1,14,15
 902 212 902 212 895 260 c 128,-1,16
 888 308 888 308 888 365 c 2,17,-1
 888 886 l 1,18,-1
 687 886 l 1,19,-1
 687 358 l 2,20,21
 687 295 687 295 697.5 254.5 c 128,-1,22
 708 214 708 214 727 190.5 c 128,-1,23
 746 167 746 167 772 158.5 c 128,-1,24
 798 150 798 150 828 150 c 0,12,13
50 1081 m 1,25,-1
 1423 1081 l 1,26,-1
 1423 886 l 1,27,-1
 1105 886 l 1,28,-1
 1105 358 l 2,29,30
 1105 296 1105 296 1115.5 255.5 c 128,-1,31
 1126 215 1126 215 1144.5 191.5 c 128,-1,32
 1163 168 1163 168 1189 159 c 128,-1,33
 1215 150 1215 150 1245 150 c 0,34,35
 1295 150 1295 150 1349 178 c 1,36,-1
 1431 -3 l 1,37,38
 1336 -45 1336 -45 1241 -45 c 0,39,40
 1162 -45 1162 -45 1098 -22 c 128,-1,41
 1034 1 1034 1 988 49 c 1,42,-1
 1012 -3 l 1,43,44
 917 -45 917 -45 823 -45 c 0,45,46
 745 -45 745 -45 681.5 -23 c 128,-1,47
 618 -1 618 -1 571 47 c 1,48,-1
 594 -3 l 1,49,50
 546 -23 546 -23 499 -34 c 128,-1,51
 452 -45 452 -45 404 -45 c 0,52,53
 324 -45 324 -45 259 -21 c 128,-1,54
 194 3 194 3 147.5 53 c 128,-1,55
 101 103 101 103 75.5 180.5 c 128,-1,56
 50 258 50 258 50 365 c 2,57,-1
 50 1081 l 1,25,-1
EndSplineSet
Validated: 1
EndChar

StartChar: uniE074
Encoding: 57460 57460 108
Width: 1354
GlyphClass: 1
Flags: W
AnchorPoint: "TehtaAbove" 854 1800 basechar 0
AnchorPoint: "TehtaBelow" 754 -500 basechar 0
LayerCount: 2
Fore
SplineSet
560 1290 m 1,0,-1
 560 55 l 2,1,2
 560 -4 560 -4 564 -45.5 c 128,-1,3
 568 -87 568 -87 577.5 -115.5 c 128,-1,4
 587 -144 587 -144 603 -162.5 c 128,-1,5
 619 -181 619 -181 642 -196 c 0,6,7
 666 -212 666 -212 692.5 -219 c 128,-1,8
 719 -226 719 -226 754 -226 c 0,9,10
 796 -226 796 -226 830.5 -211 c 128,-1,11
 865 -196 865 -196 890 -173 c 1,12,13
 928 -126 928 -126 946 18 c 1,14,-1
 1161 -106 l 1,15,16
 1124 -285 1124 -285 1021.5 -365.5 c 128,-1,17
 919 -446 919 -446 753 -446 c 0,18,19
 613 -446 613 -446 512 -388.5 c 128,-1,20
 411 -331 411 -331 366 -226 c 0,21,22
 343 -172 343 -172 331.5 -100 c 128,-1,23
 320 -28 320 -28 320 66 c 2,24,-1
 320 1290 l 1,25,-1
 50 1290 l 1,26,-1
 50 1485 l 1,27,-1
 1287 1485 l 1,28,-1
 1287 1290 l 1,29,-1
 560 1290 l 1,0,-1
EndSplineSet
Validated: 1
EndChar

StartChar: uniE075
Encoding: 57461 57461 109
Width: 1400
GlyphClass: 1
Flags: W
AnchorPoint: "TehtaBelow" 800 -500 basechar 0
AnchorPoint: "TehtaAbove" 900 1500 basechar 0
LayerCount: 2
Fore
SplineSet
515 886 m 1,0,-1
 291 886 l 1,1,-1
 291 55 l 2,2,3
 291 -2 291 -2 294.5 -43 c 128,-1,4
 298 -84 298 -84 307 -113 c 128,-1,5
 316 -142 316 -142 331.5 -161.5 c 128,-1,6
 347 -181 347 -181 372 -196 c 0,7,8
 396 -212 396 -212 423 -219 c 128,-1,9
 450 -226 450 -226 485 -226 c 0,10,11
 523 -226 523 -226 555 -214.5 c 128,-1,12
 587 -203 587 -203 611 -175.5 c 128,-1,13
 635 -148 635 -148 652 -100.5 c 128,-1,14
 669 -53 669 -53 677 19 c 1,15,-1
 892 -106 l 1,16,17
 860 -280 860 -280 756 -363 c 128,-1,18
 652 -446 652 -446 484 -446 c 0,19,20
 417 -446 417 -446 357.5 -429.5 c 128,-1,21
 298 -413 298 -413 248 -383.5 c 128,-1,22
 198 -354 198 -354 159.5 -313.5 c 128,-1,23
 121 -273 121 -273 97 -226 c 1,24,25
 76 -175 76 -175 63.5 -98.5 c 128,-1,26
 51 -22 51 -22 50 66 c 2,27,-1
 50 1485 l 1,28,-1
 291 1485 l 1,29,-1
 291 1081 l 1,30,-1
 1333 1081 l 1,31,-1
 1333 886 l 1,32,-1
 732 886 l 1,33,34
 732 847 732 847 731.5 813 c 128,-1,35
 731 779 731 779 731 741 c 2,36,-1
 731 576 l 2,37,38
 731 459 731 459 774.5 391.5 c 128,-1,39
 818 324 818 324 909 324 c 0,40,41
 1001 324 1001 324 1044 392.5 c 128,-1,42
 1087 461 1087 461 1087 607 c 1,43,-1
 1303 602 l 1,44,45
 1303 501 1303 501 1276 415 c 128,-1,46
 1249 329 1249 329 1198.5 265 c 128,-1,47
 1148 201 1148 201 1075 165 c 128,-1,48
 1002 129 1002 129 911 129 c 0,49,50
 816 129 816 129 742.5 162.5 c 128,-1,51
 669 196 669 196 618.5 255.5 c 128,-1,52
 568 315 568 315 541.5 395.5 c 128,-1,53
 515 476 515 476 515 571 c 2,54,-1
 515 886 l 1,0,-1
EndSplineSet
Validated: 1
EndChar

StartChar: uniE076
Encoding: 57462 57462 110
Width: 1491
GlyphClass: 1
Flags: W
AnchorPoint: "TehtaAbove" 991 1500 basechar 0
AnchorPoint: "TehtaBelow" 891 -500 basechar 0
LayerCount: 2
Fore
SplineSet
1106 886 m 1,0,-1
 1106 532 l 2,1,2
 1106 468 1106 468 1116.5 427.5 c 128,-1,3
 1127 387 1127 387 1145.5 364 c 128,-1,4
 1164 341 1164 341 1190 332.5 c 128,-1,5
 1216 324 1216 324 1246 324 c 0,6,7
 1295 324 1295 324 1349 352 c 1,8,-1
 1431 171 l 1,9,10
 1336 129 1336 129 1241 129 c 0,11,12
 1163 129 1163 129 1098.5 152.5 c 128,-1,13
 1034 176 1034 176 987 226 c 128,-1,14
 940 276 940 276 914 353.5 c 128,-1,15
 888 431 888 431 888 540 c 2,16,-1
 888 886 l 1,17,-1
 647 886 l 1,18,-1
 647 532 l 2,19,20
 647 472 647 472 657 432 c 128,-1,21
 667 392 667 392 685.5 368 c 128,-1,22
 704 344 704 344 730 334 c 128,-1,23
 756 324 756 324 788 324 c 0,24,25
 840 324 840 324 891 351 c 1,26,-1
 975 171 l 1,27,28
 876 129 876 129 784 129 c 0,29,30
 706 129 706 129 640.5 152.5 c 128,-1,31
 575 176 575 176 528.5 226 c 128,-1,32
 482 276 482 276 456 354 c 128,-1,33
 430 432 430 432 430 540 c 2,34,-1
 430 886 l 1,35,-1
 291 886 l 1,36,-1
 291 55 l 2,37,38
 291 -1 291 -1 294.5 -41.5 c 128,-1,39
 298 -82 298 -82 307.5 -111.5 c 128,-1,40
 317 -141 317 -141 332.5 -161.5 c 128,-1,41
 348 -182 348 -182 372 -196 c 0,42,43
 417 -226 417 -226 485 -226 c 0,44,45
 524 -226 524 -226 556 -214.5 c 128,-1,46
 588 -203 588 -203 612.5 -174.5 c 128,-1,47
 637 -146 637 -146 653.5 -99.5 c 128,-1,48
 670 -53 670 -53 678 18 c 1,49,-1
 892 -106 l 1,50,51
 876 -194 876 -194 841 -258 c 128,-1,52
 806 -322 806 -322 754 -364 c 128,-1,53
 702 -406 702 -406 634 -426 c 128,-1,54
 566 -446 566 -446 484 -446 c 0,55,56
 417 -446 417 -446 357.5 -429.5 c 128,-1,57
 298 -413 298 -413 248 -383.5 c 128,-1,58
 198 -354 198 -354 159.5 -313.5 c 128,-1,59
 121 -273 121 -273 97 -226 c 1,60,61
 76 -175 76 -175 63.5 -98.5 c 128,-1,62
 51 -22 51 -22 50 66 c 2,63,-1
 50 1485 l 1,64,-1
 291 1485 l 1,65,-1
 291 1081 l 1,66,-1
 1423 1081 l 1,67,-1
 1423 886 l 1,68,-1
 1106 886 l 1,0,-1
EndSplineSet
Validated: 1
EndChar

StartChar: uniE077
Encoding: 57463 57463 111
Width: 1354
GlyphClass: 1
Flags: W
AnchorPoint: "TehtaBelow" 754 -500 basechar 0
AnchorPoint: "TehtaAbove" 854 1800 basechar 0
LayerCount: 2
Fore
SplineSet
1019 1290 m 1,0,-1
 1019 66 l 2,1,2
 1019 -29 1019 -29 1008 -100 c 128,-1,3
 997 -171 997 -171 973 -225.5 c 128,-1,4
 949 -280 949 -280 911.5 -320 c 128,-1,5
 874 -360 874 -360 822 -391 c 0,6,7
 718 -446 718 -446 586 -446 c 0,8,9
 415 -446 415 -446 309.5 -360.5 c 128,-1,10
 204 -275 204 -275 178 -106 c 1,11,-1
 394 19 l 1,12,13
 400 -52 400 -52 416.5 -99.5 c 128,-1,14
 433 -147 433 -147 458 -175 c 128,-1,15
 483 -203 483 -203 515 -214.5 c 128,-1,16
 547 -226 547 -226 585 -226 c 0,17,18
 648 -226 648 -226 695 -197 c 128,-1,19
 742 -168 742 -168 760 -120 c 0,20,21
 768 -91 768 -91 773.5 -46.5 c 128,-1,22
 779 -2 779 -2 779 55 c 2,23,-1
 779 1290 l 1,24,-1
 50 1290 l 1,25,-1
 50 1485 l 1,26,-1
 1287 1485 l 1,27,-1
 1287 1290 l 1,28,-1
 1019 1290 l 1,0,-1
EndSplineSet
Validated: 1
EndChar

StartChar: uniE078
Encoding: 57464 57464 112
Width: 1490
GlyphClass: 1
Flags: W
AnchorPoint: "TehtaAbove" 1090 1500 basechar 0
AnchorPoint: "TehtaBelow" 1090 -200 basechar 0
LayerCount: 2
Fore
SplineSet
1094 348 m 1,0,-1
 1094 493 l 2,1,2
 1094 534 1094 534 1094.5 575 c 128,-1,3
 1095 616 1095 616 1095 658 c 0,4,5
 1095 780 1095 780 1051.5 845 c 128,-1,6
 1008 910 1008 910 918 910 c 0,7,8
 825 910 825 910 782 845 c 128,-1,9
 739 780 739 780 739 651 c 2,10,-1
 739 348 l 1,11,-1
 1094 348 l 1,0,-1
1312 348 m 1,12,-1
 1422 348 l 1,13,-1
 1422 153 l 1,14,-1
 739 153 l 1,15,-1
 739 66 l 2,16,17
 739 -30 739 -30 728 -101 c 128,-1,18
 717 -172 717 -172 693.5 -226 c 128,-1,19
 670 -280 670 -280 632.5 -319.5 c 128,-1,20
 595 -359 595 -359 543 -391 c 1,21,22
 436 -446 436 -446 306 -446 c 0,23,24
 159 -446 159 -446 44 -371 c 1,25,-1
 146 -145 l 1,26,27
 218 -226 218 -226 305 -226 c 0,28,29
 368 -226 368 -226 415 -198.5 c 128,-1,30
 462 -171 462 -171 480 -119 c 1,31,-1
 480 -120 l 1,32,33
 489 -91 489 -91 494 -47.5 c 128,-1,34
 499 -4 499 -4 499 55 c 2,35,-1
 499 1485 l 1,36,-1
 739 1485 l 1,37,-1
 739 1067 l 1,38,39
 776 1084 776 1084 822 1094.5 c 128,-1,40
 868 1105 868 1105 916 1105 c 0,41,42
 1010 1105 1010 1105 1083.5 1071 c 128,-1,43
 1157 1037 1157 1037 1208 977.5 c 128,-1,44
 1259 918 1259 918 1285.5 837.5 c 128,-1,45
 1312 757 1312 757 1312 663 c 2,46,-1
 1312 348 l 1,12,-1
EndSplineSet
Validated: 1
EndChar

StartChar: uniE079
Encoding: 57465 57465 113
Width: 1491
GlyphClass: 1
Flags: W
AnchorPoint: "TehtaBelow" 891 -200 basechar 0
AnchorPoint: "TehtaAbove" 891 1500 basechar 0
LayerCount: 2
Fore
SplineSet
1206 348 m 1,0,-1
 1206 702 l 2,1,2
 1206 765 1206 765 1195 805 c 128,-1,3
 1184 845 1184 845 1165 868.5 c 128,-1,4
 1146 892 1146 892 1120 901 c 128,-1,5
 1094 910 1094 910 1064 910 c 0,6,7
 1023 910 1023 910 993 896 c 128,-1,8
 963 882 963 882 948 853 c 1,9,10
 965 783 965 783 965 695 c 2,11,-1
 965 348 l 1,12,-1
 1206 348 l 1,0,-1
506 882 m 1,13,-1
 505 882 l 1,14,-1
 506 883 l 1,15,-1
 506 882 l 1,13,-1
747 348 m 1,16,-1
 747 702 l 2,17,18
 747 764 747 764 736.5 804.5 c 128,-1,19
 726 845 726 845 707 868.5 c 128,-1,20
 688 892 688 892 662 901 c 128,-1,21
 636 910 636 910 606 910 c 0,22,23
 546 910 546 910 506 882 c 1,24,-1
 506 348 l 1,25,-1
 747 348 l 1,16,-1
1423 153 m 1,26,-1
 506 153 l 1,27,-1
 506 67 l 2,28,29
 506 -74 506 -74 475 -171.5 c 128,-1,30
 444 -269 444 -269 385.5 -330 c 128,-1,31
 327 -391 327 -391 242.5 -418.5 c 128,-1,32
 158 -446 158 -446 50 -446 c 1,33,-1
 50 -224 l 1,34,35
 128 -224 128 -224 171.5 -199.5 c 128,-1,36
 215 -175 215 -175 236 -135.5 c 128,-1,37
 257 -96 257 -96 261.5 -45.5 c 128,-1,38
 266 5 266 5 266 58 c 2,39,-1
 266 1485 l 1,40,-1
 506 1485 l 1,41,-1
 506 1095 l 1,42,43
 530 1101 530 1101 556 1103 c 128,-1,44
 582 1105 582 1105 611 1105 c 0,45,46
 680 1105 680 1105 734.5 1088.5 c 128,-1,47
 789 1072 789 1072 836 1033 c 1,48,49
 880 1071 880 1071 937.5 1088 c 128,-1,50
 995 1105 995 1105 1070 1105 c 0,51,52
 1147 1105 1147 1105 1212 1081.5 c 128,-1,53
 1277 1058 1277 1058 1324 1008 c 128,-1,54
 1371 958 1371 958 1397 880.5 c 128,-1,55
 1423 803 1423 803 1423 695 c 2,56,-1
 1423 153 l 1,26,-1
EndSplineSet
Validated: 5
EndChar

StartChar: uniE07A
Encoding: 57466 57466 114
Width: 1102
GlyphClass: 1
Flags: W
AnchorPoint: "TehtaAbove" 902 1500 basechar 0
AnchorPoint: "TehtaBelow" 602 -200 basechar 0
LayerCount: 2
Fore
SplineSet
364 1139 m 2,0,1
 343 1170 343 1170 326.5 1204.5 c 128,-1,2
 310 1239 310 1239 298 1280.5 c 128,-1,3
 286 1322 286 1322 277.5 1372.5 c 128,-1,4
 269 1423 269 1423 263 1485 c 1,5,-1
 487 1484 l 1,6,7
 493 1401 493 1401 507.5 1351 c 128,-1,8
 522 1301 522 1301 542 1272 c 0,9,10
 641 1132 641 1132 746.5 981.5 c 128,-1,11
 852 831 852 831 951 691 c 0,12,13
 975 654 975 654 991.5 622 c 128,-1,14
 1008 590 1008 590 1017.5 558 c 128,-1,15
 1027 526 1027 526 1031.5 493 c 128,-1,16
 1036 460 1036 460 1036 422 c 0,17,18
 1036 326 1036 326 1001.5 241 c 128,-1,19
 967 156 967 156 903 92.5 c 128,-1,20
 839 29 839 29 748 -8 c 128,-1,21
 657 -45 657 -45 545 -45 c 0,22,23
 328 -45 328 -45 201 86 c 128,-1,24
 74 217 74 217 48 469 c 1,25,-1
 277 499 l 1,26,27
 290 409 290 409 315.5 346 c 128,-1,28
 341 283 341 283 376 243 c 128,-1,29
 411 203 411 203 454.5 184.5 c 128,-1,30
 498 166 498 166 548 166 c 0,31,32
 601 166 601 166 647.5 188 c 128,-1,33
 694 210 694 210 729 247.5 c 128,-1,34
 764 285 764 285 784.5 333.5 c 128,-1,35
 805 382 805 382 805 435 c 0,36,37
 805 469 805 469 794.5 506.5 c 128,-1,38
 784 544 784 544 765 568 c 2,39,-1
 364 1139 l 2,0,1
EndSplineSet
Validated: 1
EndChar

StartChar: uniE07B
Encoding: 57467 57467 115
Width: 1102
GlyphClass: 1
Flags: W
AnchorPoint: "TehtaBelow" 602 -500 basechar 0
AnchorPoint: "TehtaAbove" 902 1500 basechar 0
LayerCount: 2
Fore
SplineSet
805 36 m 0,0,1
 805 56 805 56 802 75 c 128,-1,2
 799 94 799 94 793 111 c 1,3,4
 741 84 741 84 678 70 c 128,-1,5
 615 56 615 56 545 56 c 0,6,7
 438 56 438 56 351.5 89.5 c 128,-1,8
 265 123 265 123 202 188.5 c 128,-1,9
 139 254 139 254 100 350 c 128,-1,10
 61 446 61 446 48 571 c 1,11,-1
 277 602 l 1,12,13
 290 514 290 514 314.5 450.5 c 128,-1,14
 339 387 339 387 373.5 346.5 c 128,-1,15
 408 306 408 306 452 287 c 128,-1,16
 496 268 496 268 548 268 c 256,17,18
 600 268 600 268 647 290 c 128,-1,19
 694 312 694 312 729 348.5 c 128,-1,20
 764 385 764 385 784.5 434 c 128,-1,21
 805 483 805 483 805 537 c 0,22,23
 805 597 805 597 779 643 c 1,24,-1
 781 641 l 1,25,26
 775 649 775 649 770 660 c 0,27,28
 768 662 768 662 767 665.5 c 128,-1,29
 766 669 766 669 764 671 c 0,30,31
 713 730 713 730 665 786 c 128,-1,32
 617 842 617 842 567 900 c 256,33,34
 517 958 517 958 467.5 1015 c 128,-1,35
 418 1072 418 1072 368 1132 c 0,36,37
 344 1166 344 1166 326.5 1201 c 128,-1,38
 309 1236 309 1236 297 1277.5 c 128,-1,39
 285 1319 285 1319 277 1369.5 c 128,-1,40
 269 1420 269 1420 263 1485 c 1,41,-1
 487 1484 l 1,42,43
 490 1441 490 1441 494.5 1408.5 c 128,-1,44
 499 1376 499 1376 506 1350.5 c 128,-1,45
 513 1325 513 1325 522 1306.5 c 128,-1,46
 531 1288 531 1288 542 1273 c 1,47,-1
 541 1274 l 1,48,49
 592 1213 592 1213 642 1154.5 c 128,-1,50
 692 1096 692 1096 743 1037 c 256,51,52
 794 978 794 978 844 918.5 c 128,-1,53
 894 859 894 859 946 799 c 0,54,55
 971 766 971 766 988.5 733.5 c 128,-1,56
 1006 701 1006 701 1016.5 667.5 c 128,-1,57
 1027 634 1027 634 1031.5 598.5 c 128,-1,58
 1036 563 1036 563 1036 523 c 0,59,60
 1036 383 1036 383 963 271 c 1,61,62
 1001 208 1001 208 1018.5 150.5 c 128,-1,63
 1036 93 1036 93 1036 22 c 0,64,65
 1036 -72 1036 -72 1001.5 -156.5 c 128,-1,66
 967 -241 967 -241 903 -305 c 128,-1,67
 839 -369 839 -369 748 -406.5 c 128,-1,68
 657 -444 657 -444 545 -444 c 0,69,70
 440 -444 440 -444 354.5 -411 c 128,-1,71
 269 -378 269 -378 205.5 -313.5 c 128,-1,72
 142 -249 142 -249 102 -153 c 128,-1,73
 62 -57 62 -57 48 70 c 1,74,-1
 277 100 l 1,75,76
 303 -73 303 -73 372.5 -152.5 c 128,-1,77
 442 -232 442 -232 548 -232 c 0,78,79
 601 -232 601 -232 647.5 -209.5 c 128,-1,80
 694 -187 694 -187 729 -150 c 128,-1,81
 764 -113 764 -113 784.5 -64.5 c 128,-1,82
 805 -16 805 -16 805 36 c 0,0,1
EndSplineSet
Validated: 1
EndChar

StartChar: uniE07C
Encoding: 57468 57468 116
Width: 1157
GlyphClass: 1
Flags: W
AnchorPoint: "TehtaAbove" 657 1500 basechar 0
AnchorPoint: "TehtaBelow" 657 -500 basechar 0
LayerCount: 2
Fore
SplineSet
67 -454 m 1,0,1
 74 -384 74 -384 89 -338.5 c 128,-1,2
 104 -293 104 -293 125 -265.5 c 128,-1,3
 146 -238 146 -238 172.5 -224.5 c 128,-1,4
 199 -211 199 -211 229 -204 c 0,5,6
 286 -192 286 -192 458 -192 c 0,7,8
 562 -192 562 -192 631 -183 c 128,-1,9
 700 -174 700 -174 743.5 -154 c 128,-1,10
 787 -134 787 -134 811.5 -103.5 c 128,-1,11
 836 -73 836 -73 852 -29 c 0,12,13
 865 4 865 4 872.5 42.5 c 128,-1,14
 880 81 880 81 885 126 c 1,15,16
 858 96 858 96 828 72.5 c 128,-1,17
 798 49 798 49 767 33 c 1,18,-1
 768 34 l 1,19,20
 675 -20 675 -20 553 -20 c 0,21,22
 446 -20 446 -20 354 18 c 128,-1,23
 262 56 262 56 194.5 127 c 128,-1,24
 127 198 127 198 88.5 300 c 128,-1,25
 50 402 50 402 50 531 c 0,26,27
 50 622 50 622 70 700 c 128,-1,28
 90 778 90 778 123 841.5 c 128,-1,29
 156 905 156 905 200 953.5 c 128,-1,30
 244 1002 244 1002 292 1036 c 1,31,32
 339 1064 339 1064 410 1084.5 c 128,-1,33
 481 1105 481 1105 560 1105 c 0,34,35
 658 1105 658 1105 734 1081 c 128,-1,36
 810 1057 810 1057 867.5 1014.5 c 128,-1,37
 925 972 925 972 966 913 c 128,-1,38
 1007 854 1007 854 1035 784 c 1,39,-1
 1034 785 l 1,40,41
 1091 647 1091 647 1091 309 c 0,42,43
 1091 -119 1091 -119 943 -270 c 0,44,45
 794 -422 794 -422 490 -422 c 2,46,-1
 458 -422 l 2,47,48
 397 -422 397 -422 361 -422.5 c 128,-1,49
 325 -423 325 -423 306 -426.5 c 128,-1,50
 287 -430 287 -430 280 -437 c 128,-1,51
 273 -444 273 -444 269 -456 c 1,52,-1
 67 -454 l 1,0,1
284 527 m 0,53,54
 284 450 284 450 302 385.5 c 128,-1,55
 320 321 320 321 355 274 c 128,-1,56
 390 227 390 227 441 201 c 128,-1,57
 492 175 492 175 558 175 c 0,58,59
 627 175 627 175 680 202.5 c 128,-1,60
 733 230 733 230 769 280 c 128,-1,61
 805 330 805 330 824 401 c 128,-1,62
 843 472 843 472 843 559 c 0,63,64
 843 644 843 644 821 710 c 128,-1,65
 799 776 799 776 760.5 821 c 128,-1,66
 722 866 722 866 670 889.5 c 128,-1,67
 618 913 618 913 559 913 c 0,68,69
 495 913 495 913 444 884 c 128,-1,70
 393 855 393 855 357.5 803.5 c 128,-1,71
 322 752 322 752 303 681.5 c 128,-1,72
 284 611 284 611 284 527 c 0,53,54
EndSplineSet
Validated: 1
EndChar

StartChar: uniE07D
Encoding: 57469 57469 117
Width: 0
Flags: W
AnchorPoint: "TehtaBelow" -500 -200 mark 0
AnchorPoint: "mkmk_down" -500 -500 basemark 0
AnchorPoint: "mkmk_down" -500 -200 mark 0
LayerCount: 2
Fore
SplineSet
-539 -149 m 256,0,1
 -494 -149 -494 -149 -455.5 -165.5 c 128,-1,2
 -417 -182 -417 -182 -388 -210.5 c 128,-1,3
 -359 -239 -359 -239 -342.5 -277.5 c 128,-1,4
 -326 -316 -326 -316 -326 -360 c 0,5,6
 -326 -403 -326 -403 -343.5 -440.5 c 128,-1,7
 -361 -478 -361 -478 -390.5 -505.5 c 128,-1,8
 -420 -533 -420 -533 -458.5 -549 c 128,-1,9
 -497 -565 -497 -565 -539 -565 c 0,10,11
 -583 -565 -583 -565 -621.5 -548.5 c 128,-1,12
 -660 -532 -660 -532 -689 -503.5 c 128,-1,13
 -718 -475 -718 -475 -735 -436.5 c 128,-1,14
 -752 -398 -752 -398 -752 -355 c 0,15,16
 -752 -314 -752 -314 -735.5 -277 c 128,-1,17
 -719 -240 -719 -240 -690 -211.5 c 128,-1,18
 -661 -183 -661 -183 -622.5 -166 c 128,-1,19
 -584 -149 -584 -149 -539 -149 c 256,0,1
-539 -264 m 0,20,21
 -560 -264 -560 -264 -578 -272 c 128,-1,22
 -596 -280 -596 -280 -609 -292.5 c 128,-1,23
 -622 -305 -622 -305 -629.5 -321.5 c 128,-1,24
 -637 -338 -637 -338 -637 -355 c 0,25,26
 -637 -373 -637 -373 -629.5 -390 c 128,-1,27
 -622 -407 -622 -407 -609 -420 c 128,-1,28
 -596 -433 -596 -433 -578 -441 c 128,-1,29
 -560 -449 -560 -449 -539 -449 c 256,30,31
 -518 -449 -518 -449 -500 -441.5 c 128,-1,32
 -482 -434 -482 -434 -469 -421 c 128,-1,33
 -456 -408 -456 -408 -448.5 -391.5 c 128,-1,34
 -441 -375 -441 -375 -441 -358 c 0,35,36
 -441 -340 -441 -340 -449 -323 c 128,-1,37
 -457 -306 -457 -306 -470.5 -293 c 128,-1,38
 -484 -280 -484 -280 -501.5 -272 c 128,-1,39
 -519 -264 -519 -264 -539 -264 c 0,20,21
EndSplineSet
Validated: 1
EndChar

StartChar: bar_above_narrow
Encoding: 65539 -1 119
Width: 0
AnchorPoint: "mkmk_up" -500 1500 mark 0
AnchorPoint: "mkmk_up" -500 1700 basemark 0
AnchorPoint: "TehtaAbove" -500 1500 mark 0
LayerCount: 2
Fore
SplineSet
-316 1215 m 1,0,-1
 -770 1215 l 1,1,-1
 -770 1419 l 1,2,-1
 -316 1419 l 1,3,-1
 -316 1215 l 1,0,-1
EndSplineSet
Validated: 1
EndChar

StartChar: bar_above_wide
Encoding: 65540 -1 120
Width: 0
AnchorPoint: "mkmk_up" -500 1500 mark 0
AnchorPoint: "mkmk_up" -500 1700 basemark 0
AnchorPoint: "TehtaAbove" -500 1500 mark 0
LayerCount: 2
Fore
SplineSet
-4 1233 m 1,0,-1
 -1092 1233 l 1,1,-1
 -1092 1403 l 1,2,-1
 -4 1403 l 1,3,-1
 -4 1233 l 1,0,-1
EndSplineSet
Validated: 1
EndChar

StartChar: bar_below_narrow
Encoding: 65541 -1 121
Width: 0
AnchorPoint: "mkmk_down" -500 -200 mark 0
AnchorPoint: "mkmk_down" -500 -500 basemark 0
AnchorPoint: "TehtaBelow" -500 -200 mark 0
LayerCount: 2
Fore
SplineSet
-316 -346 m 5,0,-1
 -770 -346 l 5,1,-1
 -770 -142 l 5,2,-1
 -316 -142 l 5,3,-1
 -316 -346 l 5,0,-1
EndSplineSet
Validated: 1
EndChar

StartChar: bar_below_wide
Encoding: 65542 -1 122
Width: 0
AnchorPoint: "mkmk_down" -500 -200 mark 0
AnchorPoint: "mkmk_down" -500 -500 basemark 0
AnchorPoint: "TehtaBelow" -500 -200 mark 0
LayerCount: 2
Fore
SplineSet
-4 -346 m 1,0,-1
 -1092 -346 l 1,1,-1
 -1092 -176 l 1,2,-1
 -4 -176 l 1,3,-1
 -4 -346 l 1,0,-1
EndSplineSet
Validated: 1
EndChar

StartChar: lambe_bar_below
Encoding: 65543 -1 123
Width: 0
Flags: W
AnchorPoint: "LambeBar" -300 800 mark 0
LayerCount: 2
Fore
SplineSet
-66 615 m 1,0,-1
 -520 615 l 1,1,-1
 -520 799 l 1,2,-1
 -66 799 l 1,3,-1
 -66 615 l 1,0,-1
EndSplineSet
Validated: 1
EndChar

StartChar: uniE05B
Encoding: 57435 57435 124
Width: 0
Flags: W
AnchorPoint: "mkmk_up" -500 1500 mark 0
AnchorPoint: "mkmk_up" -500 1800 basemark 0
AnchorPoint: "TehtaAbove" -500 1500 mark 0
LayerCount: 2
Fore
SplineSet
-176 1262 m 1,0,-1
 -445 1262 l 1,1,-1
 -540 1413 l 1,2,3
 -551 1398 -551 1398 -560 1383.5 c 128,-1,4
 -569 1369 -569 1369 -579 1354 c 0,5,6
 -593 1333 -593 1333 -610 1308 c 128,-1,7
 -627 1283 -627 1283 -641 1262 c 1,8,-1
 -906 1262 l 1,9,-1
 -652 1589 l 1,10,-1
 -440 1589 l 1,11,-1
 -176 1262 l 1,0,-1
EndSplineSet
Validated: 1
EndChar

StartChar: uniE05C
Encoding: 57436 57436 125
Width: 0
Flags: W
AnchorPoint: "mkmk_up" -500 1500 mark 0
AnchorPoint: "mkmk_up" -500 1800 basemark 0
AnchorPoint: "TehtaAbove" -500 1500 mark 0
LayerCount: 2
Fore
SplineSet
-182 1590 m 1,0,-1
 -436 1264 l 1,1,-1
 -647 1264 l 1,2,-1
 -911 1590 l 1,3,-1
 -643 1590 l 1,4,-1
 -547 1439 l 1,5,6
 -537 1454 -537 1454 -528 1468 c 128,-1,7
 -519 1482 -519 1482 -509 1497 c 0,8,9
 -495 1518 -495 1518 -478 1543.5 c 128,-1,10
 -461 1569 -461 1569 -446 1590 c 1,11,-1
 -182 1590 l 1,0,-1
EndSplineSet
Validated: 1
EndChar

StartChar: harmasilme
Encoding: 65544 -1 126
Width: 1732
Flags: W
AnchorPoint: "TehtaAbove" 932 1800 basechar 0
AnchorPoint: "TehtaBelow" 932 -200 basechar 0
LayerCount: 2
Fore
SplineSet
1603 1485 m 1,0,-1
 1603 -20 l 1,1,-1
 1377 -20 l 1,2,-1
 1377 77 l 1,3,4
 1322 15 1322 15 1253 -14 c 128,-1,5
 1184 -43 1184 -43 1096 -43 c 0,6,7
 999 -43 999 -43 921 -1.5 c 128,-1,8
 843 40 843 40 785 130 c 1,9,10
 728 35 728 35 649 -4 c 128,-1,11
 570 -43 570 -43 478 -43 c 0,12,13
 373 -43 373 -43 293 -2.5 c 128,-1,14
 213 38 213 38 159.5 108 c 128,-1,15
 106 178 106 178 78.5 272 c 128,-1,16
 51 366 51 366 51 472 c 0,17,18
 51 619 51 619 77.5 746 c 128,-1,19
 104 873 104 873 153 976.5 c 128,-1,20
 202 1080 202 1080 272 1159 c 128,-1,21
 342 1238 342 1238 428 1288 c 0,22,23
 603 1385 603 1385 847.5 1435 c 128,-1,24
 1092 1485 1092 1485 1402 1485 c 2,25,-1
 1603 1485 l 1,0,-1
1377 1290 m 1,26,27
 1287 1287 1287 1287 1196.5 1279 c 128,-1,28
 1106 1271 1106 1271 1019 1258.5 c 128,-1,29
 932 1246 932 1246 850 1228 c 128,-1,30
 768 1210 768 1210 695 1188 c 0,31,32
 390 1096 390 1096 305 711 c 0,33,34
 281 609 281 609 281 506 c 0,35,36
 281 422 281 422 296 355 c 128,-1,37
 311 288 311 288 337.5 241.5 c 128,-1,38
 364 195 364 195 401 170 c 128,-1,39
 438 145 438 145 482 145 c 0,40,41
 531 145 531 145 570 172 c 128,-1,42
 609 199 609 199 636 247.5 c 128,-1,43
 663 296 663 296 677 364 c 128,-1,44
 691 432 691 432 691 513 c 2,45,-1
 691 520 l 2,46,47
 691 785 691 785 857 1081 c 1,48,-1
 1082 1081 l 1,49,50
 1044 993 1044 993 1017 926.5 c 128,-1,51
 990 860 990 860 971.5 808 c 128,-1,52
 953 756 953 756 942.5 716 c 128,-1,53
 932 676 932 676 926.5 641.5 c 128,-1,54
 921 607 921 607 919.5 574.5 c 128,-1,55
 918 542 918 542 918 506 c 0,56,57
 918 422 918 422 933 355.5 c 128,-1,58
 948 289 948 289 975 242 c 128,-1,59
 1002 195 1002 195 1038.5 170 c 128,-1,60
 1075 145 1075 145 1118 145 c 0,61,62
 1152 145 1152 145 1186.5 157.5 c 128,-1,63
 1221 170 1221 170 1251.5 192 c 128,-1,64
 1282 214 1282 214 1306.5 243.5 c 128,-1,65
 1331 273 1331 273 1345 306 c 0,66,67
 1360 337 1360 337 1367 360.5 c 128,-1,68
 1374 384 1374 384 1377 401 c 2,69,-1
 1377 1290 l 1,26,27
EndSplineSet
Validated: 1
LCarets2: 2 0 0
Ligature2: "Ligatures subtable" uniE024 zwj uniE00A
EndChar

StartChar: harmatinco
Encoding: 65545 -1 127
Width: 1733
Flags: W
AnchorPoint: "TehtaAbove" 1333 1500 basechar 0
AnchorPoint: "TehtaBelow" 1333 -200 basechar 0
LayerCount: 2
Fore
SplineSet
971 -426 m 1,0,-1
 744 -426 l 1,1,-1
 744 76 l 1,2,3
 636 -45 636 -45 461 -45 c 0,4,5
 373 -45 373 -45 298 -8.5 c 128,-1,6
 223 28 223 28 168 98.5 c 128,-1,7
 113 169 113 169 82 273 c 128,-1,8
 51 377 51 377 51 512 c 0,9,10
 51 778 51 778 219 1081 c 1,11,-1
 444 1081 l 1,12,13
 406 994 406 994 379 927.5 c 128,-1,14
 352 861 352 861 333.5 809.5 c 128,-1,15
 315 758 315 758 304.5 717.5 c 128,-1,16
 294 677 294 677 288.5 642 c 128,-1,17
 283 607 283 607 281.5 574.5 c 128,-1,18
 280 542 280 542 280 506 c 0,19,20
 280 423 280 423 295 356 c 128,-1,21
 310 289 310 289 336.5 242 c 128,-1,22
 363 195 363 195 399.5 169.5 c 128,-1,23
 436 144 436 144 480 144 c 2,24,-1
 484 144 l 2,25,26
 533 144 533 144 576.5 166 c 128,-1,27
 620 188 620 188 654.5 223 c 128,-1,28
 689 258 689 258 712 301.5 c 128,-1,29
 735 345 735 345 744 387 c 1,30,-1
 744 1485 l 1,31,-1
 971 1485 l 1,32,-1
 971 984 l 1,33,34
 1079 1105 1079 1105 1254 1105 c 0,35,36
 1342 1105 1342 1105 1417 1068.5 c 128,-1,37
 1492 1032 1492 1032 1547 961 c 128,-1,38
 1602 890 1602 890 1633 786.5 c 128,-1,39
 1664 683 1664 683 1664 549 c 0,40,41
 1664 409 1664 409 1622.5 270.5 c 128,-1,42
 1581 132 1581 132 1498 -20 c 1,43,-1
 1270 -20 l 1,44,45
 1329 114 1329 114 1364 205.5 c 128,-1,46
 1399 297 1399 297 1409 350 c 0,47,48
 1422 404 1422 404 1428 455 c 128,-1,49
 1434 506 1434 506 1434 555 c 0,50,51
 1434 637 1434 637 1419.5 704 c 128,-1,52
 1405 771 1405 771 1378.5 818 c 128,-1,53
 1352 865 1352 865 1314.5 890.5 c 128,-1,54
 1277 916 1277 916 1232 916 c 0,55,56
 1183 916 1183 916 1139.5 894 c 128,-1,57
 1096 872 1096 872 1061.5 836.5 c 128,-1,58
 1027 801 1027 801 1003.5 758 c 128,-1,59
 980 715 980 715 971 673 c 1,60,-1
 971 -426 l 1,0,-1
EndSplineSet
Validated: 1
LCarets2: 2 0 0
Ligature2: "Ligatures subtable" uniE00A zwj uniE000
EndChar

StartChar: hwestatinco
Encoding: 65546 -1 128
Width: 1810
Flags: W
AnchorPoint: "TehtaBelow" 1410 -200 basechar 0
AnchorPoint: "TehtaAbove" 1410 1500 basechar 0
LayerCount: 2
Fore
SplineSet
1048 -425 m 1,0,-1
 820 -425 l 1,1,-1
 820 74 l 1,2,3
 766 13 766 13 696 -16 c 128,-1,4
 626 -45 626 -45 537 -45 c 0,5,6
 449 -45 449 -45 374 -8.5 c 128,-1,7
 299 28 299 28 244 98.5 c 128,-1,8
 189 169 189 169 158 273 c 128,-1,9
 127 377 127 377 127 512 c 0,10,11
 127 602 127 602 146 696.5 c 128,-1,12
 165 791 165 791 200 886 c 1,13,-1
 51 886 l 1,14,-1
 51 1081 l 1,15,-1
 820 1081 l 1,16,-1
 820 1485 l 1,17,-1
 1047 1485 l 1,18,-1
 1047 984 l 1,19,20
 1155 1105 1155 1105 1330 1105 c 0,21,22
 1418 1105 1418 1105 1493 1068.5 c 128,-1,23
 1568 1032 1568 1032 1623 961.5 c 128,-1,24
 1678 891 1678 891 1709 787 c 128,-1,25
 1740 683 1740 683 1740 549 c 0,26,27
 1740 281 1740 281 1573 -20 c 1,28,-1
 1347 -20 l 1,29,30
 1384 68 1384 68 1411 135 c 128,-1,31
 1438 202 1438 202 1456 253.5 c 128,-1,32
 1474 305 1474 305 1485 345.5 c 128,-1,33
 1496 386 1496 386 1502 420.5 c 128,-1,34
 1508 455 1508 455 1509.5 487 c 128,-1,35
 1511 519 1511 519 1511 555 c 0,36,37
 1511 633 1511 633 1497 699.5 c 128,-1,38
 1483 766 1483 766 1456.5 814 c 128,-1,39
 1430 862 1430 862 1392.5 889 c 128,-1,40
 1355 916 1355 916 1309 916 c 0,41,42
 1273 916 1273 916 1239 903.5 c 128,-1,43
 1205 891 1205 891 1176 871.5 c 128,-1,44
 1147 852 1147 852 1123.5 828 c 128,-1,45
 1100 804 1100 804 1085 782 c 0,46,47
 1071 763 1071 763 1062.5 734.5 c 128,-1,48
 1054 706 1054 706 1048 674 c 1,49,-1
 1048 -425 l 1,0,-1
439 886 m 1,50,51
 411 815 411 815 394 760.5 c 128,-1,52
 377 706 377 706 368 661 c 128,-1,53
 359 616 359 616 356.5 578.5 c 128,-1,54
 354 541 354 541 354 506 c 0,55,56
 354 428 354 428 368 361.5 c 128,-1,57
 382 295 382 295 408.5 247 c 128,-1,58
 435 199 435 199 473 171.5 c 128,-1,59
 511 144 511 144 559 144 c 0,60,61
 596 144 596 144 630.5 156.5 c 128,-1,62
 665 169 665 169 694.5 191.5 c 128,-1,63
 724 214 724 214 748 243.5 c 128,-1,64
 772 273 772 273 789 308 c 1,65,-1
 789 307 l 1,66,67
 839 413 839 413 839 589 c 2,68,-1
 839 602 l 2,69,70
 838 689 838 689 834.5 758.5 c 128,-1,71
 831 828 831 828 823 886 c 1,72,-1
 439 886 l 1,50,51
EndSplineSet
Validated: 1
LCarets2: 2 0 0
Ligature2: "Ligatures subtable" uniE00B zwj uniE000
EndChar

StartChar: uni2E31
Encoding: 11825 11825 129
Width: 361
Flags: W
LayerCount: 2
Fore
SplineSet
300 656 m 1,0,-1
 300 405 l 1,1,-1
 48 405 l 1,2,-1
 48 656 l 1,3,-1
 300 656 l 1,0,-1
EndSplineSet
Validated: 1
EndChar

StartChar: colon
Encoding: 58 58 130
Width: 361
Flags: W
LayerCount: 2
Fore
SplineSet
300 444 m 1,0,-1
 300 192 l 1,1,-1
 48 192 l 1,2,-1
 48 444 l 1,3,-1
 300 444 l 1,0,-1
300 869 m 1,4,-1
 300 617 l 1,5,-1
 48 617 l 1,6,-1
 48 869 l 1,7,-1
 300 869 l 1,4,-1
EndSplineSet
Validated: 1
EndChar

StartChar: uni204A
Encoding: 8266 8266 131
Width: 855
Flags: W
LayerCount: 2
Fore
SplineSet
573 886 m 1,0,-1
 49 886 l 1,1,-1
 49 1081 l 1,2,-1
 791 1081 l 1,3,-1
 791 365 l 2,4,5
 791 256 791 256 765 178.5 c 128,-1,6
 739 101 739 101 692 51.5 c 128,-1,7
 645 2 645 2 580 -21.5 c 128,-1,8
 515 -45 515 -45 437 -45 c 0,9,10
 342 -45 342 -45 248 -3 c 1,11,-1
 328 176 l 1,12,13
 383 150 383 150 432 150 c 0,14,15
 462 150 462 150 488 159 c 128,-1,16
 514 168 514 168 533 191.5 c 128,-1,17
 552 215 552 215 562.5 255 c 128,-1,18
 573 295 573 295 573 358 c 2,19,-1
 573 886 l 1,0,-1
EndSplineSet
Validated: 1
EndChar

StartChar: uni205D
Encoding: 8285 8285 132
Width: 361
Flags: W
LayerCount: 2
Fore
SplineSet
300 1081 m 1,0,-1
 300 830 l 1,1,-1
 48 830 l 1,2,-1
 48 1081 l 1,3,-1
 300 1081 l 1,0,-1
300 231 m 1,4,-1
 300 -20 l 1,5,-1
 48 -20 l 1,6,-1
 48 231 l 1,7,-1
 300 231 l 1,4,-1
300 656 m 1,8,-1
 300 405 l 1,9,-1
 48 405 l 1,10,-1
 48 656 l 1,11,-1
 300 656 l 1,8,-1
EndSplineSet
Validated: 1
EndChar

StartChar: uni2058
Encoding: 8280 8280 133
Width: 945
Flags: W
LayerCount: 2
Fore
SplineSet
49 656 m 1,0,-1
 301 656 l 1,1,-1
 301 405 l 1,2,-1
 49 405 l 1,3,-1
 49 656 l 1,0,-1
629 656 m 1,4,-1
 880 656 l 1,5,-1
 880 405 l 1,6,-1
 629 405 l 1,7,-1
 629 656 l 1,4,-1
590 395 m 1,8,-1
 590 144 l 1,9,-1
 339 144 l 1,10,-1
 339 395 l 1,11,-1
 590 395 l 1,8,-1
590 917 m 1,12,-1
 590 666 l 1,13,-1
 339 666 l 1,14,-1
 339 917 l 1,15,-1
 590 917 l 1,12,-1
EndSplineSet
Validated: 1
EndChar

StartChar: uni2E2D
Encoding: 11821 11821 134
Width: 1217
Flags: W
LayerCount: 2
Fore
SplineSet
726 1081 m 1,0,-1
 726 830 l 1,1,-1
 476 830 l 1,2,-1
 476 1081 l 1,3,-1
 726 1081 l 1,0,-1
726 231 m 1,4,-1
 726 -20 l 1,5,-1
 476 -20 l 1,6,-1
 476 231 l 1,7,-1
 726 231 l 1,4,-1
726 656 m 1,8,-1
 726 405 l 1,9,-1
 476 405 l 1,10,-1
 476 656 l 1,11,-1
 726 656 l 1,8,-1
900 656 m 1,12,-1
 1151 656 l 1,13,-1
 1151 405 l 1,14,-1
 900 405 l 1,15,-1
 900 656 l 1,12,-1
50 656 m 1,16,-1
 301 656 l 1,17,-1
 301 405 l 1,18,-1
 50 405 l 1,19,-1
 50 656 l 1,16,-1
EndSplineSet
Validated: 1
EndChar

StartChar: rightcurl_above_double
Encoding: 65547 -1 135
Width: 0
Flags: W
AnchorPoint: "mkmk_up" -500 1800 basemark 0
AnchorPoint: "mkmk_up" -500 1500 mark 0
AnchorPoint: "TehtaAbove" -500 1500 mark 0
LayerCount: 2
Fore
SplineSet
-135 1399 m 1,0,1
 -135 1446 -135 1446 -140 1481.5 c 128,-1,2
 -145 1517 -145 1517 -160 1532 c 0,3,4
 -171 1543 -171 1543 -186.5 1545 c 128,-1,5
 -202 1547 -202 1547 -217 1542 c 1,6,-1
 -215 1542 l 1,7,8
 -238 1531 -238 1531 -278 1491 c 2,9,-1
 -562 1204 l 1,10,-1
 -674 1317 l 1,11,-1
 -318 1672 l 2,12,13
 -281 1705 -281 1705 -243.5 1719.5 c 128,-1,14
 -206 1734 -206 1734 -171.5 1733 c 128,-1,15
 -137 1732 -137 1732 -107 1717 c 128,-1,16
 -77 1702 -77 1702 -52 1677 c 0,17,18
 -34 1659 -34 1659 -21 1635 c 128,-1,19
 -8 1611 -8 1611 1.5 1583.5 c 128,-1,20
 11 1556 11 1556 17 1527 c 128,-1,21
 23 1498 23 1498 26 1469 c 1,22,-1
 -135 1399 l 1,0,1
-461 1398 m 1,23,24
 -461 1445 -461 1445 -466 1481 c 128,-1,25
 -471 1517 -471 1517 -486 1532 c 0,26,27
 -497 1543 -497 1543 -512 1545 c 128,-1,28
 -527 1547 -527 1547 -542 1542 c 1,29,-1
 -541 1542 l 1,30,31
 -564 1531 -564 1531 -604 1490 c 2,32,-1
 -887 1204 l 1,33,-1
 -1000 1316 l 1,34,-1
 -644 1672 l 2,35,36
 -607 1705 -607 1705 -569.5 1719 c 128,-1,37
 -532 1733 -532 1733 -497.5 1732 c 128,-1,38
 -463 1731 -463 1731 -432.5 1716 c 128,-1,39
 -402 1701 -402 1701 -377 1677 c 0,40,41
 -359 1659 -359 1659 -346.5 1634.5 c 128,-1,42
 -334 1610 -334 1610 -324.5 1583 c 128,-1,43
 -315 1556 -315 1556 -309 1526.5 c 128,-1,44
 -303 1497 -303 1497 -300 1469 c 1,45,-1
 -461 1398 l 1,23,24
EndSplineSet
Validated: 37
Ligature2: "Ligatures subtable" uniE04A uniE04A
LCarets2: 1 0
EndChar

StartChar: leftcurl_above_double
Encoding: 65548 -1 136
Width: 0
Flags: W
AnchorPoint: "mkmk_up" -500 1800 basemark 0
AnchorPoint: "mkmk_up" -500 1500 mark 0
AnchorPoint: "TehtaAbove" -500 1500 mark 0
LayerCount: 2
Fore
SplineSet
-254 1841 m 1,0,1
 -223 1837 -223 1837 -192.5 1830 c 128,-1,2
 -162 1823 -162 1823 -135 1813.5 c 128,-1,3
 -108 1804 -108 1804 -85 1791 c 128,-1,4
 -62 1778 -62 1778 -46 1762 c 0,5,6
 -23 1739 -23 1739 -8 1709 c 128,-1,7
 7 1679 7 1679 8 1645.5 c 128,-1,8
 9 1612 9 1612 -4 1574.5 c 128,-1,9
 -17 1537 -17 1537 -51 1498 c 1,10,-1
 -409 1139 l 1,11,-1
 -522 1252 l 1,12,-1
 -235 1536 l 2,13,14
 -214 1557 -214 1557 -201.5 1572 c 128,-1,15
 -189 1587 -189 1587 -184 1598.5 c 128,-1,16
 -179 1610 -179 1610 -179 1619.5 c 128,-1,17
 -179 1629 -179 1629 -181 1638 c 0,18,19
 -184 1642 -184 1642 -186.5 1646 c 128,-1,20
 -189 1650 -189 1650 -191 1653 c 0,21,22
 -198 1660 -198 1660 -213 1667 c 1,23,-1
 -211 1667 l 1,24,25
 -228 1673 -228 1673 -256.5 1676 c 128,-1,26
 -285 1679 -285 1679 -327 1679 c 1,27,-1
 -254 1841 l 1,0,1
-582 1841 m 1,28,29
 -551 1837 -551 1837 -520.5 1829.5 c 128,-1,30
 -490 1822 -490 1822 -463 1812.5 c 128,-1,31
 -436 1803 -436 1803 -413 1790 c 128,-1,32
 -390 1777 -390 1777 -374 1762 c 0,33,34
 -351 1739 -351 1739 -336 1709 c 128,-1,35
 -321 1679 -321 1679 -319.5 1645 c 128,-1,36
 -318 1611 -318 1611 -331.5 1573.5 c 128,-1,37
 -345 1536 -345 1536 -378 1497 c 1,38,-1
 -737 1139 l 1,39,-1
 -849 1251 l 1,40,-1
 -562 1535 l 2,41,42
 -541 1556 -541 1556 -529 1571 c 128,-1,43
 -517 1586 -517 1586 -511.5 1598 c 128,-1,44
 -506 1610 -506 1610 -506 1619 c 128,-1,45
 -506 1628 -506 1628 -509 1638 c 0,46,47
 -512 1642 -512 1642 -514.5 1646 c 128,-1,48
 -517 1650 -517 1650 -519 1652 c 0,49,50
 -526 1659 -526 1659 -540 1666 c 1,51,-1
 -539 1666 l 1,52,53
 -556 1672 -556 1672 -584 1675.5 c 128,-1,54
 -612 1679 -612 1679 -655 1679 c 1,55,-1
 -582 1841 l 1,28,29
EndSplineSet
Validated: 37
Ligature2: "Ligatures subtable" uniE04C uniE04C
LCarets2: 1 0
EndChar

StartChar: lambe_xhook
Encoding: 65549 -1 138
Width: 0
Flags: W
AnchorPoint: "LambeXhook" -350 0 mark 0
LayerCount: 2
Fore
SplineSet
-670 -551 m 1,0,1
 -728 -527 -728 -527 -778.5 -495 c 128,-1,2
 -829 -463 -829 -463 -852 -424 c 0,3,4
 -870 -393 -870 -393 -876 -359.5 c 128,-1,5
 -882 -326 -882 -326 -873.5 -292.5 c 128,-1,6
 -865 -259 -865 -259 -842 -226.5 c 128,-1,7
 -819 -194 -819 -194 -779 -166 c 1,8,-1
 -341 87 l 1,9,-1
 -262 -50 l 1,10,-1
 -612 -251 l 2,11,12
 -667 -283 -667 -283 -683.5 -305 c 128,-1,13
 -700 -327 -700 -327 -685 -353 c 0,14,15
 -667 -385 -667 -385 -561 -414 c 1,16,-1
 -670 -551 l 1,0,1
EndSplineSet
Validated: 33
EndChar
